IBM Plex Sans Thai Looped-Thin.ufo
<glyph name="parenleft" format="1">
  <advance width="332"/>
  <unicode hex="0028"/>
  <outline>
    <contour>
      <point x="105" y="311" type="curve" smooth="yes" name="hr00"/>
      <point x="105" y="107"/>
      <point x="197" y="-53"/>
      <point x="289" y="-138" type="curve"/>
      <point x="314" y="-138" type="line"/>
      <point x="216" y="-51"/>
      <point x="126" y="109"/>
      <point x="126" y="294" type="curve" smooth="yes"/>
      <point x="126" y="328" type="line" smooth="yes"/>
      <point x="126" y="513"/>
      <point x="216" y="673"/>
      <point x="314" y="760" type="curve"/>
      <point x="289" y="760" type="line"/>
      <point x="197" y="675"/>
      <point x="105" y="515"/>
    </contour>
  </outline>
</glyph>
<glyph name="one" format="1">
  <advance width="600"/>
  <unicode hex="0031"/>
  <outline>
    <contour>
      <point x="545" y="0" type="line" name="hr00"/>
      <point x="545" y="20" type="line"/>
      <point x="334" y="20" type="line"/>
      <point x="334" y="698" type="line"/>
      <point x="296" y="698" type="line"/>
      <point x="80" y="517" type="line"/>
      <point x="93" y="501" type="line"/>
      <point x="309" y="682" type="line"/>
      <point x="312" y="682" type="line"/>
      <point x="312" y="20" type="line"/>
      <point x="93" y="20" type="line"/>
      <point x="93" y="0" type="line"/>
    </contour>
  </outline>
</glyph>
<glyph name="six" format="1">
  <advance width="600"/>
  <unicode hex="0036"/>
  <outline>
    <contour>
      <point x="300" y="-12" type="curve" smooth="yes" name="hr00"/>
      <point x="429" y="-12"/>
      <point x="511" y="74"/>
      <point x="511" y="205" type="curve" smooth="yes"/>
      <point x="511" y="336"/>
      <point x="428" y="417"/>
      <point x="299" y="417" type="curve" smooth="yes"/>
      <point x="217" y="417"/>
      <point x="151" y="382"/>
      <point x="116" y="310" type="curve"/>
      <point x="113" y="311" type="line"/>
      <point x="141" y="477"/>
      <point x="230" y="597"/>
      <point x="392" y="698" type="curve"/>
      <point x="360" y="698" type="line"/>
      <point x="206" y="603"/>
      <point x="87" y="452"/>
      <point x="87" y="226" type="curve" smooth="yes"/>
      <point x="87" y="93"/>
      <point x="148" y="-12"/>
    </contour>
    <contour>
      <point x="299" y="8" type="curve" smooth="yes"/>
      <point x="183" y="8"/>
      <point x="111" y="86"/>
      <point x="111" y="190" type="curve" smooth="yes"/>
      <point x="111" y="218" type="line" smooth="yes"/>
      <point x="111" y="319"/>
      <point x="180" y="397"/>
      <point x="299" y="397" type="curve" smooth="yes"/>
      <point x="417" y="397"/>
      <point x="487" y="319"/>
      <point x="487" y="218" type="curve" smooth="yes"/>
      <point x="487" y="187" type="line" smooth="yes"/>
      <point x="487" y="85"/>
      <point x="416" y="8"/>
    </contour>
  </outline>
</glyph>
<glyph name="copyright" format="1">
  <advance width="708"/>
  <unicode hex="00A9"/>
  <outline>
    <contour>
      <point x="354" y="-12" type="curve" smooth="yes" name="hr00"/>
      <point x="543" y="-12"/>
      <point x="675" y="130"/>
      <point x="675" y="349" type="curve" smooth="yes"/>
      <point x="675" y="568"/>
      <point x="543" y="710"/>
      <point x="354" y="710" type="curve" smooth="yes"/>
      <point x="165" y="710"/>
      <point x="33" y="568"/>
      <point x="33" y="349" type="curve" smooth="yes"/>
      <point x="33" y="130"/>
      <point x="165" y="-12"/>
    </contour>
    <contour>
      <point x="354" y="6" type="curve" smooth="yes"/>
      <point x="175" y="6"/>
      <point x="55" y="144"/>
      <point x="55" y="327" type="curve" smooth="yes"/>
      <point x="55" y="371" type="line" smooth="yes"/>
      <point x="55" y="554"/>
      <point x="174" y="692"/>
      <point x="354" y="692" type="curve" smooth="yes"/>
      <point x="533" y="692"/>
      <point x="653" y="554"/>
      <point x="653" y="371" type="curve" smooth="yes"/>
      <point x="653" y="327" type="line" smooth="yes"/>
      <point x="653" y="144"/>
      <point x="533" y="6"/>
    </contour>
    <contour>
      <point x="351" y="149" type="curve" smooth="yes"/>
      <point x="415" y="149"/>
      <point x="461" y="184"/>
      <point x="480" y="229" type="curve"/>
      <point x="465" y="236" type="line"/>
      <point x="446" y="193"/>
      <point x="407" y="166"/>
      <point x="352" y="166" type="curve" smooth="yes"/>
      <point x="274" y="166"/>
      <point x="222" y="220"/>
      <point x="222" y="336" type="curve" smooth="yes"/>
      <point x="222" y="356" type="line" smooth="yes"/>
      <point x="222" y="468"/>
      <point x="274" y="526"/>
      <point x="353" y="526" type="curve" smooth="yes"/>
      <point x="407" y="526"/>
      <point x="443" y="500"/>
      <point x="460" y="457" type="curve"/>
      <point x="476" y="462" type="line"/>
      <point x="460" y="508"/>
      <point x="418" y="543"/>
      <point x="353" y="543" type="curve" smooth="yes"/>
      <point x="262" y="543"/>
      <point x="202" y="475"/>
      <point x="202" y="346" type="curve" smooth="yes"/>
      <point x="202" y="217"/>
      <point x="261" y="149"/>
    </contour>
  </outline>
</glyph>
<glyph name="IJ" format="1">
  <advance width="631"/>
  <unicode hex="0132"/>
  <outline>
    <contour>
      <point x="313" y="698" type="line" name="hr00"/>
      <point x="313" y="678" type="line"/>
      <point x="509" y="678" type="line"/>
      <point x="509" y="202" type="line" smooth="yes"/>
      <point x="509" y="77"/>
      <point x="438" y="8"/>
      <point x="310" y="8" type="curve" smooth="yes"/>
      <point x="201" y="8"/>
      <point x="146" y="48"/>
      <point x="119" y="139" type="curve"/>
      <point x="100" y="133" type="line"/>
      <point x="124" y="33"/>
      <point x="188" y="-12"/>
      <point x="310" y="-12" type="curve" smooth="yes"/>
      <point x="453" y="-12"/>
      <point x="531" y="64"/>
      <point x="531" y="202" type="curve" smooth="yes"/>
      <point x="531" y="698" type="line"/>
    </contour>
    <contour>
      <point x="100" y="290" type="line"/>
      <point x="122" y="290" type="line"/>
      <point x="122" y="698" type="line"/>
      <point x="100" y="698" type="line"/>
    </contour>
  </outline>
</glyph>
<glyph name="tildecomb" format="1">
  <advance width="0"/>
  <unicode hex="0303"/>
  <outline>
    <contour>
      <point x="-108" y="646" type="curve" smooth="yes" name="hr00"/>
      <point x="-80" y="646"/>
      <point x="-54" y="658"/>
      <point x="-30" y="685" type="curve"/>
      <point x="-42" y="697" type="line"/>
      <point x="-63" y="675"/>
      <point x="-83" y="664"/>
      <point x="-107" y="664" type="curve" smooth="yes"/>
      <point x="-126" y="664"/>
      <point x="-144" y="671"/>
      <point x="-173" y="690" type="curve" smooth="yes"/>
      <point x="-207" y="712"/>
      <point x="-227" y="720"/>
      <point x="-250" y="720" type="curve" smooth="yes"/>
      <point x="-278" y="720"/>
      <point x="-304" y="708"/>
      <point x="-328" y="681" type="curve"/>
      <point x="-316" y="669" type="line"/>
      <point x="-295" y="691"/>
      <point x="-275" y="702"/>
      <point x="-251" y="702" type="curve" smooth="yes"/>
      <point x="-232" y="702"/>
      <point x="-214" y="695"/>
      <point x="-185" y="676" type="curve" smooth="yes"/>
      <point x="-151" y="654"/>
      <point x="-131" y="646"/>
    </contour>
    <contour>
      <point x="-179.0" y="558.0" type="move" name="_top"/>
    </contour>
  </outline>
</glyph>
<glyph name="macronbelowcomb" format="1">
  <advance width="0"/>
  <unicode hex="0331"/>
  <outline>
    <contour>
      <point x="-288" y="-139" type="line" name="hr00"/>
      <point x="-30" y="-139" type="line"/>
      <point x="-30" y="-121" type="line"/>
      <point x="-288" y="-121" type="line"/>
    </contour>
    <contour>
      <point x="-10.0" y="0.0" type="move" name="_bottomright"/>
    </contour>
  </outline>
</glyph>
<glyph name="khoKhai-thai" format="1">
  <advance width="611"/>
  <unicode hex="0E02"/>
  <outline>
    <contour>
      <point x="319" y="-12" type="curve" smooth="yes"/>
      <point x="421" y="-12"/>
      <point x="496" y="59"/>
      <point x="496" y="157" type="curve" smooth="yes"/>
      <point x="496" y="536" type="line"/>
      <point x="475" y="536" type="line"/>
      <point x="475" y="158" type="line" smooth="yes"/>
      <point x="475" y="68"/>
      <point x="411" y="6"/>
      <point x="319" y="6" type="curve" smooth="yes"/>
      <point x="227" y="6"/>
      <point x="171" y="64"/>
      <point x="171" y="149" type="curve" smooth="yes"/>
      <point x="171" y="162" type="line" smooth="yes"/>
      <point x="171" y="217"/>
      <point x="203" y="264"/>
      <point x="233" y="305" type="curve" smooth="yes"/>
      <point x="261" y="343"/>
      <point x="290" y="382"/>
      <point x="290" y="431" type="curve" smooth="yes"/>
      <point x="290" y="507"/>
      <point x="239" y="548"/>
      <point x="167" y="548" type="curve" smooth="yes" name="hr01"/>
      <point x="86" y="548"/>
      <point x="34" y="498"/>
      <point x="34" y="436" type="curve" smooth="yes"/>
      <point x="34" y="387"/>
      <point x="65" y="355"/>
      <point x="111" y="355" type="curve" smooth="yes"/>
      <point x="157" y="355"/>
      <point x="188" y="387"/>
      <point x="188" y="431" type="curve" smooth="yes"/>
      <point x="188" y="475"/>
      <point x="157" y="505"/>
      <point x="118" y="505" type="curve" smooth="yes"/>
      <point x="99" y="505"/>
      <point x="84" y="500"/>
      <point x="75" y="492" type="curve"/>
      <point x="74" y="493" type="line"/>
      <point x="90" y="512"/>
      <point x="111" y="530"/>
      <point x="167" y="530" type="curve" smooth="yes"/>
      <point x="228" y="530"/>
      <point x="269" y="498"/>
      <point x="269" y="431" type="curve" smooth="yes"/>
      <point x="269" y="385"/>
      <point x="246" y="353"/>
      <point x="216" y="312" type="curve" smooth="yes"/>
      <point x="185" y="269"/>
      <point x="150" y="220"/>
      <point x="150" y="151" type="curve" smooth="yes" name="hr02"/>
      <point x="150" y="55"/>
      <point x="217" y="-12"/>
    </contour>
    <contour>
      <point x="111" y="370" type="curve" smooth="yes"/>
      <point x="76" y="370"/>
      <point x="54" y="393"/>
      <point x="54" y="430" type="curve" smooth="yes"/>
      <point x="54" y="467"/>
      <point x="76" y="490"/>
      <point x="111" y="490" type="curve" smooth="yes"/>
      <point x="146" y="490"/>
      <point x="168" y="467"/>
      <point x="168" y="430" type="curve" smooth="yes" name="hr03"/>
      <point x="168" y="393"/>
      <point x="146" y="370"/>
    </contour>
    <contour>
      <point x="496.0" y="0.0" type="move" name="bottomright"/>
    </contour>
    <contour>
      <point x="329.0" y="558.0" type="move" name="top"/>
    </contour>
    <contour>
      <point x="496.0" y="600.0" type="move" name="topright"/>
    </contour>
  </outline>
</glyph>
<glyph name="khoKhon-thai" format="1">
  <advance width="696"/>
  <unicode hex="0E05"/>
  <outline>
    <contour>
      <point x="113" y="0" type="line" name="hr00"/>
      <point x="134" y="0" type="line"/>
      <point x="134" y="138" type="line" smooth="yes"/>
      <point x="134" y="214"/>
      <point x="214" y="275"/>
      <point x="290" y="292" type="curve"/>
      <point x="291" y="290" type="line"/>
      <point x="279" y="279"/>
      <point x="272" y="262"/>
      <point x="272" y="240" type="curve" smooth="yes"/>
      <point x="272" y="195"/>
      <point x="300" y="165"/>
      <point x="348" y="165" type="curve" smooth="yes"/>
      <point x="396" y="165"/>
      <point x="424" y="195"/>
      <point x="424" y="240" type="curve" smooth="yes"/>
      <point x="424" y="285"/>
      <point x="396" y="315"/>
      <point x="342" y="315" type="curve" smooth="yes"/>
      <point x="259" y="315"/>
      <point x="170" y="268"/>
      <point x="137" y="199" type="curve"/>
      <point x="134" y="199" type="line"/>
      <point x="134" y="419" type="line" smooth="yes"/>
      <point x="134" y="491"/>
      <point x="169" y="528"/>
      <point x="234" y="528" type="curve"/>
      <point x="348" y="423" type="line"/>
      <point x="462" y="528" type="line"/>
      <point x="527" y="528"/>
      <point x="562" y="491"/>
      <point x="562" y="419" type="curve" smooth="yes"/>
      <point x="562" y="0" type="line"/>
      <point x="583" y="0" type="line"/>
      <point x="583" y="421" type="line" smooth="yes"/>
      <point x="583" y="502"/>
      <point x="536" y="548"/>
      <point x="458" y="548" type="curve"/>
      <point x="348" y="447" type="line"/>
      <point x="238" y="548" type="line"/>
      <point x="160" y="548"/>
      <point x="113" y="502"/>
      <point x="113" y="421" type="curve" smooth="yes"/>
    </contour>
    <contour>
      <point x="348" y="180" type="curve" smooth="yes"/>
      <point x="308" y="180"/>
      <point x="291" y="204"/>
      <point x="291" y="240" type="curve" smooth="yes"/>
      <point x="291" y="276"/>
      <point x="308" y="300"/>
      <point x="348" y="300" type="curve" smooth="yes"/>
      <point x="388" y="300"/>
      <point x="405" y="276"/>
      <point x="405" y="240" type="curve" smooth="yes"/>
      <point x="405" y="204"/>
      <point x="388" y="180"/>
    </contour>
    <contour>
      <point x="583.0" y="0.0" type="move" name="bottomright"/>
    </contour>
    <contour>
      <point x="348.0" y="558.0" type="move" name="top"/>
    </contour>
    <contour>
      <point x="583.0" y="600.0" type="move" name="topright"/>
    </contour>
  </outline>
</glyph>
<glyph name="khoRakhang-thai" format="1">
  <advance width="628"/>
  <unicode hex="0E06"/>
  <outline>
    <contour>
      <point x="141" y="-12" type="curve" smooth="yes"/>
      <point x="184" y="-12"/>
      <point x="216" y="18"/>
      <point x="216" y="64" type="curve" smooth="yes"/>
      <point x="216" y="77"/>
      <point x="213" y="88"/>
      <point x="209" y="98" type="curve"/>
      <point x="493" y="0" type="line" name="hr01"/>
      <point x="510" y="0" type="line"/>
      <point x="510" y="536" type="line"/>
      <point x="489" y="536" type="line"/>
      <point x="489" y="21" type="line"/>
      <point x="485" y="21" type="line"/>
      <point x="212" y="116" type="line"/>
      <point x="212" y="134" type="line" smooth="yes"/>
      <point x="212" y="255"/>
      <point x="252" y="324"/>
      <point x="287" y="382" type="curve" smooth="yes"/>
      <point x="314" y="427"/>
      <point x="338" y="468"/>
      <point x="338" y="522" type="curve" smooth="yes"/>
      <point x="338" y="536" type="line"/>
      <point x="317" y="536" type="line"/>
      <point x="317" y="528" type="line" smooth="yes"/>
      <point x="317" y="452"/>
      <point x="237" y="406"/>
      <point x="162" y="404" type="curve"/>
      <point x="162" y="405" type="line"/>
      <point x="190" y="413"/>
      <point x="214" y="434"/>
      <point x="214" y="473" type="curve" smooth="yes" name="hr02"/>
      <point x="214" y="517"/>
      <point x="182" y="548"/>
      <point x="137" y="548" type="curve" smooth="yes"/>
      <point x="92" y="548"/>
      <point x="60" y="517"/>
      <point x="60" y="473" type="curve" smooth="yes"/>
      <point x="60" y="421"/>
      <point x="100" y="390"/>
      <point x="164" y="390" type="curve" smooth="yes"/>
      <point x="235" y="390"/>
      <point x="286" y="426"/>
      <point x="307" y="464" type="curve"/>
      <point x="309" y="463" type="line"/>
      <point x="298" y="437"/>
      <point x="287" y="419"/>
      <point x="272" y="395" type="curve" smooth="yes"/>
      <point x="232" y="331"/>
      <point x="191" y="263"/>
      <point x="191" y="131" type="curve" smooth="yes" name="hr03"/>
      <point x="191" y="122" type="line"/>
      <point x="178" y="134"/>
      <point x="161" y="140"/>
      <point x="141" y="140" type="curve" smooth="yes"/>
      <point x="98" y="140"/>
      <point x="66" y="110"/>
      <point x="66" y="64" type="curve" smooth="yes"/>
      <point x="66" y="18"/>
      <point x="98" y="-12"/>
    </contour>
    <contour>
      <point x="141" y="3" type="curve" smooth="yes"/>
      <point x="104" y="3"/>
      <point x="85" y="27"/>
      <point x="85" y="57" type="curve" smooth="yes"/>
      <point x="85" y="71" type="line" smooth="yes"/>
      <point x="85" y="101"/>
      <point x="104" y="125"/>
      <point x="141" y="125" type="curve" smooth="yes"/>
      <point x="178" y="125"/>
      <point x="197" y="101"/>
      <point x="197" y="71" type="curve" smooth="yes" name="hr04"/>
      <point x="197" y="57" type="line" smooth="yes"/>
      <point x="197" y="27"/>
      <point x="178" y="3"/>
    </contour>
    <contour>
      <point x="137" y="413" type="curve" smooth="yes"/>
      <point x="102" y="413"/>
      <point x="80" y="436"/>
      <point x="80" y="473" type="curve" smooth="yes"/>
      <point x="80" y="510"/>
      <point x="102" y="533"/>
      <point x="137" y="533" type="curve" smooth="yes"/>
      <point x="172" y="533"/>
      <point x="194" y="510"/>
      <point x="194" y="473" type="curve" smooth="yes" name="hr05"/>
      <point x="194" y="436"/>
      <point x="172" y="413"/>
    </contour>
    <contour>
      <point x="510.0" y="0.0" type="move" name="bottomright"/>
    </contour>
    <contour>
      <point x="369.0" y="558.0" type="move" name="top"/>
    </contour>
    <contour>
      <point x="510.0" y="600.0" type="move" name="topright"/>
    </contour>
  </outline>
</glyph>
<glyph name="ngoNgu-thai" format="1">
  <advance width="520"/>
  <unicode hex="0E07"/>
  <outline>
    <contour>
      <point x="402" y="0" type="line"/>
      <point x="402" y="474" type="line" smooth="yes"/>
      <point x="402" y="519"/>
      <point x="370" y="548"/>
      <point x="327" y="548" type="curve" smooth="yes"/>
      <point x="284" y="548"/>
      <point x="252" y="519"/>
      <point x="252" y="474" type="curve" smooth="yes"/>
      <point x="252" y="429"/>
      <point x="284" y="400"/>
      <point x="327" y="400" type="curve" smooth="yes"/>
      <point x="350" y="400"/>
      <point x="368" y="408"/>
      <point x="381" y="423" type="curve"/>
      <point x="381" y="18" type="line"/>
      <point x="257" y="18" type="line"/>
      <point x="86" y="388" type="line"/>
      <point x="63" y="388" type="line"/>
      <point x="243" y="0" type="line"/>
    </contour>
    <contour>
      <point x="327" y="415" type="curve" smooth="yes"/>
      <point x="290" y="415"/>
      <point x="271" y="440"/>
      <point x="271" y="474" type="curve" smooth="yes"/>
      <point x="271" y="508"/>
      <point x="290" y="533"/>
      <point x="327" y="533" type="curve" smooth="yes"/>
      <point x="364" y="533"/>
      <point x="383" y="508"/>
      <point x="383" y="474" type="curve" smooth="yes" name="hr01"/>
      <point x="383" y="440"/>
      <point x="364" y="415"/>
    </contour>
    <contour>
      <point x="402.0" y="0.0" type="move" name="bottomright"/>
    </contour>
    <contour>
      <point x="274.0" y="558.0" type="move" name="top"/>
    </contour>
    <contour>
      <point x="402.0" y="600.0" type="move" name="topright"/>
    </contour>
  </outline>
</glyph>
<glyph name="choChan-thai" format="1">
  <advance width="588"/>
  <unicode hex="0E08"/>
  <outline>
    <contour>
      <point x="375" y="-12" type="curve" smooth="yes"/>
      <point x="434" y="-12"/>
      <point x="475" y="29"/>
      <point x="475" y="91" type="curve" smooth="yes"/>
      <point x="475" y="356" type="line" smooth="yes"/>
      <point x="475" y="477"/>
      <point x="397" y="548"/>
      <point x="264" y="548" type="curve" smooth="yes"/>
      <point x="141" y="548"/>
      <point x="74" y="503"/>
      <point x="38" y="432" type="curve"/>
      <point x="55" y="422" type="line"/>
      <point x="93" y="497"/>
      <point x="166" y="530"/>
      <point x="264" y="530" type="curve" smooth="yes"/>
      <point x="381" y="530"/>
      <point x="454" y="473"/>
      <point x="454" y="353" type="curve" smooth="yes"/>
      <point x="454" y="92" type="line" smooth="yes"/>
      <point x="454" y="40"/>
      <point x="423" y="6"/>
      <point x="375" y="6" type="curve" smooth="yes"/>
      <point x="327" y="6"/>
      <point x="296" y="40"/>
      <point x="296" y="92" type="curve" smooth="yes"/>
      <point x="296" y="274" type="line" smooth="yes"/>
      <point x="296" y="319"/>
      <point x="263" y="348"/>
      <point x="218" y="348" type="curve" smooth="yes"/>
      <point x="173" y="348"/>
      <point x="140" y="319"/>
      <point x="140" y="274" type="curve" smooth="yes"/>
      <point x="140" y="229"/>
      <point x="173" y="200"/>
      <point x="218" y="200" type="curve" smooth="yes"/>
      <point x="241" y="200"/>
      <point x="262" y="208"/>
      <point x="275" y="223" type="curve" name="hr01"/>
      <point x="275" y="91" type="line" smooth="yes"/>
      <point x="275" y="29"/>
      <point x="316" y="-12"/>
    </contour>
    <contour>
      <point x="218" y="215" type="curve" smooth="yes"/>
      <point x="179" y="215"/>
      <point x="159" y="240"/>
      <point x="159" y="274" type="curve" smooth="yes"/>
      <point x="159" y="308"/>
      <point x="179" y="333"/>
      <point x="218" y="333" type="curve" smooth="yes"/>
      <point x="257" y="333"/>
      <point x="277" y="308"/>
      <point x="277" y="274" type="curve" smooth="yes" name="hr02"/>
      <point x="277" y="240"/>
      <point x="257" y="215"/>
    </contour>
    <contour>
      <point x="464.0" y="0.0" type="move" name="bottomright"/>
    </contour>
    <contour>
      <point x="285.0" y="558.0" type="move" name="top"/>
    </contour>
    <contour>
      <point x="464.0" y="600.0" type="move" name="topright"/>
    </contour>
  </outline>
</glyph>
<glyph name="soSo-thai" format="1">
  <advance width="646"/>
  <unicode hex="0E0B"/>
  <outline>
    <contour>
      <point x="345" y="-12" type="curve" smooth="yes"/>
      <point x="460" y="-12"/>
      <point x="528" y="64"/>
      <point x="528" y="201" type="curve" smooth="yes"/>
      <point x="528" y="338"/>
      <point x="496" y="383"/>
      <point x="435" y="394" type="curve"/>
      <point x="435" y="396" type="line"/>
      <point x="499" y="402"/>
      <point x="531" y="435"/>
      <point x="531" y="494" type="curve" smooth="yes" name="hr01"/>
      <point x="531" y="553" type="line"/>
      <point x="510" y="553" type="line"/>
      <point x="510" y="494" type="line" smooth="yes"/>
      <point x="510" y="435"/>
      <point x="479" y="403"/>
      <point x="404" y="403" type="curve" smooth="yes"/>
      <point x="370" y="403" type="line"/>
      <point x="370" y="385" type="line"/>
      <point x="404" y="385" type="line" smooth="yes"/>
      <point x="474" y="385"/>
      <point x="505" y="338"/>
      <point x="505" y="232" type="curve" smooth="yes" name="hr02"/>
      <point x="505" y="170" type="line" smooth="yes"/>
      <point x="505" y="75"/>
      <point x="447" y="6"/>
      <point x="345" y="6" type="curve" smooth="yes"/>
      <point x="245" y="6"/>
      <point x="184" y="76"/>
      <point x="184" y="171" type="curve" smooth="yes"/>
      <point x="184" y="193" type="line" smooth="yes"/>
      <point x="184" y="264"/>
      <point x="219" y="324"/>
      <point x="253" y="380" type="curve" smooth="yes"/>
      <point x="283" y="429"/>
      <point x="310" y="475"/>
      <point x="310" y="522" type="curve" smooth="yes"/>
      <point x="310" y="536" type="line"/>
      <point x="289" y="536" type="line"/>
      <point x="289" y="528" type="line" smooth="yes"/>
      <point x="289" y="452"/>
      <point x="209" y="406"/>
      <point x="134" y="404" type="curve"/>
      <point x="134" y="405" type="line"/>
      <point x="162" y="413"/>
      <point x="186" y="434"/>
      <point x="186" y="473" type="curve" smooth="yes" name="hr03"/>
      <point x="186" y="517"/>
      <point x="154" y="548"/>
      <point x="109" y="548" type="curve" smooth="yes"/>
      <point x="64" y="548"/>
      <point x="32" y="517"/>
      <point x="32" y="473" type="curve" smooth="yes"/>
      <point x="32" y="421"/>
      <point x="72" y="390"/>
      <point x="136" y="390" type="curve" smooth="yes"/>
      <point x="207" y="390"/>
      <point x="258" y="426"/>
      <point x="279" y="464" type="curve"/>
      <point x="281" y="463" type="line"/>
      <point x="272" y="442"/>
      <point x="258" y="419"/>
      <point x="242" y="393" type="curve" smooth="yes"/>
      <point x="204" y="333"/>
      <point x="161" y="263"/>
      <point x="161" y="182" type="curve" smooth="yes" name="hr04"/>
      <point x="161" y="64"/>
      <point x="230" y="-12"/>
    </contour>
    <contour>
      <point x="109" y="413" type="curve" smooth="yes"/>
      <point x="74" y="413"/>
      <point x="52" y="436"/>
      <point x="52" y="473" type="curve" smooth="yes"/>
      <point x="52" y="510"/>
      <point x="74" y="533"/>
      <point x="109" y="533" type="curve" smooth="yes"/>
      <point x="144" y="533"/>
      <point x="166" y="510"/>
      <point x="166" y="473" type="curve" smooth="yes" name="hr05"/>
      <point x="166" y="436"/>
      <point x="144" y="413"/>
    </contour>
    <contour>
      <point x="526.0" y="0.0" type="move" name="bottomright"/>
    </contour>
    <contour>
      <point x="341.0" y="558.0" type="move" name="top"/>
    </contour>
    <contour>
      <point x="526.0" y="600.0" type="move" name="topright"/>
    </contour>
  </outline>
</glyph>
<glyph name="yoYing-thai" format="1">
  <advance width="950"/>
  <unicode hex="0E0D"/>
  <outline>
    <contour>
      <point x="681" y="-12" type="curve" smooth="yes"/>
      <point x="782" y="-12"/>
      <point x="837" y="64"/>
      <point x="837" y="150" type="curve" smooth="yes"/>
      <point x="837" y="536" type="line"/>
      <point x="816" y="536" type="line"/>
      <point x="816" y="152" type="line" smooth="yes"/>
      <point x="816" y="75"/>
      <point x="772" y="6"/>
      <point x="681" y="6" type="curve" smooth="yes"/>
      <point x="590" y="6"/>
      <point x="546" y="75"/>
      <point x="546" y="152" type="curve" smooth="yes"/>
      <point x="546" y="345" type="line" smooth="yes"/>
      <point x="546" y="477"/>
      <point x="467" y="548"/>
      <point x="317" y="548" type="curve" smooth="yes" name="hr01"/>
      <point x="189" y="548"/>
      <point x="94" y="476"/>
      <point x="79" y="377" type="curve"/>
      <point x="163" y="347" type="line"/>
      <point x="163" y="62" type="line" smooth="yes"/>
      <point x="163" y="17"/>
      <point x="195" y="-12"/>
      <point x="238" y="-12" type="curve" smooth="yes"/>
      <point x="281" y="-12"/>
      <point x="313" y="17"/>
      <point x="313" y="62" type="curve" smooth="yes"/>
      <point x="313" y="107"/>
      <point x="281" y="136"/>
      <point x="238" y="136" type="curve" smooth="yes"/>
      <point x="215" y="136"/>
      <point x="196" y="127"/>
      <point x="184" y="113" type="curve" name="hr02"/>
      <point x="184" y="345" type="line" smooth="yes"/>
      <point x="184" y="355"/>
      <point x="181" y="360"/>
      <point x="172" y="363" type="curve" smooth="yes"/>
      <point x="100" y="387" type="line"/>
      <point x="117" y="465"/>
      <point x="194" y="530"/>
      <point x="317" y="530" type="curve" smooth="yes"/>
      <point x="449" y="530"/>
      <point x="525" y="472"/>
      <point x="525" y="345" type="curve" smooth="yes"/>
      <point x="525" y="150" type="line" smooth="yes"/>
      <point x="525" y="64"/>
      <point x="580" y="-12"/>
    </contour>
    <contour>
      <point x="519" y="-175" type="curve" smooth="yes" name="hr03"/>
      <point x="519" y="-237"/>
      <point x="572" y="-265"/>
      <point x="668" y="-265" type="curve" smooth="yes"/>
      <point x="772" y="-265"/>
      <point x="846" y="-232"/>
      <point x="846" y="-134" type="curve" smooth="yes"/>
      <point x="846" y="-121" type="line"/>
      <point x="827" y="-121" type="line"/>
      <point x="827" y="-134" type="line" smooth="yes"/>
      <point x="827" y="-219"/>
      <point x="761" y="-248"/>
      <point x="688" y="-248" type="curve" smooth="yes"/>
      <point x="648" y="-248" type="line" smooth="yes"/>
      <point x="638" y="-248"/>
      <point x="628" y="-247"/>
      <point x="618" y="-246" type="curve"/>
      <point x="618" y="-245" type="line"/>
      <point x="652" y="-238"/>
      <point x="671" y="-208"/>
      <point x="671" y="-175" type="curve" smooth="yes"/>
      <point x="671" y="-130"/>
      <point x="640" y="-100"/>
      <point x="595" y="-100" type="curve" smooth="yes"/>
      <point x="550" y="-100"/>
      <point x="519" y="-130"/>
    </contour>
    <contour>
      <point x="595" y="-235" type="curve" smooth="yes"/>
      <point x="556" y="-235"/>
      <point x="538" y="-210"/>
      <point x="538" y="-175" type="curve" smooth="yes"/>
      <point x="538" y="-140"/>
      <point x="556" y="-115"/>
      <point x="595" y="-115" type="curve" smooth="yes"/>
      <point x="634" y="-115"/>
      <point x="652" y="-140"/>
      <point x="652" y="-175" type="curve" smooth="yes"/>
      <point x="652" y="-210"/>
      <point x="634" y="-235"/>
    </contour>
    <contour>
      <point x="238" y="3" type="curve" smooth="yes"/>
      <point x="201" y="3"/>
      <point x="182" y="28"/>
      <point x="182" y="62" type="curve" smooth="yes"/>
      <point x="182" y="96"/>
      <point x="201" y="121"/>
      <point x="238" y="121" type="curve" smooth="yes"/>
      <point x="275" y="121"/>
      <point x="294" y="96"/>
      <point x="294" y="62" type="curve" smooth="yes"/>
      <point x="294" y="28"/>
      <point x="275" y="3"/>
    </contour>
    <contour>
      <point x="536.0" y="558.0" type="move" name="top"/>
    </contour>
    <contour>
      <point x="837.0" y="600.0" type="move" name="topright"/>
    </contour>
  </outline>
</glyph>
<glyph name="doChada-thai" format="1">
  <advance width="673"/>
  <unicode hex="0E0E"/>
  <outline>
    <contour>
      <point x="310" y="-265" type="curve" smooth="yes"/>
      <point x="352" y="-265"/>
      <point x="367" y="-241"/>
      <point x="411" y="-181" type="curve"/>
      <point x="419" y="-186" type="line"/>
      <point x="531" y="-260" type="line"/>
      <point x="544" y="-260" type="line" smooth="yes"/>
      <point x="552" y="-260"/>
      <point x="560" y="-253"/>
      <point x="560" y="-244" type="curve" smooth="yes"/>
      <point x="560" y="344" type="line" smooth="yes"/>
      <point x="560" y="477"/>
      <point x="484" y="548"/>
      <point x="338" y="548" type="curve" smooth="yes"/>
      <point x="213" y="548"/>
      <point x="122" y="476"/>
      <point x="107" y="377" type="curve"/>
      <point x="191" y="347" type="line"/>
      <point x="191" y="113" type="line"/>
      <point x="178" y="127"/>
      <point x="160" y="136"/>
      <point x="137" y="136" type="curve" smooth="yes"/>
      <point x="94" y="136"/>
      <point x="62" y="107"/>
      <point x="62" y="62" type="curve" smooth="yes"/>
      <point x="62" y="17"/>
      <point x="94" y="-12"/>
      <point x="137" y="-12" type="curve" smooth="yes"/>
      <point x="180" y="-12"/>
      <point x="212" y="17"/>
      <point x="212" y="62" type="curve" smooth="yes"/>
      <point x="212" y="345" type="line" smooth="yes"/>
      <point x="212" y="355"/>
      <point x="209" y="360"/>
      <point x="200" y="363" type="curve" smooth="yes"/>
      <point x="128" y="387" type="line"/>
      <point x="145" y="465"/>
      <point x="219" y="530"/>
      <point x="338" y="530" type="curve" smooth="yes"/>
      <point x="465" y="530"/>
      <point x="539" y="472"/>
      <point x="539" y="344" type="curve" smooth="yes"/>
      <point x="539" y="-244" type="line"/>
      <point x="536" y="-244" type="line"/>
      <point x="427" y="-171" type="line" smooth="yes"/>
      <point x="425" y="-169"/>
      <point x="423" y="-168"/>
      <point x="421" y="-167" type="curve"/>
      <point x="455" y="-121" type="line"/>
      <point x="432" y="-121" type="line"/>
      <point x="406" y="-157" type="line"/>
      <point x="360" y="-125"/>
      <point x="341" y="-113"/>
      <point x="310" y="-113" type="curve" smooth="yes"/>
      <point x="267" y="-113"/>
      <point x="236" y="-141"/>
      <point x="236" y="-189" type="curve" smooth="yes"/>
      <point x="236" y="-237"/>
      <point x="267" y="-265"/>
    </contour>
    <contour>
      <point x="308" y="-250" type="curve" smooth="yes"/>
      <point x="280" y="-250"/>
      <point x="256" y="-230"/>
      <point x="256" y="-201" type="curve" smooth="yes"/>
      <point x="256" y="-177" type="line" smooth="yes"/>
      <point x="256" y="-148"/>
      <point x="280" y="-128"/>
      <point x="308" y="-128" type="curve" smooth="yes"/>
      <point x="333" y="-128"/>
      <point x="349" y="-139"/>
      <point x="396" y="-171" type="curve"/>
      <point x="348" y="-239"/>
      <point x="337" y="-250"/>
    </contour>
    <contour>
      <point x="137" y="3" type="curve" smooth="yes"/>
      <point x="100" y="3"/>
      <point x="81" y="28"/>
      <point x="81" y="62" type="curve" smooth="yes"/>
      <point x="81" y="96"/>
      <point x="100" y="121"/>
      <point x="137" y="121" type="curve" smooth="yes"/>
      <point x="174" y="121"/>
      <point x="193" y="96"/>
      <point x="193" y="62" type="curve" smooth="yes" name="hr01"/>
      <point x="193" y="28"/>
      <point x="174" y="3"/>
    </contour>
    <contour>
      <point x="338.0" y="558.0" type="move" name="top"/>
    </contour>
    <contour>
      <point x="560.0" y="600.0" type="move" name="topright"/>
    </contour>
  </outline>
</glyph>
<glyph name="toPatak-thai" format="1">
  <advance width="673"/>
  <unicode hex="0E0F"/>
  <outline>
    <contour>
      <point x="222" y="-265" type="curve" smooth="yes" name="hr00"/>
      <point x="259" y="-265"/>
      <point x="284" y="-239"/>
      <point x="300" y="-219" type="curve" smooth="yes"/>
      <point x="313" y="-201" type="line"/>
      <point x="362" y="-265" type="line"/>
      <point x="444" y="-204" type="line"/>
      <point x="524" y="-260" type="line"/>
      <point x="545" y="-260" type="line" smooth="yes"/>
      <point x="553" y="-260"/>
      <point x="560" y="-253"/>
      <point x="560" y="-244" type="curve" smooth="yes"/>
      <point x="560" y="344" type="line" smooth="yes"/>
      <point x="560" y="477"/>
      <point x="484" y="548"/>
      <point x="338" y="548" type="curve" smooth="yes"/>
      <point x="213" y="548"/>
      <point x="122" y="476"/>
      <point x="107" y="377" type="curve"/>
      <point x="191" y="347" type="line"/>
      <point x="191" y="113" type="line"/>
      <point x="178" y="127"/>
      <point x="160" y="136"/>
      <point x="137" y="136" type="curve" smooth="yes"/>
      <point x="94" y="136"/>
      <point x="62" y="107"/>
      <point x="62" y="62" type="curve" smooth="yes"/>
      <point x="62" y="17"/>
      <point x="94" y="-12"/>
      <point x="137" y="-12" type="curve" smooth="yes"/>
      <point x="180" y="-12"/>
      <point x="212" y="17"/>
      <point x="212" y="62" type="curve" smooth="yes"/>
      <point x="212" y="345" type="line" smooth="yes"/>
      <point x="212" y="355"/>
      <point x="209" y="360"/>
      <point x="200" y="363" type="curve" smooth="yes"/>
      <point x="128" y="387" type="line"/>
      <point x="145" y="465"/>
      <point x="219" y="530"/>
      <point x="338" y="530" type="curve" smooth="yes"/>
      <point x="465" y="530"/>
      <point x="539" y="472"/>
      <point x="539" y="344" type="curve" smooth="yes"/>
      <point x="539" y="-244" type="line"/>
      <point x="530" y="-244" type="line"/>
      <point x="444" y="-184" type="line"/>
      <point x="367" y="-241" type="line"/>
      <point x="325" y="-189" type="line"/>
      <point x="380" y="-121" type="line"/>
      <point x="356" y="-121" type="line"/>
      <point x="313" y="-175" type="line"/>
      <point x="300" y="-159" type="line" smooth="yes"/>
      <point x="284" y="-139"/>
      <point x="259" y="-113"/>
      <point x="222" y="-113" type="curve" smooth="yes"/>
      <point x="179" y="-113"/>
      <point x="148" y="-141"/>
      <point x="148" y="-189" type="curve" smooth="yes"/>
      <point x="148" y="-237"/>
      <point x="179" y="-265"/>
    </contour>
    <contour>
      <point x="220" y="-250" type="curve" smooth="yes"/>
      <point x="192" y="-250"/>
      <point x="168" y="-230"/>
      <point x="168" y="-201" type="curve" smooth="yes"/>
      <point x="168" y="-177" type="line" smooth="yes"/>
      <point x="168" y="-148"/>
      <point x="192" y="-128"/>
      <point x="220" y="-128" type="curve" smooth="yes"/>
      <point x="247" y="-128"/>
      <point x="267" y="-146"/>
      <point x="288" y="-172" type="curve" smooth="yes"/>
      <point x="302" y="-189" type="line"/>
      <point x="288" y="-206" type="line" smooth="yes"/>
      <point x="267" y="-232"/>
      <point x="247" y="-250"/>
    </contour>
    <contour>
      <point x="137" y="3" type="curve" smooth="yes"/>
      <point x="100" y="3"/>
      <point x="81" y="28"/>
      <point x="81" y="62" type="curve" smooth="yes"/>
      <point x="81" y="96"/>
      <point x="100" y="121"/>
      <point x="137" y="121" type="curve" smooth="yes"/>
      <point x="174" y="121"/>
      <point x="193" y="96"/>
      <point x="193" y="62" type="curve" smooth="yes"/>
      <point x="193" y="28"/>
      <point x="174" y="3"/>
    </contour>
    <contour>
      <point x="338.0" y="558.0" type="move" name="top"/>
    </contour>
    <contour>
      <point x="560.0" y="600.0" type="move" name="topright"/>
    </contour>
  </outline>
</glyph>
<glyph name="thoThan-thai" format="1">
  <advance width="588"/>
  <unicode hex="0E10"/>
  <outline>
    <contour>
      <point x="478" y="618" type="line"/>
      <point x="457" y="618" type="line"/>
      <point x="457" y="493" type="line"/>
      <point x="424" y="493" type="line"/>
      <point x="388" y="529"/>
      <point x="333" y="548"/>
      <point x="264" y="548" type="curve" smooth="yes"/>
      <point x="141" y="548"/>
      <point x="74" y="503"/>
      <point x="38" y="432" type="curve"/>
      <point x="55" y="422" type="line"/>
      <point x="93" y="497"/>
      <point x="166" y="530"/>
      <point x="264" y="530" type="curve" smooth="yes"/>
      <point x="381" y="530"/>
      <point x="454" y="473"/>
      <point x="454" y="353" type="curve" smooth="yes" name="hr01"/>
      <point x="454" y="92" type="line" smooth="yes"/>
      <point x="454" y="40"/>
      <point x="423" y="6"/>
      <point x="375" y="6" type="curve" smooth="yes"/>
      <point x="327" y="6"/>
      <point x="296" y="40"/>
      <point x="296" y="92" type="curve" smooth="yes"/>
      <point x="296" y="274" type="line" smooth="yes"/>
      <point x="296" y="319"/>
      <point x="263" y="348"/>
      <point x="218" y="348" type="curve" smooth="yes"/>
      <point x="173" y="348"/>
      <point x="140" y="319"/>
      <point x="140" y="274" type="curve" smooth="yes"/>
      <point x="140" y="229"/>
      <point x="173" y="200"/>
      <point x="218" y="200" type="curve" smooth="yes"/>
      <point x="241" y="200"/>
      <point x="262" y="208"/>
      <point x="275" y="223" type="curve"/>
      <point x="275" y="91" type="line" smooth="yes"/>
      <point x="275" y="29"/>
      <point x="316" y="-12"/>
      <point x="375" y="-12" type="curve" smooth="yes"/>
      <point x="434" y="-12"/>
      <point x="475" y="29"/>
      <point x="475" y="91" type="curve" smooth="yes"/>
      <point x="475" y="356" type="line" smooth="yes"/>
      <point x="475" y="405"/>
      <point x="462" y="446"/>
      <point x="438" y="477" type="curve"/>
      <point x="457" y="477" type="line" smooth="yes" name="hr02"/>
      <point x="470" y="477"/>
      <point x="478" y="485"/>
      <point x="478" y="500" type="curve" smooth="yes"/>
    </contour>
    <contour>
      <point x="134" y="-265" type="curve" smooth="yes"/>
      <point x="173" y="-265"/>
      <point x="189" y="-243"/>
      <point x="206" y="-218" type="curve" smooth="yes"/>
      <point x="217" y="-201" type="line"/>
      <point x="260" y="-265" type="line"/>
      <point x="326" y="-196" type="line"/>
      <point x="391" y="-260" type="line"/>
      <point x="461" y="-260" type="line" smooth="yes"/>
      <point x="469" y="-260"/>
      <point x="475" y="-254"/>
      <point x="475" y="-246" type="curve" smooth="yes" name="hr03"/>
      <point x="475" y="-138" type="line" smooth="yes"/>
      <point x="475" y="-103"/>
      <point x="450" y="-82"/>
      <point x="416" y="-82" type="curve" smooth="yes"/>
      <point x="382" y="-82"/>
      <point x="357" y="-103"/>
      <point x="357" y="-138" type="curve" smooth="yes"/>
      <point x="357" y="-173"/>
      <point x="382" y="-194"/>
      <point x="416" y="-194" type="curve" smooth="yes"/>
      <point x="431" y="-194"/>
      <point x="447" y="-187"/>
      <point x="458" y="-174" type="curve" name="hr04"/>
      <point x="458" y="-244" type="line"/>
      <point x="397" y="-244" type="line"/>
      <point x="327" y="-175" type="line"/>
      <point x="264" y="-240" type="line"/>
      <point x="228" y="-188" type="line"/>
      <point x="276" y="-121" type="line"/>
      <point x="254" y="-121" type="line"/>
      <point x="217" y="-175" type="line"/>
      <point x="206" y="-159" type="line" smooth="yes"/>
      <point x="191" y="-138"/>
      <point x="173" y="-113"/>
      <point x="134" y="-113" type="curve" smooth="yes"/>
      <point x="96" y="-113"/>
      <point x="65" y="-141"/>
      <point x="65" y="-189" type="curve" smooth="yes"/>
      <point x="65" y="-237"/>
      <point x="96" y="-265"/>
    </contour>
    <contour>
      <point x="218" y="215" type="curve" smooth="yes"/>
      <point x="179" y="215"/>
      <point x="159" y="240"/>
      <point x="159" y="274" type="curve" smooth="yes"/>
      <point x="159" y="308"/>
      <point x="179" y="333"/>
      <point x="218" y="333" type="curve" smooth="yes"/>
      <point x="257" y="333"/>
      <point x="277" y="308"/>
      <point x="277" y="274" type="curve" smooth="yes"/>
      <point x="277" y="240"/>
      <point x="257" y="215"/>
    </contour>
    <contour>
      <point x="132" y="-250" type="curve" smooth="yes"/>
      <point x="108" y="-250"/>
      <point x="84" y="-229"/>
      <point x="84" y="-201" type="curve" smooth="yes"/>
      <point x="84" y="-177" type="line" smooth="yes"/>
      <point x="84" y="-149"/>
      <point x="108" y="-128"/>
      <point x="132" y="-128" type="curve" smooth="yes"/>
      <point x="163" y="-128"/>
      <point x="176" y="-144"/>
      <point x="195" y="-171" type="curve" smooth="yes"/>
      <point x="207" y="-188" type="line"/>
      <point x="195" y="-205" type="line" smooth="yes"/>
      <point x="176" y="-232"/>
      <point x="163" y="-250"/>
    </contour>
    <contour>
      <point x="416" y="-179" type="curve" smooth="yes"/>
      <point x="389" y="-179"/>
      <point x="376" y="-162"/>
      <point x="376" y="-138" type="curve" smooth="yes"/>
      <point x="376" y="-114"/>
      <point x="389" y="-97"/>
      <point x="416" y="-97" type="curve" smooth="yes"/>
      <point x="443" y="-97"/>
      <point x="456" y="-114"/>
      <point x="456" y="-138" type="curve" smooth="yes" name="hr05"/>
      <point x="456" y="-162"/>
      <point x="443" y="-179"/>
    </contour>
    <contour>
      <point x="464.0" y="0.0" type="move" name="bottomright"/>
    </contour>
    <contour>
      <point x="285.0" y="558.0" type="move" name="top"/>
    </contour>
    <contour>
      <point x="464.0" y="600.0" type="move" name="topright"/>
    </contour>
  </outline>
</glyph>
<glyph name="thoPhuthao-thai" format="1">
  <advance width="990"/>
  <unicode hex="0E12"/>
  <outline>
    <contour>
      <point x="511" y="-12" type="curve" smooth="yes"/>
      <point x="554" y="-12"/>
      <point x="586" y="18"/>
      <point x="586" y="64" type="curve" smooth="yes"/>
      <point x="586" y="77"/>
      <point x="583" y="89"/>
      <point x="578" y="99" type="curve"/>
      <point x="855" y="0" type="line" name="hr01"/>
      <point x="872" y="0" type="line"/>
      <point x="872" y="536" type="line"/>
      <point x="851" y="536" type="line"/>
      <point x="851" y="21" type="line"/>
      <point x="847" y="21" type="line"/>
      <point x="583" y="116" type="line"/>
      <point x="583" y="421" type="line" smooth="yes"/>
      <point x="583" y="502"/>
      <point x="536" y="548"/>
      <point x="458" y="548" type="curve"/>
      <point x="348" y="447" type="line"/>
      <point x="238" y="548" type="line"/>
      <point x="160" y="548"/>
      <point x="113" y="502"/>
      <point x="113" y="421" type="curve" smooth="yes"/>
      <point x="113" y="0" type="line"/>
      <point x="232" y="0" type="line"/>
      <point x="358" y="144" type="line" smooth="yes"/>
      <point x="405" y="198"/>
      <point x="423" y="220"/>
      <point x="423" y="258" type="curve" smooth="yes"/>
      <point x="423" y="302"/>
      <point x="392" y="333"/>
      <point x="348" y="333" type="curve" smooth="yes"/>
      <point x="304" y="333"/>
      <point x="273" y="302"/>
      <point x="273" y="258" type="curve" smooth="yes"/>
      <point x="273" y="214"/>
      <point x="304" y="183"/>
      <point x="348" y="183" type="curve" smooth="yes"/>
      <point x="361" y="183"/>
      <point x="370" y="185"/>
      <point x="378" y="190" type="curve"/>
      <point x="337" y="147" type="line"/>
      <point x="222" y="17" type="line"/>
      <point x="134" y="17" type="line"/>
      <point x="134" y="419" type="line" smooth="yes"/>
      <point x="134" y="491"/>
      <point x="169" y="528"/>
      <point x="234" y="528" type="curve"/>
      <point x="348" y="423" type="line"/>
      <point x="462" y="528" type="line"/>
      <point x="527" y="528"/>
      <point x="562" y="491"/>
      <point x="562" y="419" type="curve" smooth="yes"/>
      <point x="562" y="131" type="line"/>
      <point x="562" y="121" type="line"/>
      <point x="549" y="133"/>
      <point x="531" y="140"/>
      <point x="511" y="140" type="curve" smooth="yes"/>
      <point x="468" y="140"/>
      <point x="436" y="110"/>
      <point x="436" y="64" type="curve" smooth="yes"/>
      <point x="436" y="18"/>
      <point x="468" y="-12"/>
    </contour>
    <contour>
      <point x="511" y="3" type="curve" smooth="yes"/>
      <point x="474" y="3"/>
      <point x="455" y="27"/>
      <point x="455" y="57" type="curve" smooth="yes"/>
      <point x="455" y="71" type="line" smooth="yes"/>
      <point x="455" y="101"/>
      <point x="474" y="125"/>
      <point x="511" y="125" type="curve" smooth="yes"/>
      <point x="548" y="125"/>
      <point x="567" y="101"/>
      <point x="567" y="71" type="curve" smooth="yes"/>
      <point x="567" y="57" type="line" smooth="yes"/>
      <point x="567" y="27"/>
      <point x="548" y="3"/>
    </contour>
    <contour>
      <point x="348" y="198" type="curve" smooth="yes"/>
      <point x="310" y="198"/>
      <point x="292" y="223"/>
      <point x="292" y="258" type="curve" smooth="yes"/>
      <point x="292" y="293"/>
      <point x="310" y="318"/>
      <point x="348" y="318" type="curve" smooth="yes"/>
      <point x="386" y="318"/>
      <point x="404" y="293"/>
      <point x="404" y="258" type="curve" smooth="yes"/>
      <point x="404" y="223"/>
      <point x="386" y="198"/>
    </contour>
    <contour>
      <point x="872.0" y="0.0" type="move" name="bottomright"/>
    </contour>
    <contour>
      <point x="573.0" y="558.0" type="move" name="top"/>
    </contour>
    <contour>
      <point x="872.0" y="600.0" type="move" name="topright"/>
    </contour>
  </outline>
</glyph>
<glyph name="noNen-thai" format="1">
  <advance width="978"/>
  <unicode hex="0E13"/>
  <outline>
    <contour>
      <point x="833" y="-12" type="curve" smooth="yes"/>
      <point x="876" y="-12"/>
      <point x="908" y="18"/>
      <point x="908" y="64" type="curve" smooth="yes"/>
      <point x="908" y="109"/>
      <point x="877" y="139"/>
      <point x="835" y="140" type="curve"/>
      <point x="840" y="145"/>
      <point x="842" y="153"/>
      <point x="842" y="163" type="curve" smooth="yes"/>
      <point x="842" y="536" type="line"/>
      <point x="821" y="536" type="line"/>
      <point x="821" y="145" type="line"/>
      <point x="536" y="21" type="line" name="hr01"/>
      <point x="533" y="21" type="line"/>
      <point x="533" y="346" type="line" smooth="yes"/>
      <point x="533" y="477"/>
      <point x="448" y="548"/>
      <point x="313" y="548" type="curve" smooth="yes"/>
      <point x="178" y="548"/>
      <point x="94" y="476"/>
      <point x="79" y="377" type="curve"/>
      <point x="163" y="347" type="line"/>
      <point x="163" y="62" type="line" smooth="yes"/>
      <point x="163" y="17"/>
      <point x="195" y="-12"/>
      <point x="238" y="-12" type="curve" smooth="yes" name="hr02"/>
      <point x="281" y="-12"/>
      <point x="313" y="17"/>
      <point x="313" y="62" type="curve" smooth="yes"/>
      <point x="313" y="107"/>
      <point x="281" y="136"/>
      <point x="238" y="136" type="curve" smooth="yes"/>
      <point x="215" y="136"/>
      <point x="196" y="127"/>
      <point x="184" y="113" type="curve"/>
      <point x="184" y="345" type="line" smooth="yes"/>
      <point x="184" y="355"/>
      <point x="181" y="360"/>
      <point x="172" y="363" type="curve" smooth="yes"/>
      <point x="100" y="387" type="line"/>
      <point x="116" y="465"/>
      <point x="185" y="530"/>
      <point x="311" y="530" type="curve" smooth="yes"/>
      <point x="430" y="530"/>
      <point x="512" y="472"/>
      <point x="512" y="346" type="curve" smooth="yes"/>
      <point x="512" y="0" type="line" name="hr03"/>
      <point x="529" y="0" type="line"/>
      <point x="768" y="104" type="line"/>
      <point x="761" y="93"/>
      <point x="758" y="79"/>
      <point x="758" y="64" type="curve" smooth="yes"/>
      <point x="758" y="18"/>
      <point x="790" y="-12"/>
    </contour>
    <contour>
      <point x="833" y="3" type="curve" smooth="yes"/>
      <point x="796" y="3"/>
      <point x="777" y="27"/>
      <point x="777" y="57" type="curve" smooth="yes"/>
      <point x="777" y="71" type="line" smooth="yes"/>
      <point x="777" y="101"/>
      <point x="796" y="125"/>
      <point x="833" y="125" type="curve" smooth="yes"/>
      <point x="870" y="125"/>
      <point x="889" y="101"/>
      <point x="889" y="71" type="curve" smooth="yes"/>
      <point x="889" y="57" type="line" smooth="yes"/>
      <point x="889" y="27"/>
      <point x="870" y="3"/>
    </contour>
    <contour>
      <point x="238" y="121" type="curve" smooth="yes"/>
      <point x="275" y="121"/>
      <point x="294" y="96"/>
      <point x="294" y="62" type="curve" smooth="yes"/>
      <point x="294" y="28"/>
      <point x="275" y="3"/>
      <point x="238" y="3" type="curve" smooth="yes"/>
      <point x="201" y="3"/>
      <point x="182" y="28"/>
      <point x="182" y="62" type="curve" smooth="yes"/>
      <point x="182" y="96"/>
      <point x="201" y="121"/>
    </contour>
    <contour>
      <point x="842.0" y="0.0" type="move" name="bottomright"/>
    </contour>
    <contour>
      <point x="523.0" y="558.0" type="move" name="top"/>
    </contour>
    <contour>
      <point x="842.0" y="600.0" type="move" name="topright"/>
    </contour>
  </outline>
</glyph>
<glyph name="doDek-thai" format="1">
  <advance width="660"/>
  <unicode hex="0E14"/>
  <outline>
    <contour>
      <point x="113" y="0" type="line" name="hr00"/>
      <point x="214" y="0" type="line"/>
      <point x="340" y="144" type="line" smooth="yes"/>
      <point x="387" y="198"/>
      <point x="405" y="220"/>
      <point x="405" y="258" type="curve" smooth="yes"/>
      <point x="405" y="302"/>
      <point x="374" y="333"/>
      <point x="330" y="333" type="curve" smooth="yes"/>
      <point x="286" y="333"/>
      <point x="255" y="302"/>
      <point x="255" y="258" type="curve" smooth="yes"/>
      <point x="255" y="214"/>
      <point x="286" y="183"/>
      <point x="330" y="183" type="curve" smooth="yes"/>
      <point x="343" y="183"/>
      <point x="352" y="185"/>
      <point x="360" y="190" type="curve"/>
      <point x="319" y="147" type="line"/>
      <point x="204" y="17" type="line"/>
      <point x="134" y="17" type="line"/>
      <point x="134" y="344" type="line" smooth="yes"/>
      <point x="134" y="461"/>
      <point x="207" y="530"/>
      <point x="330" y="530" type="curve" smooth="yes"/>
      <point x="453" y="530"/>
      <point x="526" y="461"/>
      <point x="526" y="344" type="curve" smooth="yes"/>
      <point x="526" y="0" type="line"/>
      <point x="547" y="0" type="line"/>
      <point x="547" y="348" type="line" smooth="yes"/>
      <point x="547" y="470"/>
      <point x="463" y="548"/>
      <point x="330" y="548" type="curve" smooth="yes"/>
      <point x="197" y="548"/>
      <point x="113" y="470"/>
      <point x="113" y="348" type="curve" smooth="yes"/>
    </contour>
    <contour>
      <point x="330" y="198" type="curve" smooth="yes"/>
      <point x="292" y="198"/>
      <point x="274" y="223"/>
      <point x="274" y="258" type="curve" smooth="yes"/>
      <point x="274" y="293"/>
      <point x="292" y="318"/>
      <point x="330" y="318" type="curve" smooth="yes"/>
      <point x="368" y="318"/>
      <point x="386" y="293"/>
      <point x="386" y="258" type="curve" smooth="yes"/>
      <point x="386" y="223"/>
      <point x="368" y="198"/>
    </contour>
    <contour>
      <point x="547.0" y="0.0" type="move" name="bottomright"/>
    </contour>
    <contour>
      <point x="330.0" y="558.0" type="move" name="top"/>
    </contour>
    <contour>
      <point x="547.0" y="600.0" type="move" name="topright"/>
    </contour>
  </outline>
</glyph>
<glyph name="toTao-thai" format="1">
  <advance width="696"/>
  <unicode hex="0E15"/>
  <outline>
    <contour>
      <point x="113" y="0" type="line" name="hr00"/>
      <point x="232" y="0" type="line"/>
      <point x="358" y="144" type="line" smooth="yes"/>
      <point x="405" y="198"/>
      <point x="423" y="220"/>
      <point x="423" y="258" type="curve" smooth="yes"/>
      <point x="423" y="302"/>
      <point x="392" y="333"/>
      <point x="348" y="333" type="curve" smooth="yes"/>
      <point x="304" y="333"/>
      <point x="273" y="302"/>
      <point x="273" y="258" type="curve" smooth="yes"/>
      <point x="273" y="214"/>
      <point x="304" y="183"/>
      <point x="348" y="183" type="curve" smooth="yes"/>
      <point x="361" y="183"/>
      <point x="370" y="185"/>
      <point x="378" y="190" type="curve"/>
      <point x="337" y="147" type="line"/>
      <point x="222" y="17" type="line"/>
      <point x="134" y="17" type="line"/>
      <point x="134" y="419" type="line" smooth="yes"/>
      <point x="134" y="491"/>
      <point x="169" y="528"/>
      <point x="234" y="528" type="curve"/>
      <point x="348" y="423" type="line"/>
      <point x="462" y="528" type="line"/>
      <point x="527" y="528"/>
      <point x="562" y="491"/>
      <point x="562" y="419" type="curve" smooth="yes"/>
      <point x="562" y="0" type="line"/>
      <point x="583" y="0" type="line"/>
      <point x="583" y="421" type="line" smooth="yes"/>
      <point x="583" y="502"/>
      <point x="536" y="548"/>
      <point x="458" y="548" type="curve"/>
      <point x="348" y="447" type="line"/>
      <point x="238" y="548" type="line"/>
      <point x="160" y="548"/>
      <point x="113" y="502"/>
      <point x="113" y="421" type="curve" smooth="yes"/>
    </contour>
    <contour>
      <point x="348" y="198" type="curve" smooth="yes"/>
      <point x="310" y="198"/>
      <point x="292" y="223"/>
      <point x="292" y="258" type="curve" smooth="yes"/>
      <point x="292" y="293"/>
      <point x="310" y="318"/>
      <point x="348" y="318" type="curve" smooth="yes"/>
      <point x="386" y="318"/>
      <point x="404" y="293"/>
      <point x="404" y="258" type="curve" smooth="yes"/>
      <point x="404" y="223"/>
      <point x="386" y="198"/>
    </contour>
    <contour>
      <point x="583.0" y="0.0" type="move" name="bottomright"/>
    </contour>
    <contour>
      <point x="348.0" y="558.0" type="move" name="top"/>
    </contour>
    <contour>
      <point x="583.0" y="600.0" type="move" name="topright"/>
    </contour>
  </outline>
</glyph>
<glyph name="thoThahan-thai" format="1">
  <advance width="663"/>
  <unicode hex="0E17"/>
  <outline>
    <contour>
      <point x="168" y="0" type="line"/>
      <point x="189" y="0" type="line"/>
      <point x="189" y="291" type="line" smooth="yes"/>
      <point x="189" y="386"/>
      <point x="302" y="530"/>
      <point x="422" y="530" type="curve" smooth="yes"/>
      <point x="484" y="530"/>
      <point x="527" y="489"/>
      <point x="527" y="398" type="curve" smooth="yes"/>
      <point x="527" y="0" type="line"/>
      <point x="548" y="0" type="line"/>
      <point x="548" y="398" type="line" smooth="yes"/>
      <point x="548" y="500"/>
      <point x="499" y="548"/>
      <point x="423" y="548" type="curve" smooth="yes"/>
      <point x="301" y="548"/>
      <point x="211" y="427"/>
      <point x="192" y="368" type="curve"/>
      <point x="189" y="368" type="line"/>
      <point x="189" y="474" type="line" smooth="yes"/>
      <point x="189" y="519"/>
      <point x="157" y="548"/>
      <point x="114" y="548" type="curve" smooth="yes"/>
      <point x="71" y="548"/>
      <point x="39" y="519"/>
      <point x="39" y="474" type="curve" smooth="yes"/>
      <point x="39" y="429"/>
      <point x="71" y="400"/>
      <point x="114" y="400" type="curve" smooth="yes"/>
      <point x="137" y="400"/>
      <point x="155" y="408"/>
      <point x="168" y="423" type="curve"/>
    </contour>
    <contour>
      <point x="114" y="415" type="curve" smooth="yes"/>
      <point x="77" y="415"/>
      <point x="58" y="440"/>
      <point x="58" y="474" type="curve" smooth="yes"/>
      <point x="58" y="508"/>
      <point x="77" y="533"/>
      <point x="114" y="533" type="curve" smooth="yes" name="hr01"/>
      <point x="151" y="533"/>
      <point x="170" y="508"/>
      <point x="170" y="474" type="curve" smooth="yes"/>
      <point x="170" y="440"/>
      <point x="151" y="415"/>
    </contour>
    <contour>
      <point x="548.0" y="0.0" type="move" name="bottomright"/>
    </contour>
    <contour>
      <point x="359.0" y="558.0" type="move" name="top"/>
    </contour>
    <contour>
      <point x="548.0" y="600.0" type="move" name="topright"/>
    </contour>
  </outline>
</glyph>
<glyph name="boBaimai-thai" format="1">
  <advance width="673"/>
  <unicode hex="0E1A"/>
  <outline>
    <contour>
      <point x="78" y="18" type="line"/>
      <point x="78" y="0" type="line"/>
      <point x="400" y="0" type="line" smooth="yes"/>
      <point x="501" y="0"/>
      <point x="558" y="56"/>
      <point x="558" y="152" type="curve" smooth="yes"/>
      <point x="558" y="536" type="line"/>
      <point x="537" y="536" type="line"/>
      <point x="537" y="155" type="line" smooth="yes"/>
      <point x="537" y="69"/>
      <point x="485" y="18"/>
      <point x="396" y="18" type="curve" smooth="yes"/>
      <point x="202" y="18" type="line"/>
      <point x="202" y="474" type="line" smooth="yes"/>
      <point x="202" y="519"/>
      <point x="170" y="548"/>
      <point x="127" y="548" type="curve" smooth="yes" name="hr01"/>
      <point x="84" y="548"/>
      <point x="52" y="519"/>
      <point x="52" y="474" type="curve" smooth="yes"/>
      <point x="52" y="429"/>
      <point x="84" y="400"/>
      <point x="127" y="400" type="curve" smooth="yes"/>
      <point x="150" y="400"/>
      <point x="168" y="408"/>
      <point x="181" y="423" type="curve"/>
      <point x="181" y="18" type="line"/>
    </contour>
    <contour>
      <point x="127" y="415" type="curve" smooth="yes"/>
      <point x="90" y="415"/>
      <point x="71" y="440"/>
      <point x="71" y="474" type="curve" smooth="yes"/>
      <point x="71" y="508"/>
      <point x="90" y="533"/>
      <point x="127" y="533" type="curve" smooth="yes"/>
      <point x="164" y="533"/>
      <point x="183" y="508"/>
      <point x="183" y="474" type="curve" smooth="yes"/>
      <point x="183" y="440"/>
      <point x="164" y="415"/>
    </contour>
    <contour>
      <point x="558.0" y="0.0" type="move" name="bottomright"/>
    </contour>
    <contour>
      <point x="370.0" y="558.0" type="move" name="top"/>
    </contour>
    <contour>
      <point x="558.0" y="600.0" type="move" name="topright"/>
    </contour>
  </outline>
</glyph>
<glyph name="phoPhung-thai" format="1">
  <advance width="693"/>
  <unicode hex="0E1C"/>
  <outline>
    <contour>
      <point x="231" y="-12" type="curve" smooth="yes"/>
      <point x="292" y="-12"/>
      <point x="337" y="27"/>
      <point x="344" y="93" type="curve"/>
      <point x="349" y="93" type="line"/>
      <point x="356" y="27"/>
      <point x="401" y="-12"/>
      <point x="462" y="-12" type="curve" smooth="yes"/>
      <point x="533" y="-12"/>
      <point x="578" y="43"/>
      <point x="578" y="131" type="curve" smooth="yes"/>
      <point x="578" y="536" type="line"/>
      <point x="557" y="536" type="line"/>
      <point x="557" y="133" type="line" smooth="yes"/>
      <point x="557" y="54"/>
      <point x="518" y="6"/>
      <point x="457" y="6" type="curve" smooth="yes"/>
      <point x="396" y="6"/>
      <point x="357" y="54"/>
      <point x="357" y="133" type="curve" smooth="yes"/>
      <point x="357" y="257" type="line"/>
      <point x="336" y="257" type="line"/>
      <point x="336" y="133" type="line" smooth="yes"/>
      <point x="336" y="54"/>
      <point x="297" y="6"/>
      <point x="236" y="6" type="curve" smooth="yes"/>
      <point x="175" y="6"/>
      <point x="136" y="54"/>
      <point x="136" y="133" type="curve" smooth="yes"/>
      <point x="136" y="423" type="line"/>
      <point x="148" y="408"/>
      <point x="167" y="400"/>
      <point x="190" y="400" type="curve" smooth="yes"/>
      <point x="233" y="400"/>
      <point x="265" y="429"/>
      <point x="265" y="474" type="curve" smooth="yes"/>
      <point x="265" y="519"/>
      <point x="233" y="548"/>
      <point x="190" y="548" type="curve" smooth="yes" name="hr01"/>
      <point x="147" y="548"/>
      <point x="115" y="519"/>
      <point x="115" y="474" type="curve" smooth="yes"/>
      <point x="115" y="131" type="line" smooth="yes"/>
      <point x="115" y="43"/>
      <point x="160" y="-12"/>
    </contour>
    <contour>
      <point x="190" y="415" type="curve" smooth="yes"/>
      <point x="153" y="415"/>
      <point x="134" y="440"/>
      <point x="134" y="474" type="curve" smooth="yes" name="hr02"/>
      <point x="134" y="508"/>
      <point x="153" y="533"/>
      <point x="190" y="533" type="curve" smooth="yes"/>
      <point x="227" y="533"/>
      <point x="246" y="508"/>
      <point x="246" y="474" type="curve" smooth="yes"/>
      <point x="246" y="440"/>
      <point x="227" y="415"/>
    </contour>
    <contour>
      <point x="578.0" y="0.0" type="move" name="bottomright"/>
    </contour>
    <contour>
      <point x="347.0" y="558.0" type="move" name="top"/>
    </contour>
    <contour>
      <point x="578.0" y="600.0" type="move" name="topright"/>
    </contour>
  </outline>
</glyph>
<glyph name="phoPhan-thai" format="1">
  <advance width="702"/>
  <unicode hex="0E1E"/>
  <outline>
    <contour>
      <point x="168" y="0" type="line"/>
      <point x="184" y="0" type="line"/>
      <point x="375" y="500" type="line"/>
      <point x="377" y="500" type="line"/>
      <point x="568" y="0" type="line"/>
      <point x="577" y="0" type="line" smooth="yes"/>
      <point x="581" y="0"/>
      <point x="584" y="4"/>
      <point x="584" y="9" type="curve" smooth="yes"/>
      <point x="584" y="536" type="line"/>
      <point x="563" y="536" type="line"/>
      <point x="563" y="249" type="line"/>
      <point x="568" y="58" type="line"/>
      <point x="564" y="58" type="line"/>
      <point x="388" y="519" type="line"/>
      <point x="364" y="519" type="line"/>
      <point x="188" y="58" type="line"/>
      <point x="184" y="58" type="line"/>
      <point x="189" y="249" type="line"/>
      <point x="189" y="474" type="line" smooth="yes"/>
      <point x="189" y="519"/>
      <point x="157" y="548"/>
      <point x="114" y="548" type="curve" smooth="yes" name="hr01"/>
      <point x="71" y="548"/>
      <point x="39" y="519"/>
      <point x="39" y="474" type="curve" smooth="yes"/>
      <point x="39" y="429"/>
      <point x="71" y="400"/>
      <point x="114" y="400" type="curve" smooth="yes"/>
      <point x="137" y="400"/>
      <point x="155" y="408"/>
      <point x="168" y="423" type="curve"/>
    </contour>
    <contour>
      <point x="114" y="415" type="curve" smooth="yes"/>
      <point x="77" y="415"/>
      <point x="58" y="440"/>
      <point x="58" y="474" type="curve" smooth="yes"/>
      <point x="58" y="508"/>
      <point x="77" y="533"/>
      <point x="114" y="533" type="curve" smooth="yes"/>
      <point x="151" y="533"/>
      <point x="170" y="508"/>
      <point x="170" y="474" type="curve" smooth="yes" name="hr02"/>
      <point x="170" y="440"/>
      <point x="151" y="415"/>
    </contour>
    <contour>
      <point x="585.0" y="0.0" type="move" name="bottomright"/>
    </contour>
    <contour>
      <point x="372.0" y="558.0" type="move" name="top"/>
    </contour>
    <contour>
      <point x="585.0" y="600.0" type="move" name="topright"/>
    </contour>
  </outline>
</glyph>
<glyph name="phoSamphao-thai" format="1">
  <advance width="673"/>
  <unicode hex="0E20"/>
  <outline>
    <contour>
      <point x="137" y="-12" type="curve" smooth="yes"/>
      <point x="180" y="-12"/>
      <point x="212" y="17"/>
      <point x="212" y="62" type="curve" smooth="yes"/>
      <point x="212" y="345" type="line" smooth="yes"/>
      <point x="212" y="355"/>
      <point x="209" y="360"/>
      <point x="200" y="363" type="curve" smooth="yes"/>
      <point x="128" y="387" type="line"/>
      <point x="145" y="465"/>
      <point x="219" y="530"/>
      <point x="338" y="530" type="curve" smooth="yes"/>
      <point x="465" y="530"/>
      <point x="539" y="472"/>
      <point x="539" y="344" type="curve" smooth="yes"/>
      <point x="539" y="0" type="line" name="hr01"/>
      <point x="560" y="0" type="line"/>
      <point x="560" y="344" type="line" smooth="yes"/>
      <point x="560" y="477"/>
      <point x="484" y="548"/>
      <point x="338" y="548" type="curve" smooth="yes"/>
      <point x="213" y="548"/>
      <point x="122" y="476"/>
      <point x="107" y="377" type="curve"/>
      <point x="191" y="347" type="line"/>
      <point x="191" y="113" type="line"/>
      <point x="178" y="127"/>
      <point x="160" y="136"/>
      <point x="137" y="136" type="curve" smooth="yes"/>
      <point x="94" y="136"/>
      <point x="62" y="107"/>
      <point x="62" y="62" type="curve" smooth="yes"/>
      <point x="62" y="17"/>
      <point x="94" y="-12"/>
    </contour>
    <contour>
      <point x="137" y="121" type="curve" smooth="yes"/>
      <point x="174" y="121"/>
      <point x="193" y="96"/>
      <point x="193" y="62" type="curve" smooth="yes"/>
      <point x="193" y="28"/>
      <point x="174" y="3"/>
      <point x="137" y="3" type="curve" smooth="yes"/>
      <point x="100" y="3"/>
      <point x="81" y="28"/>
      <point x="81" y="62" type="curve" smooth="yes"/>
      <point x="81" y="96"/>
      <point x="100" y="121"/>
    </contour>
    <contour>
      <point x="560.0" y="0.0" type="move" name="bottomright"/>
    </contour>
    <contour>
      <point x="338.0" y="558.0" type="move" name="top"/>
    </contour>
    <contour>
      <point x="560.0" y="600.0" type="move" name="topright"/>
    </contour>
  </outline>
</glyph>
<glyph name="moMa-thai" format="1">
  <advance width="636"/>
  <unicode hex="0E21"/>
  <outline>
    <contour>
      <point x="149" y="-12" type="curve" smooth="yes"/>
      <point x="192" y="-12"/>
      <point x="224" y="18"/>
      <point x="224" y="64" type="curve" smooth="yes"/>
      <point x="224" y="77"/>
      <point x="221" y="88"/>
      <point x="217" y="98" type="curve"/>
      <point x="501" y="0" type="line" name="hr01"/>
      <point x="518" y="0" type="line"/>
      <point x="518" y="536" type="line"/>
      <point x="497" y="536" type="line"/>
      <point x="497" y="21" type="line"/>
      <point x="493" y="21" type="line"/>
      <point x="220" y="116" type="line"/>
      <point x="220" y="474" type="line" smooth="yes"/>
      <point x="220" y="519"/>
      <point x="188" y="548"/>
      <point x="145" y="548" type="curve" smooth="yes" name="hr02"/>
      <point x="102" y="548"/>
      <point x="70" y="519"/>
      <point x="70" y="474" type="curve" smooth="yes"/>
      <point x="70" y="429"/>
      <point x="102" y="400"/>
      <point x="145" y="400" type="curve" smooth="yes"/>
      <point x="168" y="400"/>
      <point x="186" y="408"/>
      <point x="199" y="423" type="curve"/>
      <point x="199" y="131" type="line"/>
      <point x="199" y="122" type="line"/>
      <point x="186" y="134"/>
      <point x="169" y="140"/>
      <point x="149" y="140" type="curve" smooth="yes"/>
      <point x="106" y="140"/>
      <point x="74" y="110"/>
      <point x="74" y="64" type="curve" smooth="yes"/>
      <point x="74" y="18"/>
      <point x="106" y="-12"/>
    </contour>
    <contour>
      <point x="149" y="3" type="curve" smooth="yes"/>
      <point x="112" y="3"/>
      <point x="93" y="27"/>
      <point x="93" y="57" type="curve" smooth="yes"/>
      <point x="93" y="71" type="line" smooth="yes"/>
      <point x="93" y="101"/>
      <point x="112" y="125"/>
      <point x="149" y="125" type="curve" smooth="yes"/>
      <point x="186" y="125"/>
      <point x="205" y="101"/>
      <point x="205" y="71" type="curve" smooth="yes"/>
      <point x="205" y="57" type="line" smooth="yes"/>
      <point x="205" y="27"/>
      <point x="186" y="3"/>
    </contour>
    <contour>
      <point x="145" y="415" type="curve" smooth="yes"/>
      <point x="108" y="415"/>
      <point x="89" y="440"/>
      <point x="89" y="474" type="curve" smooth="yes"/>
      <point x="89" y="508"/>
      <point x="108" y="533"/>
      <point x="145" y="533" type="curve" smooth="yes"/>
      <point x="182" y="533"/>
      <point x="201" y="508"/>
      <point x="201" y="474" type="curve" smooth="yes"/>
      <point x="201" y="440"/>
      <point x="182" y="415"/>
    </contour>
    <contour>
      <point x="518.0" y="0.0" type="move" name="bottomright"/>
    </contour>
    <contour>
      <point x="310.0" y="558.0" type="move" name="top"/>
    </contour>
    <contour>
      <point x="518.0" y="600.0" type="move" name="topright"/>
    </contour>
  </outline>
</glyph>
<glyph name="yoYak-thai" format="1">
  <advance width="595"/>
  <unicode hex="0E22"/>
  <outline>
    <contour>
      <point x="267" y="256" type="line"/>
      <point x="267" y="274" type="line"/>
      <point x="215" y="274" type="line" smooth="yes"/>
      <point x="140" y="274"/>
      <point x="111" y="313"/>
      <point x="111" y="388" type="curve" smooth="yes"/>
      <point x="111" y="416" type="line" smooth="yes"/>
      <point x="111" y="444"/>
      <point x="116" y="469"/>
      <point x="126" y="488" type="curve"/>
      <point x="124" y="482"/>
      <point x="123" y="476"/>
      <point x="123" y="470" type="curve" smooth="yes"/>
      <point x="123" y="427"/>
      <point x="155" y="400"/>
      <point x="197" y="400" type="curve" smooth="yes"/>
      <point x="239" y="400"/>
      <point x="272" y="429"/>
      <point x="272" y="474" type="curve" smooth="yes"/>
      <point x="272" y="519"/>
      <point x="241" y="548"/>
      <point x="199" y="548" type="curve" smooth="yes"/>
      <point x="147" y="548"/>
      <point x="90" y="506"/>
      <point x="90" y="418" type="curve" smooth="yes"/>
      <point x="90" y="387" type="line" smooth="yes"/>
      <point x="90" y="316"/>
      <point x="117" y="271"/>
      <point x="177" y="259" type="curve"/>
      <point x="177" y="257" type="line"/>
      <point x="127" y="240"/>
      <point x="92" y="200"/>
      <point x="92" y="136" type="curve" smooth="yes" name="hr01"/>
      <point x="92" y="39"/>
      <point x="163" y="-12"/>
      <point x="287" y="-12" type="curve" smooth="yes"/>
      <point x="411" y="-12"/>
      <point x="482" y="42"/>
      <point x="482" y="142" type="curve" smooth="yes"/>
      <point x="482" y="536" type="line"/>
      <point x="461" y="536" type="line"/>
      <point x="461" y="141" type="line" smooth="yes"/>
      <point x="461" y="56"/>
      <point x="402" y="6"/>
      <point x="308" y="6" type="curve" smooth="yes"/>
      <point x="266" y="6" type="line" smooth="yes"/>
      <point x="172" y="6"/>
      <point x="113" y="50"/>
      <point x="113" y="136" type="curve" smooth="yes"/>
      <point x="113" y="210"/>
      <point x="158" y="256"/>
      <point x="236" y="256" type="curve" smooth="yes"/>
    </contour>
    <contour>
      <point x="197" y="533" type="curve" name="hr02"/>
      <point x="234" y="533"/>
      <point x="253" y="508"/>
      <point x="253" y="474" type="curve" smooth="yes"/>
      <point x="253" y="440"/>
      <point x="234" y="415"/>
      <point x="197" y="415" type="curve" smooth="yes"/>
      <point x="160" y="415"/>
      <point x="141" y="440"/>
      <point x="141" y="474" type="curve" smooth="yes"/>
      <point x="141" y="508"/>
      <point x="160" y="533"/>
    </contour>
    <contour>
      <point x="482.0" y="0.0" type="move" name="bottomright"/>
    </contour>
    <contour>
      <point x="287.0" y="558.0" type="move" name="top"/>
    </contour>
    <contour>
      <point x="482.0" y="600.0" type="move" name="topright"/>
    </contour>
  </outline>
</glyph>
<glyph name="roRua-thai" format="1">
  <advance width="552"/>
  <unicode hex="0E23"/>
  <outline>
    <contour>
      <point x="338" y="-12" type="curve" smooth="yes"/>
      <point x="383" y="-12"/>
      <point x="417" y="17"/>
      <point x="417" y="63" type="curve" smooth="yes"/>
      <point x="417" y="254" type="line" smooth="yes"/>
      <point x="417" y="328"/>
      <point x="379" y="346"/>
      <point x="319" y="350" type="curve" smooth="yes"/>
      <point x="79" y="367" type="line"/>
      <point x="79" y="382" type="line" smooth="yes"/>
      <point x="79" y="481"/>
      <point x="153" y="530"/>
      <point x="259" y="530" type="curve" smooth="yes"/>
      <point x="356" y="530"/>
      <point x="406" y="496"/>
      <point x="446" y="459" type="curve"/>
      <point x="460" y="474" type="line"/>
      <point x="422" y="511"/>
      <point x="362" y="548"/>
      <point x="259" y="548" type="curve" smooth="yes"/>
      <point x="142" y="548"/>
      <point x="58" y="493"/>
      <point x="58" y="382" type="curve" smooth="yes"/>
      <point x="58" y="351" type="line"/>
      <point x="316" y="331" type="line" smooth="yes"/>
      <point x="366" y="327"/>
      <point x="396" y="311"/>
      <point x="396" y="254" type="curve" smooth="yes"/>
      <point x="396" y="116" type="line"/>
      <point x="383" y="130"/>
      <point x="362" y="138"/>
      <point x="338" y="138" type="curve" smooth="yes"/>
      <point x="293" y="138"/>
      <point x="259" y="109"/>
      <point x="259" y="63" type="curve" smooth="yes"/>
      <point x="259" y="17"/>
      <point x="293" y="-12"/>
    </contour>
    <contour>
      <point x="338" y="123" type="curve" smooth="yes"/>
      <point x="377" y="123"/>
      <point x="397" y="98"/>
      <point x="397" y="63" type="curve" smooth="yes" name="hr01"/>
      <point x="397" y="28"/>
      <point x="377" y="3"/>
      <point x="338" y="3" type="curve" smooth="yes"/>
      <point x="299" y="3"/>
      <point x="279" y="28"/>
      <point x="279" y="63" type="curve" smooth="yes"/>
      <point x="279" y="98"/>
      <point x="299" y="123"/>
    </contour>
    <contour>
      <point x="421.0" y="0.0" type="move" name="bottomright"/>
    </contour>
    <contour>
      <point x="260.0" y="558.0" type="move" name="top"/>
    </contour>
    <contour>
      <point x="421.0" y="600.0" type="move" name="topright"/>
    </contour>
  </outline>
</glyph>
<glyph name="loLing-thai" format="1">
  <advance width="579"/>
  <unicode hex="0E25"/>
  <outline>
    <contour>
      <point x="203" y="-12" type="curve" smooth="yes"/>
      <point x="246" y="-12"/>
      <point x="278" y="17"/>
      <point x="278" y="62" type="curve" smooth="yes"/>
      <point x="278" y="107"/>
      <point x="246" y="136"/>
      <point x="203" y="136" type="curve" smooth="yes"/>
      <point x="160" y="136"/>
      <point x="128" y="107"/>
      <point x="128" y="62" type="curve" smooth="yes"/>
      <point x="128" y="56" type="line"/>
      <point x="120" y="74"/>
      <point x="116" y="97"/>
      <point x="116" y="127" type="curve" smooth="yes"/>
      <point x="116" y="157" type="line" smooth="yes"/>
      <point x="116" y="240"/>
      <point x="169" y="280"/>
      <point x="272" y="280" type="curve" smooth="yes"/>
      <point x="445" y="280" type="line"/>
      <point x="445" y="0" type="line" name="hr01"/>
      <point x="466" y="0" type="line"/>
      <point x="466" y="357" type="line" smooth="yes"/>
      <point x="466" y="480"/>
      <point x="400" y="548"/>
      <point x="268" y="548" type="curve" smooth="yes"/>
      <point x="157" y="548"/>
      <point x="98" y="501"/>
      <point x="65" y="426" type="curve"/>
      <point x="83" y="418" type="line"/>
      <point x="117" y="495"/>
      <point x="176" y="530"/>
      <point x="269" y="530" type="curve" smooth="yes"/>
      <point x="384" y="530"/>
      <point x="445" y="476"/>
      <point x="445" y="354" type="curve" smooth="yes"/>
      <point x="445" y="298" type="line"/>
      <point x="268" y="298" type="line" smooth="yes"/>
      <point x="144" y="298"/>
      <point x="93" y="238"/>
      <point x="93" y="142" type="curve" smooth="yes"/>
      <point x="93" y="52"/>
      <point x="130" y="-12"/>
    </contour>
    <contour>
      <point x="203" y="3" type="curve" smooth="yes"/>
      <point x="166" y="3"/>
      <point x="147" y="28"/>
      <point x="147" y="62" type="curve" smooth="yes"/>
      <point x="147" y="96"/>
      <point x="166" y="121"/>
      <point x="203" y="121" type="curve" smooth="yes"/>
      <point x="240" y="121"/>
      <point x="259" y="96"/>
      <point x="259" y="62" type="curve" smooth="yes"/>
      <point x="259" y="28"/>
      <point x="240" y="3"/>
    </contour>
    <contour>
      <point x="466.0" y="0.0" type="move" name="bottomright"/>
    </contour>
    <contour>
      <point x="269.0" y="558.0" type="move" name="top"/>
    </contour>
    <contour>
      <point x="466.0" y="600.0" type="move" name="topright"/>
    </contour>
  </outline>
</glyph>
<glyph name="soSala-thai" format="1">
  <advance width="660"/>
  <unicode hex="0E28"/>
  <outline>
    <contour>
      <point x="550" y="618" type="line"/>
      <point x="529" y="618" type="line"/>
      <point x="529" y="493" type="line"/>
      <point x="489" y="493" type="line"/>
      <point x="452" y="528"/>
      <point x="397" y="548"/>
      <point x="330" y="548" type="curve" smooth="yes"/>
      <point x="197" y="548"/>
      <point x="113" y="470"/>
      <point x="113" y="348" type="curve" smooth="yes"/>
      <point x="113" y="0" type="line"/>
      <point x="134" y="0" type="line"/>
      <point x="134" y="138" type="line" smooth="yes"/>
      <point x="134" y="215"/>
      <point x="203" y="275"/>
      <point x="272" y="292" type="curve"/>
      <point x="273" y="290" type="line"/>
      <point x="261" y="279"/>
      <point x="254" y="262"/>
      <point x="254" y="240" type="curve" smooth="yes"/>
      <point x="254" y="195"/>
      <point x="282" y="165"/>
      <point x="330" y="165" type="curve" smooth="yes"/>
      <point x="378" y="165"/>
      <point x="406" y="195"/>
      <point x="406" y="240" type="curve" smooth="yes"/>
      <point x="406" y="285"/>
      <point x="378" y="315"/>
      <point x="324" y="315" type="curve" smooth="yes"/>
      <point x="245" y="315"/>
      <point x="165" y="267"/>
      <point x="137" y="203" type="curve"/>
      <point x="134" y="203" type="line"/>
      <point x="134" y="344" type="line" smooth="yes"/>
      <point x="134" y="461"/>
      <point x="207" y="530"/>
      <point x="330" y="530" type="curve" smooth="yes"/>
      <point x="453" y="530"/>
      <point x="526" y="461"/>
      <point x="526" y="344" type="curve" smooth="yes" name="hr01"/>
      <point x="526" y="0" type="line"/>
      <point x="547" y="0" type="line"/>
      <point x="547" y="348" type="line" smooth="yes"/>
      <point x="547" y="400"/>
      <point x="531" y="443"/>
      <point x="504" y="477" type="curve"/>
      <point x="529" y="477" type="line" smooth="yes" name="hr02"/>
      <point x="542" y="477"/>
      <point x="550" y="485"/>
      <point x="550" y="500" type="curve" smooth="yes"/>
    </contour>
    <contour>
      <point x="330" y="180" type="curve" smooth="yes"/>
      <point x="290" y="180"/>
      <point x="273" y="204"/>
      <point x="273" y="240" type="curve" smooth="yes"/>
      <point x="273" y="276"/>
      <point x="290" y="300"/>
      <point x="330" y="300" type="curve" smooth="yes"/>
      <point x="370" y="300"/>
      <point x="387" y="276"/>
      <point x="387" y="240" type="curve" smooth="yes"/>
      <point x="387" y="204"/>
      <point x="370" y="180"/>
    </contour>
    <contour>
      <point x="547.0" y="0.0" type="move" name="bottomright"/>
    </contour>
    <contour>
      <point x="330.0" y="558.0" type="move" name="top"/>
    </contour>
    <contour>
      <point x="547.0" y="600.0" type="move" name="topright"/>
    </contour>
  </outline>
</glyph>
<glyph name="soRusi-thai" format="1">
  <advance width="695"/>
  <unicode hex="0E29"/>
  <outline>
    <contour>
      <point x="78" y="18" type="line"/>
      <point x="78" y="0" type="line"/>
      <point x="400" y="0" type="line" smooth="yes"/>
      <point x="501" y="0"/>
      <point x="558" y="56"/>
      <point x="558" y="152" type="curve" smooth="yes"/>
      <point x="558" y="238" type="line"/>
      <point x="620" y="238" type="line"/>
      <point x="620" y="255" type="line"/>
      <point x="558" y="255" type="line"/>
      <point x="558" y="536" type="line"/>
      <point x="537" y="536" type="line"/>
      <point x="537" y="255" type="line"/>
      <point x="429" y="255" type="line" smooth="yes"/>
      <point x="422" y="255"/>
      <point x="416" y="254"/>
      <point x="411" y="252" type="curve" smooth="yes"/>
      <point x="431" y="263"/>
      <point x="444" y="283"/>
      <point x="444" y="311" type="curve" smooth="yes"/>
      <point x="444" y="355"/>
      <point x="412" y="384"/>
      <point x="369" y="384" type="curve" smooth="yes"/>
      <point x="326" y="384"/>
      <point x="294" y="355"/>
      <point x="294" y="311" type="curve" smooth="yes"/>
      <point x="294" y="267"/>
      <point x="324" y="238"/>
      <point x="375" y="238" type="curve" smooth="yes"/>
      <point x="537" y="238" type="line"/>
      <point x="537" y="155" type="line" smooth="yes"/>
      <point x="537" y="69"/>
      <point x="485" y="18"/>
      <point x="396" y="18" type="curve" smooth="yes"/>
      <point x="202" y="18" type="line"/>
      <point x="202" y="474" type="line" smooth="yes"/>
      <point x="202" y="519"/>
      <point x="170" y="548"/>
      <point x="127" y="548" type="curve" smooth="yes" name="hr01"/>
      <point x="84" y="548"/>
      <point x="52" y="519"/>
      <point x="52" y="474" type="curve" smooth="yes"/>
      <point x="52" y="429"/>
      <point x="84" y="400"/>
      <point x="127" y="400" type="curve" smooth="yes"/>
      <point x="150" y="400"/>
      <point x="168" y="408"/>
      <point x="181" y="423" type="curve"/>
      <point x="181" y="18" type="line"/>
    </contour>
    <contour>
      <point x="127" y="415" type="curve" smooth="yes"/>
      <point x="90" y="415"/>
      <point x="71" y="440"/>
      <point x="71" y="474" type="curve" smooth="yes"/>
      <point x="71" y="508"/>
      <point x="90" y="533"/>
      <point x="127" y="533" type="curve" smooth="yes"/>
      <point x="164" y="533"/>
      <point x="183" y="508"/>
      <point x="183" y="474" type="curve" smooth="yes" name="hr02"/>
      <point x="183" y="440"/>
      <point x="164" y="415"/>
    </contour>
    <contour>
      <point x="369" y="253" type="curve" smooth="yes"/>
      <point x="332" y="253"/>
      <point x="313" y="278"/>
      <point x="313" y="311" type="curve" smooth="yes"/>
      <point x="313" y="344"/>
      <point x="332" y="369"/>
      <point x="369" y="369" type="curve" smooth="yes"/>
      <point x="406" y="369"/>
      <point x="425" y="344"/>
      <point x="425" y="311" type="curve" smooth="yes"/>
      <point x="425" y="278"/>
      <point x="406" y="253"/>
    </contour>
    <contour>
      <point x="558.0" y="0.0" type="move" name="bottomright"/>
    </contour>
    <contour>
      <point x="370.0" y="558.0" type="move" name="top"/>
    </contour>
    <contour>
      <point x="558.0" y="600.0" type="move" name="topright"/>
    </contour>
  </outline>
</glyph>
<glyph name="hoHip-thai" format="1">
  <advance width="674"/>
  <unicode hex="0E2B"/>
  <outline>
    <contour>
      <point x="189" y="0" type="line"/>
      <point x="189" y="258" type="line"/>
      <point x="496" y="392" type="line"/>
      <point x="499" y="392" type="line"/>
      <point x="499" y="0" type="line"/>
      <point x="520" y="0" type="line"/>
      <point x="520" y="382" type="line" smooth="yes"/>
      <point x="520" y="388"/>
      <point x="518" y="393"/>
      <point x="515" y="396" type="curve"/>
      <point x="555" y="398"/>
      <point x="584" y="428"/>
      <point x="584" y="472" type="curve" smooth="yes"/>
      <point x="584" y="518"/>
      <point x="552" y="548"/>
      <point x="509" y="548" type="curve" smooth="yes"/>
      <point x="466" y="548"/>
      <point x="434" y="518"/>
      <point x="434" y="472" type="curve" smooth="yes"/>
      <point x="434" y="438"/>
      <point x="451" y="413"/>
      <point x="478" y="402" type="curve"/>
      <point x="189" y="276" type="line"/>
      <point x="189" y="474" type="line" smooth="yes"/>
      <point x="189" y="519"/>
      <point x="157" y="548"/>
      <point x="114" y="548" type="curve" smooth="yes"/>
      <point x="71" y="548"/>
      <point x="39" y="519"/>
      <point x="39" y="474" type="curve" smooth="yes"/>
      <point x="39" y="429"/>
      <point x="71" y="400"/>
      <point x="114" y="400" type="curve" smooth="yes"/>
      <point x="137" y="400"/>
      <point x="155" y="408"/>
      <point x="168" y="423" type="curve"/>
      <point x="168" y="0" type="line"/>
    </contour>
    <contour>
      <point x="509" y="411" type="curve" smooth="yes"/>
      <point x="472" y="411"/>
      <point x="453" y="435"/>
      <point x="453" y="465" type="curve" smooth="yes"/>
      <point x="453" y="479" type="line" smooth="yes"/>
      <point x="453" y="509"/>
      <point x="472" y="533"/>
      <point x="509" y="533" type="curve" smooth="yes"/>
      <point x="546" y="533"/>
      <point x="565" y="509"/>
      <point x="565" y="479" type="curve" smooth="yes"/>
      <point x="565" y="465" type="line" smooth="yes"/>
      <point x="565" y="435"/>
      <point x="546" y="411"/>
    </contour>
    <contour>
      <point x="114" y="415" type="curve" smooth="yes"/>
      <point x="77" y="415"/>
      <point x="58" y="440"/>
      <point x="58" y="474" type="curve" smooth="yes"/>
      <point x="58" y="508"/>
      <point x="77" y="533"/>
      <point x="114" y="533" type="curve" smooth="yes"/>
      <point x="151" y="533"/>
      <point x="170" y="508"/>
      <point x="170" y="474" type="curve" smooth="yes" name="hr01"/>
      <point x="170" y="440"/>
      <point x="151" y="415"/>
    </contour>
    <contour>
      <point x="520.0" y="0.0" type="move" name="bottomright"/>
    </contour>
    <contour>
      <point x="344.0" y="558.0" type="move" name="top"/>
    </contour>
    <contour>
      <point x="520.0" y="600.0" type="move" name="topright"/>
    </contour>
  </outline>
</glyph>
<glyph name="hoNokhuk-thai" format="1">
  <advance width="624"/>
  <unicode hex="0E2E"/>
  <outline>
    <contour>
      <point x="522" y="618" type="line"/>
      <point x="501" y="618" type="line"/>
      <point x="501" y="493" type="line"/>
      <point x="461" y="493" type="line"/>
      <point x="422" y="530"/>
      <point x="363" y="548"/>
      <point x="286" y="548" type="curve" smooth="yes"/>
      <point x="179" y="548"/>
      <point x="91" y="498"/>
      <point x="58" y="427" type="curve"/>
      <point x="75" y="419" type="line"/>
      <point x="107" y="490"/>
      <point x="193" y="530"/>
      <point x="286" y="530" type="curve" smooth="yes"/>
      <point x="418" y="530"/>
      <point x="498" y="461"/>
      <point x="498" y="340" type="curve" smooth="yes" name="hr01"/>
      <point x="498" y="127" type="line" smooth="yes"/>
      <point x="498" y="44"/>
      <point x="440" y="6"/>
      <point x="338" y="6" type="curve" smooth="yes"/>
      <point x="296" y="6" type="line" smooth="yes"/>
      <point x="194" y="6"/>
      <point x="136" y="44"/>
      <point x="136" y="127" type="curve" smooth="yes"/>
      <point x="136" y="235" type="line"/>
      <point x="149" y="220"/>
      <point x="169" y="211"/>
      <point x="195" y="211" type="curve" smooth="yes"/>
      <point x="241" y="211"/>
      <point x="275" y="240"/>
      <point x="275" y="286" type="curve" smooth="yes"/>
      <point x="275" y="332"/>
      <point x="241" y="361"/>
      <point x="195" y="361" type="curve" smooth="yes"/>
      <point x="149" y="361"/>
      <point x="115" y="332"/>
      <point x="115" y="286" type="curve" smooth="yes"/>
      <point x="115" y="132" type="line" smooth="yes"/>
      <point x="115" y="35"/>
      <point x="181" y="-12"/>
      <point x="317" y="-12" type="curve" smooth="yes"/>
      <point x="453" y="-12"/>
      <point x="519" y="35"/>
      <point x="519" y="132" type="curve" smooth="yes"/>
      <point x="519" y="333" type="line" smooth="yes"/>
      <point x="519" y="394"/>
      <point x="504" y="442"/>
      <point x="476" y="477" type="curve"/>
      <point x="501" y="477" type="line" smooth="yes" name="hr02"/>
      <point x="514" y="477"/>
      <point x="522" y="485"/>
      <point x="522" y="500" type="curve" smooth="yes"/>
    </contour>
    <contour>
      <point x="195" y="226" type="curve" smooth="yes"/>
      <point x="156" y="226"/>
      <point x="136" y="251"/>
      <point x="136" y="286" type="curve" smooth="yes"/>
      <point x="136" y="321"/>
      <point x="156" y="346"/>
      <point x="195" y="346" type="curve" smooth="yes"/>
      <point x="234" y="346"/>
      <point x="254" y="321"/>
      <point x="254" y="286" type="curve" smooth="yes"/>
      <point x="254" y="251"/>
      <point x="234" y="226"/>
    </contour>
    <contour>
      <point x="506.0" y="0.0" type="move" name="bottomright"/>
    </contour>
    <contour>
      <point x="286.0" y="558.0" type="move" name="top"/>
    </contour>
    <contour>
      <point x="506.0" y="600.0" type="move" name="topright"/>
    </contour>
  </outline>
</glyph>
<glyph name="paiyannoi-thai" format="1">
  <advance width="517"/>
  <unicode hex="0E2F"/>
  <outline>
    <contour>
      <point x="378" y="0" type="line"/>
      <point x="399" y="0" type="line"/>
      <point x="399" y="536" type="line"/>
      <point x="378" y="536" type="line"/>
      <point x="378" y="453" type="line" smooth="yes"/>
      <point x="378" y="362"/>
      <point x="303" y="319"/>
      <point x="216" y="319" type="curve" smooth="yes"/>
      <point x="183" y="319" type="line" smooth="yes"/>
      <point x="119" y="319"/>
      <point x="57" y="356"/>
      <point x="45" y="427" type="curve"/>
      <point x="47" y="428" type="line"/>
      <point x="58" y="410"/>
      <point x="77" y="400"/>
      <point x="103" y="400" type="curve" smooth="yes"/>
      <point x="146" y="400"/>
      <point x="178" y="429"/>
      <point x="178" y="474" type="curve" smooth="yes"/>
      <point x="178" y="519"/>
      <point x="146" y="548"/>
      <point x="103" y="548" type="curve" smooth="yes" name="hr01"/>
      <point x="60" y="548"/>
      <point x="28" y="519"/>
      <point x="28" y="474" type="curve" smooth="yes"/>
      <point x="28" y="453" type="line" smooth="yes"/>
      <point x="28" y="348"/>
      <point x="101" y="301"/>
      <point x="199" y="301" type="curve" smooth="yes"/>
      <point x="314" y="301"/>
      <point x="349" y="339"/>
      <point x="375" y="383" type="curve"/>
      <point x="378" y="383" type="line"/>
    </contour>
    <contour>
      <point x="103" y="415" type="curve" smooth="yes"/>
      <point x="66" y="415"/>
      <point x="46" y="440"/>
      <point x="46" y="474" type="curve" smooth="yes"/>
      <point x="46" y="508"/>
      <point x="66" y="533"/>
      <point x="103" y="533" type="curve" smooth="yes"/>
      <point x="140" y="533"/>
      <point x="160" y="508"/>
      <point x="160" y="474" type="curve" smooth="yes"/>
      <point x="160" y="440"/>
      <point x="140" y="415"/>
    </contour>
  </outline>
</glyph>
<glyph name="saraA-thai" format="1">
  <advance width="454"/>
  <unicode hex="0E30"/>
  <outline>
    <contour>
      <point x="214" y="317" type="curve" smooth="yes" name="hr00"/>
      <point x="303" y="317"/>
      <point x="384" y="351"/>
      <point x="384" y="464" type="curve" smooth="yes"/>
      <point x="384" y="477" type="line"/>
      <point x="365" y="477" type="line"/>
      <point x="365" y="464" type="line" smooth="yes"/>
      <point x="365" y="364"/>
      <point x="293" y="334"/>
      <point x="232" y="334" type="curve" smooth="yes"/>
      <point x="196" y="334" type="line" smooth="yes"/>
      <point x="182" y="334"/>
      <point x="170" y="335"/>
      <point x="159" y="337" type="curve"/>
      <point x="159" y="338" type="line"/>
      <point x="193" y="345"/>
      <point x="212" y="375"/>
      <point x="212" y="408" type="curve" smooth="yes"/>
      <point x="212" y="453"/>
      <point x="181" y="483"/>
      <point x="136" y="483" type="curve" smooth="yes"/>
      <point x="91" y="483"/>
      <point x="60" y="453"/>
      <point x="60" y="408" type="curve" smooth="yes"/>
      <point x="60" y="345"/>
      <point x="115" y="317"/>
    </contour>
    <contour>
      <point x="214" y="47" type="curve" smooth="yes"/>
      <point x="303" y="47"/>
      <point x="384" y="81"/>
      <point x="384" y="194" type="curve" smooth="yes"/>
      <point x="384" y="207" type="line"/>
      <point x="365" y="207" type="line"/>
      <point x="365" y="194" type="line" smooth="yes"/>
      <point x="365" y="94"/>
      <point x="293" y="64"/>
      <point x="232" y="64" type="curve" smooth="yes"/>
      <point x="196" y="64" type="line" smooth="yes"/>
      <point x="182" y="64"/>
      <point x="170" y="65"/>
      <point x="159" y="67" type="curve"/>
      <point x="159" y="68" type="line"/>
      <point x="193" y="75"/>
      <point x="212" y="105"/>
      <point x="212" y="138" type="curve" smooth="yes"/>
      <point x="212" y="183"/>
      <point x="181" y="213"/>
      <point x="136" y="213" type="curve" smooth="yes"/>
      <point x="91" y="213"/>
      <point x="60" y="183"/>
      <point x="60" y="138" type="curve" smooth="yes"/>
      <point x="60" y="75"/>
      <point x="115" y="47"/>
    </contour>
    <contour>
      <point x="136" y="348" type="curve" smooth="yes"/>
      <point x="97" y="348"/>
      <point x="79" y="373"/>
      <point x="79" y="408" type="curve" smooth="yes"/>
      <point x="79" y="443"/>
      <point x="97" y="468"/>
      <point x="136" y="468" type="curve" smooth="yes"/>
      <point x="175" y="468"/>
      <point x="193" y="443"/>
      <point x="193" y="408" type="curve" smooth="yes"/>
      <point x="193" y="373"/>
      <point x="175" y="348"/>
    </contour>
    <contour>
      <point x="136" y="78" type="curve" smooth="yes"/>
      <point x="97" y="78"/>
      <point x="79" y="103"/>
      <point x="79" y="138" type="curve" smooth="yes"/>
      <point x="79" y="173"/>
      <point x="97" y="198"/>
      <point x="136" y="198" type="curve" smooth="yes"/>
      <point x="175" y="198"/>
      <point x="193" y="173"/>
      <point x="193" y="138" type="curve" smooth="yes"/>
      <point x="193" y="103"/>
      <point x="175" y="78"/>
    </contour>
  </outline>
</glyph>
<glyph name="maiHanaKat-thai" format="1">
  <advance width="0"/>
  <unicode hex="0E31"/>
  <outline>
    <contour>
      <point x="-208" y="670" type="curve" smooth="yes" name="hr00"/>
      <point x="-104" y="670"/>
      <point x="-30" y="707"/>
      <point x="-30" y="817" type="curve" smooth="yes"/>
      <point x="-30" y="830" type="line"/>
      <point x="-49" y="830" type="line"/>
      <point x="-49" y="817" type="line" smooth="yes"/>
      <point x="-49" y="720"/>
      <point x="-115" y="687"/>
      <point x="-188" y="687" type="curve" smooth="yes"/>
      <point x="-228" y="687" type="line" smooth="yes"/>
      <point x="-242" y="687"/>
      <point x="-254" y="688"/>
      <point x="-265" y="690" type="curve"/>
      <point x="-265" y="691" type="line"/>
      <point x="-231" y="698"/>
      <point x="-212" y="728"/>
      <point x="-212" y="761" type="curve" smooth="yes"/>
      <point x="-212" y="806"/>
      <point x="-243" y="836"/>
      <point x="-288" y="836" type="curve" smooth="yes"/>
      <point x="-333" y="836"/>
      <point x="-364" y="806"/>
      <point x="-364" y="761" type="curve" smooth="yes"/>
      <point x="-364" y="699"/>
      <point x="-311" y="670"/>
    </contour>
    <contour>
      <point x="-288" y="701" type="curve" smooth="yes"/>
      <point x="-327" y="701"/>
      <point x="-345" y="726"/>
      <point x="-345" y="761" type="curve" smooth="yes"/>
      <point x="-345" y="796"/>
      <point x="-327" y="821"/>
      <point x="-288" y="821" type="curve" smooth="yes"/>
      <point x="-249" y="821"/>
      <point x="-231" y="796"/>
      <point x="-231" y="761" type="curve" smooth="yes"/>
      <point x="-231" y="726"/>
      <point x="-249" y="701"/>
    </contour>
    <contour>
      <point x="-148.0" y="600.0" type="move" name="_topright"/>
    </contour>
    <contour>
      <point x="-148.0" y="840.0" type="move" name="topright"/>
    </contour>
  </outline>
</glyph>
<glyph name="saraAa-thai" format="1">
  <advance width="502"/>
  <unicode hex="0E32"/>
  <outline>
    <contour>
      <point x="389" y="0" type="line" name="hr00"/>
      <point x="389" y="382" type="line" smooth="yes"/>
      <point x="389" y="489"/>
      <point x="331" y="548"/>
      <point x="218" y="548" type="curve" smooth="yes"/>
      <point x="120" y="548"/>
      <point x="69" y="507"/>
      <point x="40" y="442" type="curve"/>
      <point x="58" y="434" type="line"/>
      <point x="87" y="501"/>
      <point x="140" y="530"/>
      <point x="218" y="530" type="curve" smooth="yes"/>
      <point x="315" y="530"/>
      <point x="368" y="484"/>
      <point x="368" y="379" type="curve" smooth="yes"/>
      <point x="368" y="0" type="line"/>
    </contour>
    <contour>
      <point x="389.0" y="600.0" type="move" name="topright"/>
    </contour>
  </outline>
</glyph>
<glyph name="saraI-thai" format="1">
  <advance width="0"/>
  <unicode hex="0E34"/>
  <outline>
    <contour>
      <point x="-30" y="678" type="line" name="hr00"/>
      <point x="-30" y="690" type="line" smooth="yes"/>
      <point x="-30" y="771"/>
      <point x="-109" y="826"/>
      <point x="-227" y="826" type="curve" smooth="yes"/>
      <point x="-345" y="826"/>
      <point x="-424" y="771"/>
      <point x="-424" y="690" type="curve" smooth="yes"/>
      <point x="-424" y="678" type="line"/>
    </contour>
    <contour>
      <point x="-227" y="807" type="curve" smooth="yes"/>
      <point x="-125" y="807"/>
      <point x="-50" y="759"/>
      <point x="-50" y="695" type="curve"/>
      <point x="-404" y="695" type="line"/>
      <point x="-403" y="759"/>
      <point x="-328" y="807"/>
    </contour>
    <contour>
      <point x="-30.0" y="600.0" type="move" name="_topright"/>
    </contour>
    <contour>
      <point x="-30.0" y="840.0" type="move" name="topright"/>
    </contour>
  </outline>
</glyph>
<glyph name="saraIi-thai" format="1">
  <advance width="0"/>
  <unicode hex="0E35"/>
  <outline>
    <contour>
      <point x="-425" y="678" type="line" name="hr00"/>
      <point x="-30" y="678" type="line"/>
      <point x="-30" y="861" type="line"/>
      <point x="-50" y="861" type="line"/>
      <point x="-50" y="749" type="line"/>
      <point x="-55" y="749" type="line"/>
      <point x="-82" y="797"/>
      <point x="-145" y="826"/>
      <point x="-232" y="826" type="curve" smooth="yes"/>
      <point x="-346" y="826"/>
      <point x="-425" y="771"/>
      <point x="-425" y="690" type="curve" smooth="yes"/>
    </contour>
    <contour>
      <point x="-229" y="807" type="curve" smooth="yes"/>
      <point x="-125" y="807"/>
      <point x="-51" y="760"/>
      <point x="-50" y="695" type="curve"/>
      <point x="-405" y="695" type="line"/>
      <point x="-404" y="759"/>
      <point x="-329" y="807"/>
    </contour>
    <contour>
      <point x="-30.0" y="600.0" type="move" name="_topright"/>
    </contour>
    <contour>
      <point x="-30.0" y="880.0" type="move" name="topright"/>
    </contour>
  </outline>
</glyph>
<glyph name="saraUee-thai" format="1">
  <advance width="0"/>
  <unicode hex="0E37"/>
  <outline>
    <contour>
      <point x="-424" y="678" type="line" name="hr00"/>
      <point x="-30" y="678" type="line"/>
      <point x="-30" y="861" type="line"/>
      <point x="-50" y="861" type="line"/>
      <point x="-50" y="741" type="line"/>
      <point x="-51" y="741" type="line"/>
      <point x="-63" y="765"/>
      <point x="-85" y="784"/>
      <point x="-114" y="798" type="curve"/>
      <point x="-114" y="861" type="line"/>
      <point x="-134" y="861" type="line"/>
      <point x="-134" y="807" type="line"/>
      <point x="-165" y="819"/>
      <point x="-203" y="826"/>
      <point x="-242" y="826" type="curve" smooth="yes"/>
      <point x="-353" y="826"/>
      <point x="-424" y="771"/>
      <point x="-424" y="690" type="curve" smooth="yes"/>
    </contour>
    <contour>
      <point x="-239" y="807" type="curve" smooth="yes"/>
      <point x="-143" y="807"/>
      <point x="-52" y="760"/>
      <point x="-50" y="695" type="curve"/>
      <point x="-404" y="695" type="line"/>
      <point x="-403" y="759"/>
      <point x="-336" y="807"/>
    </contour>
    <contour>
      <point x="-30.0" y="600.0" type="move" name="_topright"/>
    </contour>
    <contour>
      <point x="-30.0" y="880.0" type="move" name="topright"/>
    </contour>
  </outline>
</glyph>
<glyph name="saraU-thai" format="1">
  <advance width="0"/>
  <unicode hex="0E38"/>
  <outline>
    <contour>
      <point x="-51" y="-332" type="line"/>
      <point x="-30" y="-332" type="line"/>
      <point x="-30" y="-174" type="line" smooth="yes"/>
      <point x="-30" y="-138"/>
      <point x="-57" y="-113"/>
      <point x="-94" y="-113" type="curve" smooth="yes"/>
      <point x="-131" y="-113"/>
      <point x="-157" y="-138"/>
      <point x="-157" y="-174" type="curve" smooth="yes"/>
      <point x="-157" y="-212"/>
      <point x="-131" y="-235"/>
      <point x="-94" y="-235" type="curve" smooth="yes"/>
      <point x="-77" y="-235"/>
      <point x="-62" y="-230"/>
      <point x="-51" y="-221" type="curve"/>
    </contour>
    <contour>
      <point x="-94" y="-220" type="curve" smooth="yes"/>
      <point x="-124" y="-220"/>
      <point x="-138" y="-201"/>
      <point x="-138" y="-174" type="curve" smooth="yes"/>
      <point x="-138" y="-147"/>
      <point x="-124" y="-128"/>
      <point x="-94" y="-128" type="curve" smooth="yes"/>
      <point x="-64" y="-128"/>
      <point x="-50" y="-147"/>
      <point x="-50" y="-174" type="curve" smooth="yes" name="hr01"/>
      <point x="-50" y="-201"/>
      <point x="-64" y="-220"/>
    </contour>
    <contour>
      <point x="-30.0" y="0.0" type="move" name="_bottomright"/>
    </contour>
    <contour>
      <point x="-22.0" y="-251.0" type="move" name="bottomright"/>
    </contour>
  </outline>
</glyph>
<glyph name="saraUu-thai" format="1">
  <advance width="0"/>
  <unicode hex="0E39"/>
  <outline>
    <contour>
      <point x="-268" y="-235" type="curve" smooth="yes"/>
      <point x="-251" y="-235"/>
      <point x="-236" y="-230"/>
      <point x="-225" y="-221" type="curve"/>
      <point x="-225" y="-312" type="line" smooth="yes"/>
      <point x="-225" y="-326"/>
      <point x="-216" y="-335"/>
      <point x="-202" y="-335" type="curve" smooth="yes"/>
      <point x="-136" y="-335" type="line" smooth="yes"/>
      <point x="-69" y="-335"/>
      <point x="-30" y="-291"/>
      <point x="-30" y="-231" type="curve" smooth="yes"/>
      <point x="-30" y="-121" type="line"/>
      <point x="-51" y="-121" type="line"/>
      <point x="-51" y="-227" type="line" smooth="yes"/>
      <point x="-51" y="-284"/>
      <point x="-84" y="-317"/>
      <point x="-136" y="-317" type="curve" smooth="yes"/>
      <point x="-204" y="-317" type="line"/>
      <point x="-204" y="-174" type="line" smooth="yes"/>
      <point x="-204" y="-138"/>
      <point x="-231" y="-113"/>
      <point x="-268" y="-113" type="curve" smooth="yes"/>
      <point x="-305" y="-113"/>
      <point x="-331" y="-138"/>
      <point x="-331" y="-174" type="curve" smooth="yes"/>
      <point x="-331" y="-212"/>
      <point x="-305" y="-235"/>
    </contour>
    <contour>
      <point x="-268" y="-220" type="curve" smooth="yes"/>
      <point x="-298" y="-220"/>
      <point x="-312" y="-201"/>
      <point x="-312" y="-174" type="curve" smooth="yes"/>
      <point x="-312" y="-147"/>
      <point x="-298" y="-128"/>
      <point x="-268" y="-128" type="curve" smooth="yes"/>
      <point x="-238" y="-128"/>
      <point x="-224" y="-147"/>
      <point x="-224" y="-174" type="curve" smooth="yes" name="hr01"/>
      <point x="-224" y="-201"/>
      <point x="-238" y="-220"/>
    </contour>
    <contour>
      <point x="-30.0" y="0.0" type="move" name="_bottomright"/>
    </contour>
    <contour>
      <point x="-22.0" y="-251.0" type="move" name="bottomright"/>
    </contour>
  </outline>
</glyph>
<glyph name="phinthu-thai" format="1">
  <advance width="0"/>
  <unicode hex="0E3A"/>
  <outline>
    <contour>
      <point x="-53" y="-162" type="curve" name="hr00"/>
      <point x="-36" y="-162"/>
      <point x="-30" y="-152"/>
      <point x="-30" y="-141" type="curve"/>
      <point x="-30" y="-134" type="line" smooth="yes"/>
      <point x="-30" y="-123"/>
      <point x="-36" y="-113"/>
      <point x="-53" y="-113" type="curve"/>
      <point x="-70" y="-113"/>
      <point x="-76" y="-123"/>
      <point x="-76" y="-134" type="curve"/>
      <point x="-76" y="-141" type="line"/>
      <point x="-76" y="-152"/>
      <point x="-70" y="-162"/>
    </contour>
    <contour>
      <point x="-36.0" y="0.0" type="move" name="_bottomright"/>
    </contour>
    <contour>
      <point x="-36.0" y="-166.0" type="move" name="bottomright"/>
    </contour>
  </outline>
</glyph>
<glyph name="saraE-thai" format="1">
  <advance width="325"/>
  <unicode hex="0E40"/>
  <outline>
    <contour>
      <point x="190" y="-12" type="curve" smooth="yes" name="hr00"/>
      <point x="233" y="-12"/>
      <point x="265" y="17"/>
      <point x="265" y="62" type="curve" smooth="yes"/>
      <point x="265" y="107"/>
      <point x="233" y="136"/>
      <point x="190" y="136" type="curve" smooth="yes"/>
      <point x="167" y="136"/>
      <point x="148" y="127"/>
      <point x="136" y="113" type="curve"/>
      <point x="136" y="536" type="line"/>
      <point x="115" y="536" type="line"/>
      <point x="115" y="62" type="line" smooth="yes"/>
      <point x="115" y="17"/>
      <point x="147" y="-12"/>
    </contour>
    <contour>
      <point x="190" y="3" type="curve" smooth="yes"/>
      <point x="153" y="3"/>
      <point x="134" y="28"/>
      <point x="134" y="62" type="curve" smooth="yes"/>
      <point x="134" y="96"/>
      <point x="153" y="121"/>
      <point x="190" y="121" type="curve" smooth="yes"/>
      <point x="227" y="121"/>
      <point x="246" y="96"/>
      <point x="246" y="62" type="curve" smooth="yes"/>
      <point x="246" y="28"/>
      <point x="227" y="3"/>
    </contour>
    <contour>
      <point x="198.0" y="0.0" type="move" name="bottomright"/>
    </contour>
    <contour>
      <point x="136.0" y="600.0" type="move" name="topright"/>
    </contour>
  </outline>
</glyph>
<glyph name="saraO-thai" format="1">
  <advance width="365"/>
  <unicode hex="0E42"/>
  <outline>
    <contour>
      <point x="230" y="-12" type="curve" smooth="yes" name="hr00"/>
      <point x="273" y="-12"/>
      <point x="305" y="17"/>
      <point x="305" y="62" type="curve" smooth="yes"/>
      <point x="305" y="107"/>
      <point x="273" y="136"/>
      <point x="230" y="136" type="curve" smooth="yes"/>
      <point x="207" y="136"/>
      <point x="188" y="127"/>
      <point x="176" y="113" type="curve"/>
      <point x="176" y="616" type="line" smooth="yes"/>
      <point x="176" y="626"/>
      <point x="173" y="631"/>
      <point x="164" y="634" type="curve" smooth="yes"/>
      <point x="13" y="690" type="line"/>
      <point x="15" y="786"/>
      <point x="86" y="844"/>
      <point x="174" y="844" type="curve" smooth="yes"/>
      <point x="244" y="844"/>
      <point x="292" y="818"/>
      <point x="326" y="780" type="curve"/>
      <point x="340" y="793" type="line"/>
      <point x="310" y="828"/>
      <point x="256" y="862"/>
      <point x="174" y="862" type="curve" smooth="yes"/>
      <point x="76" y="862"/>
      <point x="-6" y="793"/>
      <point x="-6" y="688" type="curve" smooth="yes"/>
      <point x="-6" y="677" type="line"/>
      <point x="155" y="618" type="line"/>
      <point x="155" y="62" type="line" smooth="yes"/>
      <point x="155" y="17"/>
      <point x="187" y="-12"/>
    </contour>
    <contour>
      <point x="230" y="3" type="curve" smooth="yes"/>
      <point x="193" y="3"/>
      <point x="174" y="28"/>
      <point x="174" y="62" type="curve" smooth="yes"/>
      <point x="174" y="96"/>
      <point x="193" y="121"/>
      <point x="230" y="121" type="curve" smooth="yes"/>
      <point x="267" y="121"/>
      <point x="286" y="96"/>
      <point x="286" y="62" type="curve" smooth="yes"/>
      <point x="286" y="28"/>
      <point x="267" y="3"/>
    </contour>
    <contour>
      <point x="247.0" y="0.0" type="move" name="bottomright"/>
    </contour>
  </outline>
</glyph>
<glyph name="saraAiMaimuan-thai" format="1">
  <advance width="365"/>
  <unicode hex="0E43"/>
  <outline>
    <contour>
      <point x="230" y="-12" type="curve" smooth="yes"/>
      <point x="273" y="-12"/>
      <point x="305" y="17"/>
      <point x="305" y="62" type="curve" smooth="yes"/>
      <point x="305" y="107"/>
      <point x="273" y="136"/>
      <point x="230" y="136" type="curve" smooth="yes"/>
      <point x="207" y="136"/>
      <point x="188" y="127"/>
      <point x="176" y="113" type="curve"/>
      <point x="176" y="580" type="line"/>
      <point x="210" y="606" type="line" smooth="yes"/>
      <point x="272" y="653"/>
      <point x="297" y="690"/>
      <point x="297" y="745" type="curve" smooth="yes" name="hr01"/>
      <point x="297" y="818"/>
      <point x="238" y="862"/>
      <point x="158" y="862" type="curve" smooth="yes"/>
      <point x="75" y="862"/>
      <point x="24" y="814"/>
      <point x="5" y="750" type="curve"/>
      <point x="22" y="741" type="line"/>
      <point x="39" y="803"/>
      <point x="83" y="844"/>
      <point x="158" y="844" type="curve" smooth="yes"/>
      <point x="222" y="844"/>
      <point x="276" y="808"/>
      <point x="276" y="745" type="curve" smooth="yes"/>
      <point x="276" y="696"/>
      <point x="256" y="663"/>
      <point x="196" y="618" type="curve" smooth="yes"/>
      <point x="164" y="594" type="line" smooth="yes"/>
      <point x="156" y="588"/>
      <point x="155" y="581"/>
      <point x="155" y="569" type="curve" smooth="yes"/>
      <point x="155" y="62" type="line" smooth="yes"/>
      <point x="155" y="17"/>
      <point x="187" y="-12"/>
    </contour>
    <contour>
      <point x="230" y="3" type="curve" smooth="yes"/>
      <point x="193" y="3"/>
      <point x="174" y="28"/>
      <point x="174" y="62" type="curve" smooth="yes"/>
      <point x="174" y="96"/>
      <point x="193" y="121"/>
      <point x="230" y="121" type="curve" smooth="yes"/>
      <point x="267" y="121"/>
      <point x="286" y="96"/>
      <point x="286" y="62" type="curve" smooth="yes" name="hr02"/>
      <point x="286" y="28"/>
      <point x="267" y="3"/>
    </contour>
  </outline>
</glyph>
<glyph name="saraAiMaimalai-thai" format="1">
  <advance width="365"/>
  <unicode hex="0E44"/>
  <outline>
    <contour>
      <point x="230" y="-12" type="curve" smooth="yes"/>
      <point x="273" y="-12"/>
      <point x="305" y="17"/>
      <point x="305" y="62" type="curve" smooth="yes"/>
      <point x="305" y="107"/>
      <point x="273" y="136"/>
      <point x="230" y="136" type="curve" smooth="yes"/>
      <point x="207" y="136"/>
      <point x="188" y="127"/>
      <point x="176" y="113" type="curve"/>
      <point x="176" y="850" type="line"/>
      <point x="147" y="850" type="line"/>
      <point x="104" y="745" type="line"/>
      <point x="66" y="650" type="line"/>
      <point x="64" y="650" type="line"/>
      <point x="32" y="745" type="line"/>
      <point x="-4" y="850" type="line"/>
      <point x="-25" y="850" type="line"/>
      <point x="51" y="635" type="line"/>
      <point x="77" y="635" type="line"/>
      <point x="154" y="825" type="line"/>
      <point x="158" y="825" type="line"/>
      <point x="155" y="686" type="line"/>
      <point x="155" y="62" type="line" smooth="yes"/>
      <point x="155" y="17"/>
      <point x="187" y="-12"/>
    </contour>
    <contour>
      <point x="230" y="3" type="curve" smooth="yes"/>
      <point x="193" y="3"/>
      <point x="174" y="28"/>
      <point x="174" y="62" type="curve" smooth="yes" name="hr01"/>
      <point x="174" y="96"/>
      <point x="193" y="121"/>
      <point x="230" y="121" type="curve" smooth="yes"/>
      <point x="267" y="121"/>
      <point x="286" y="96"/>
      <point x="286" y="62" type="curve" smooth="yes"/>
      <point x="286" y="28"/>
      <point x="267" y="3"/>
    </contour>
  </outline>
</glyph>
<glyph name="maitaikhu-thai" format="1">
  <advance width="0"/>
  <unicode hex="0E47"/>
  <outline>
    <contour>
      <point x="-255" y="670" type="curve" smooth="yes" name="hr00"/>
      <point x="-222" y="670"/>
      <point x="-197" y="690"/>
      <point x="-189" y="733" type="curve"/>
      <point x="-186" y="733" type="line"/>
      <point x="-169" y="688"/>
      <point x="-135" y="670"/>
      <point x="-97" y="670" type="curve" smooth="yes"/>
      <point x="-57" y="670"/>
      <point x="-31" y="697"/>
      <point x="-31" y="735" type="curve" smooth="yes"/>
      <point x="-31" y="766"/>
      <point x="-51" y="787"/>
      <point x="-81" y="787" type="curve" smooth="yes"/>
      <point x="-111" y="787"/>
      <point x="-129" y="768"/>
      <point x="-129" y="740" type="curve" smooth="yes"/>
      <point x="-129" y="713"/>
      <point x="-111" y="695"/>
      <point x="-81" y="695" type="curve" smooth="yes"/>
      <point x="-71" y="695"/>
      <point x="-64" y="698"/>
      <point x="-57" y="703" type="curve"/>
      <point x="-55" y="701" type="line"/>
      <point x="-64" y="690"/>
      <point x="-78" y="685"/>
      <point x="-97" y="685" type="curve" smooth="yes"/>
      <point x="-151" y="685"/>
      <point x="-172" y="727"/>
      <point x="-179" y="766" type="curve"/>
      <point x="-195" y="766" type="line"/>
      <point x="-196" y="724"/>
      <point x="-212" y="685"/>
      <point x="-252" y="685" type="curve" smooth="yes"/>
      <point x="-291" y="685"/>
      <point x="-307" y="711"/>
      <point x="-307" y="747" type="curve" smooth="yes"/>
      <point x="-307" y="791"/>
      <point x="-279" y="817"/>
      <point x="-232" y="817" type="curve" smooth="yes"/>
      <point x="-68" y="817" type="line" smooth="yes"/>
      <point x="-54" y="817"/>
      <point x="-47" y="820"/>
      <point x="-44" y="834" type="curve" smooth="yes"/>
      <point x="-30" y="898" type="line"/>
      <point x="-49" y="901" type="line"/>
      <point x="-64" y="832" type="line"/>
      <point x="-228" y="832" type="line" smooth="yes"/>
      <point x="-293" y="832"/>
      <point x="-327" y="796"/>
      <point x="-327" y="747" type="curve" smooth="yes"/>
      <point x="-327" y="705"/>
      <point x="-301" y="670"/>
    </contour>
    <contour>
      <point x="-80" y="707" type="curve" smooth="yes"/>
      <point x="-101" y="707"/>
      <point x="-113" y="719"/>
      <point x="-113" y="740" type="curve" smooth="yes"/>
      <point x="-113" y="761"/>
      <point x="-101" y="773"/>
      <point x="-80" y="773" type="curve" smooth="yes"/>
      <point x="-59" y="773"/>
      <point x="-47" y="761"/>
      <point x="-47" y="740" type="curve" smooth="yes"/>
      <point x="-47" y="719"/>
      <point x="-59" y="707"/>
    </contour>
    <contour>
      <point x="-28.0" y="600.0" type="move" name="_topright"/>
    </contour>
    <contour>
      <point x="-168.0" y="840.0" type="move" name="topright"/>
    </contour>
  </outline>
</glyph>
<glyph name="maiEk-thai" format="1">
  <advance width="0"/>
  <unicode hex="0E48"/>
  <outline>
    <contour>
      <point x="-50" y="814" type="line" name="hr00"/>
      <point x="-48" y="678" type="line"/>
      <point x="-32" y="678" type="line"/>
      <point x="-30" y="814" type="line"/>
    </contour>
    <contour>
      <point x="-30.0" y="600.0" type="move" name="_topright"/>
    </contour>
    <contour>
      <point x="-30.0" y="840.0" type="move" name="topright"/>
    </contour>
  </outline>
</glyph>
<glyph name="maiTho-thai" format="1">
  <advance width="0"/>
  <unicode hex="0E49"/>
  <outline>
    <contour>
      <point x="-291" y="678" type="line" name="hr00"/>
      <point x="-98" y="678" type="line" smooth="yes"/>
      <point x="-84" y="678"/>
      <point x="-78" y="683"/>
      <point x="-71" y="700" type="curve" smooth="yes"/>
      <point x="-30" y="801" type="line"/>
      <point x="-49" y="801" type="line"/>
      <point x="-91" y="693" type="line"/>
      <point x="-252" y="693" type="line"/>
      <point x="-252" y="696" type="line"/>
      <point x="-200" y="724"/>
      <point x="-171" y="740"/>
      <point x="-171" y="781" type="curve" smooth="yes"/>
      <point x="-171" y="819"/>
      <point x="-198" y="844"/>
      <point x="-237" y="844" type="curve" smooth="yes"/>
      <point x="-276" y="844"/>
      <point x="-303" y="819"/>
      <point x="-303" y="781" type="curve" smooth="yes"/>
      <point x="-303" y="744"/>
      <point x="-275" y="717"/>
      <point x="-230" y="722" type="curve"/>
      <point x="-230" y="721" type="line"/>
      <point x="-291" y="687" type="line"/>
    </contour>
    <contour>
      <point x="-237" y="733" type="curve" smooth="yes"/>
      <point x="-265" y="733"/>
      <point x="-283" y="751"/>
      <point x="-283" y="781" type="curve" smooth="yes"/>
      <point x="-283" y="811"/>
      <point x="-265" y="829"/>
      <point x="-237" y="829" type="curve" smooth="yes"/>
      <point x="-209" y="829"/>
      <point x="-191" y="811"/>
      <point x="-191" y="781" type="curve" smooth="yes"/>
      <point x="-191" y="751"/>
      <point x="-209" y="733"/>
    </contour>
    <contour>
      <point x="-97.0" y="600.0" type="move" name="_topright"/>
    </contour>
    <contour>
      <point x="-97.0" y="840.0" type="move" name="topright"/>
    </contour>
  </outline>
</glyph>
<glyph name="maiTri-thai" format="1">
  <advance width="0"/>
  <unicode hex="0E4A"/>
  <outline>
    <contour>
      <point x="-347" y="670" type="curve" smooth="yes"/>
      <point x="-320" y="670"/>
      <point x="-297" y="689"/>
      <point x="-297" y="717" type="curve" smooth="yes"/>
      <point x="-297" y="745"/>
      <point x="-318" y="764"/>
      <point x="-345" y="764" type="curve" smooth="yes"/>
      <point x="-361" y="764"/>
      <point x="-376" y="756"/>
      <point x="-383" y="746" type="curve"/>
      <point x="-383" y="757" type="line" smooth="yes"/>
      <point x="-383" y="788"/>
      <point x="-363" y="806"/>
      <point x="-335" y="806" type="curve" smooth="yes"/>
      <point x="-300" y="806"/>
      <point x="-284" y="788"/>
      <point x="-278" y="745" type="curve"/>
      <point x="-260" y="745" type="line"/>
      <point x="-254" y="788"/>
      <point x="-238" y="806"/>
      <point x="-203" y="806" type="curve" smooth="yes"/>
      <point x="-170" y="806"/>
      <point x="-148" y="781"/>
      <point x="-157" y="738" type="curve" smooth="yes"/>
      <point x="-169" y="678" type="line" name="hr01"/>
      <point x="-74" y="678" type="line" smooth="yes"/>
      <point x="-60" y="678"/>
      <point x="-53" y="685"/>
      <point x="-50" y="700" type="curve" smooth="yes"/>
      <point x="-30" y="802" type="line"/>
      <point x="-48" y="802" type="line"/>
      <point x="-69" y="693" type="line"/>
      <point x="-153" y="693" type="line"/>
      <point x="-153" y="695" type="line"/>
      <point x="-143" y="711"/>
      <point x="-136" y="734"/>
      <point x="-136" y="757" type="curve" smooth="yes"/>
      <point x="-136" y="792"/>
      <point x="-158" y="822"/>
      <point x="-202" y="822" type="curve" smooth="yes"/>
      <point x="-237" y="822"/>
      <point x="-258" y="803"/>
      <point x="-267" y="771" type="curve"/>
      <point x="-270" y="771" type="line"/>
      <point x="-280" y="803"/>
      <point x="-301" y="822"/>
      <point x="-336" y="822" type="curve" smooth="yes"/>
      <point x="-380" y="822"/>
      <point x="-402" y="791"/>
      <point x="-402" y="746" type="curve" smooth="yes"/>
      <point x="-402" y="699"/>
      <point x="-381" y="670"/>
    </contour>
    <contour>
      <point x="-347" y="684" type="curve" smooth="yes"/>
      <point x="-367" y="684"/>
      <point x="-380" y="696"/>
      <point x="-380" y="717" type="curve" smooth="yes"/>
      <point x="-380" y="738"/>
      <point x="-367" y="750"/>
      <point x="-347" y="750" type="curve" smooth="yes"/>
      <point x="-327" y="750"/>
      <point x="-314" y="738"/>
      <point x="-314" y="717" type="curve" smooth="yes"/>
      <point x="-314" y="696"/>
      <point x="-327" y="684"/>
    </contour>
    <contour>
      <point x="-116.0" y="600.0" type="move" name="_topright"/>
    </contour>
    <contour>
      <point x="-146.0" y="800.0" type="move" name="topright"/>
    </contour>
  </outline>
</glyph>
<glyph name="maiChattawa-thai" format="1">
  <advance width="0"/>
  <unicode hex="0E4B"/>
  <outline>
    <contour>
      <point x="-30" y="769" type="line" name="hr00"/>
      <point x="-30" y="787" type="line"/>
      <point x="-124" y="784" type="line"/>
      <point x="-121" y="878" type="line"/>
      <point x="-141" y="878" type="line"/>
      <point x="-138" y="784" type="line"/>
      <point x="-232" y="787" type="line"/>
      <point x="-232" y="769" type="line"/>
      <point x="-138" y="772" type="line"/>
      <point x="-141" y="678" type="line"/>
      <point x="-121" y="678" type="line"/>
      <point x="-124" y="772" type="line"/>
    </contour>
    <contour>
      <point x="-121.0" y="600.0" type="move" name="_topright"/>
    </contour>
  </outline>
</glyph>
<glyph name="thanthakhat-thai" format="1">
  <advance width="0"/>
  <unicode hex="0E4C"/>
  <outline>
    <contour>
      <point x="-242" y="669" type="curve" smooth="yes"/>
      <point x="-192" y="669"/>
      <point x="-163" y="701"/>
      <point x="-163" y="746" type="curve" smooth="yes"/>
      <point x="-163" y="777"/>
      <point x="-178" y="802"/>
      <point x="-208" y="811" type="curve"/>
      <point x="-208" y="813" type="line"/>
      <point x="-178" y="813" type="line"/>
      <point x="-68" y="813" type="line" smooth="yes"/>
      <point x="-54" y="813"/>
      <point x="-47" y="816"/>
      <point x="-44" y="830" type="curve" smooth="yes"/>
      <point x="-30" y="894" type="line"/>
      <point x="-49" y="897" type="line"/>
      <point x="-64" y="828" type="line"/>
      <point x="-213" y="828" type="line" smooth="yes"/>
      <point x="-294" y="828"/>
      <point x="-321" y="794"/>
      <point x="-321" y="746" type="curve" smooth="yes"/>
      <point x="-321" y="701"/>
      <point x="-292" y="669"/>
    </contour>
    <contour>
      <point x="-242" y="684" type="curve" smooth="yes"/>
      <point x="-282" y="684"/>
      <point x="-301" y="710"/>
      <point x="-301" y="746" type="curve" smooth="yes"/>
      <point x="-301" y="782"/>
      <point x="-282" y="808"/>
      <point x="-242" y="808" type="curve" smooth="yes" name="hr01"/>
      <point x="-202" y="808"/>
      <point x="-183" y="782"/>
      <point x="-183" y="746" type="curve" smooth="yes"/>
      <point x="-183" y="710"/>
      <point x="-202" y="684"/>
    </contour>
    <contour>
      <point x="-192.0" y="600.0" type="move" name="_topright"/>
    </contour>
  </outline>
</glyph>
<glyph name="nikhahit-thai" format="1">
  <advance width="0"/>
  <unicode hex="0E4D"/>
  <outline>
    <contour>
      <point x="-107" y="677" type="curve" smooth="yes" name="hr00"/>
      <point x="-62" y="677"/>
      <point x="-30" y="708"/>
      <point x="-30" y="753" type="curve" smooth="yes"/>
      <point x="-30" y="798"/>
      <point x="-62" y="829"/>
      <point x="-107" y="829" type="curve" smooth="yes"/>
      <point x="-152" y="829"/>
      <point x="-184" y="798"/>
      <point x="-184" y="753" type="curve" smooth="yes"/>
      <point x="-184" y="708"/>
      <point x="-152" y="677"/>
    </contour>
    <contour>
      <point x="-107" y="692" type="curve" smooth="yes"/>
      <point x="-143" y="692"/>
      <point x="-164" y="714"/>
      <point x="-164" y="746" type="curve" smooth="yes"/>
      <point x="-164" y="760" type="line" smooth="yes"/>
      <point x="-164" y="792"/>
      <point x="-143" y="814"/>
      <point x="-107" y="814" type="curve" smooth="yes"/>
      <point x="-71" y="814"/>
      <point x="-50" y="792"/>
      <point x="-50" y="760" type="curve" smooth="yes"/>
      <point x="-50" y="746" type="line" smooth="yes"/>
      <point x="-50" y="714"/>
      <point x="-71" y="692"/>
    </contour>
    <contour>
      <point x="-98.0" y="600.0" type="move" name="_topright"/>
    </contour>
    <contour>
      <point x="-98.0" y="840.0" type="move" name="topright"/>
    </contour>
  </outline>
</glyph>
<glyph name="yamakkan-thai" format="1">
  <advance width="0"/>
  <unicode hex="0E4E"/>
  <outline>
    <contour>
      <point x="-78" y="678" type="line" name="hr00"/>
      <point x="-78" y="693" type="line"/>
      <point x="-126" y="693" type="line" smooth="yes"/>
      <point x="-165" y="693"/>
      <point x="-183" y="711"/>
      <point x="-183" y="743" type="curve" smooth="yes"/>
      <point x="-183" y="780"/>
      <point x="-158" y="802"/>
      <point x="-106" y="802" type="curve" smooth="yes"/>
      <point x="-55" y="802" type="line"/>
      <point x="-55" y="817" type="line"/>
      <point x="-81" y="817" type="line" smooth="yes"/>
      <point x="-131" y="817"/>
      <point x="-151" y="838"/>
      <point x="-151" y="871" type="curve" smooth="yes"/>
      <point x="-151" y="899"/>
      <point x="-128" y="920"/>
      <point x="-92" y="920" type="curve" smooth="yes"/>
      <point x="-69" y="920"/>
      <point x="-50" y="914"/>
      <point x="-38" y="905" type="curve"/>
      <point x="-30" y="918" type="line"/>
      <point x="-45" y="928"/>
      <point x="-65" y="935"/>
      <point x="-92" y="935" type="curve" smooth="yes"/>
      <point x="-138" y="935"/>
      <point x="-171" y="910"/>
      <point x="-171" y="871" type="curve" smooth="yes"/>
      <point x="-171" y="834"/>
      <point x="-144" y="819"/>
      <point x="-117" y="812" type="curve"/>
      <point x="-117" y="810" type="line"/>
      <point x="-173" y="810"/>
      <point x="-203" y="777"/>
      <point x="-203" y="743" type="curve" smooth="yes"/>
      <point x="-203" y="700"/>
      <point x="-175" y="678"/>
      <point x="-126" y="678" type="curve" smooth="yes"/>
    </contour>
    <contour>
      <point x="-78.0" y="600.0" type="move" name="_topright"/>
    </contour>
  </outline>
</glyph>
<glyph name="one-thai" format="1">
  <advance width="618"/>
  <unicode hex="0E51"/>
  <outline>
    <contour>
      <point x="293" y="500" type="curve" smooth="yes" name="hr00"/>
      <point x="145" y="500"/>
      <point x="68" y="416"/>
      <point x="68" y="310" type="curve" smooth="yes"/>
      <point x="68" y="208"/>
      <point x="128" y="135"/>
      <point x="214" y="135" type="curve" smooth="yes"/>
      <point x="258" y="135"/>
      <point x="289" y="165"/>
      <point x="289" y="209" type="curve" smooth="yes"/>
      <point x="289" y="253"/>
      <point x="258" y="283"/>
      <point x="214" y="283" type="curve" smooth="yes"/>
      <point x="170" y="283"/>
      <point x="139" y="253"/>
      <point x="139" y="209" type="curve" smooth="yes"/>
      <point x="139" y="193"/>
      <point x="145" y="178"/>
      <point x="155" y="166" type="curve"/>
      <point x="153" y="164" type="line"/>
      <point x="115" y="188"/>
      <point x="91" y="239"/>
      <point x="91" y="301" type="curve" smooth="yes"/>
      <point x="91" y="318" type="line" smooth="yes"/>
      <point x="91" y="396"/>
      <point x="149" y="482"/>
      <point x="293" y="482" type="curve" smooth="yes"/>
      <point x="423" y="482"/>
      <point x="509" y="410"/>
      <point x="509" y="273" type="curve" smooth="yes"/>
      <point x="509" y="252" type="line" smooth="yes"/>
      <point x="509" y="69"/>
      <point x="350" y="5"/>
      <point x="198" y="5" type="curve"/>
      <point x="198" y="-10" type="line"/>
      <point x="358" y="-11"/>
      <point x="532" y="59"/>
      <point x="532" y="262" type="curve" smooth="yes"/>
      <point x="532" y="427"/>
      <point x="435" y="500"/>
    </contour>
    <contour>
      <point x="214" y="150" type="curve" smooth="yes"/>
      <point x="179" y="150"/>
      <point x="158" y="173"/>
      <point x="158" y="209" type="curve" smooth="yes"/>
      <point x="158" y="245"/>
      <point x="179" y="268"/>
      <point x="214" y="268" type="curve" smooth="yes"/>
      <point x="249" y="268"/>
      <point x="270" y="245"/>
      <point x="270" y="209" type="curve" smooth="yes"/>
      <point x="270" y="173"/>
      <point x="249" y="150"/>
    </contour>
  </outline>
</glyph>
<glyph name="three-thai" format="1">
  <advance width="770"/>
  <unicode hex="0E53"/>
  <outline>
    <contour>
      <point x="212" y="-13" type="curve" smooth="yes"/>
      <point x="255" y="-13"/>
      <point x="287" y="16"/>
      <point x="287" y="61" type="curve" smooth="yes"/>
      <point x="287" y="106"/>
      <point x="255" y="135"/>
      <point x="212" y="135" type="curve" smooth="yes"/>
      <point x="173" y="135"/>
      <point x="142" y="112"/>
      <point x="140" y="68" type="curve"/>
      <point x="133" y="90"/>
      <point x="128" y="122"/>
      <point x="128" y="198" type="curve" smooth="yes"/>
      <point x="128" y="304" type="line" smooth="yes"/>
      <point x="128" y="415"/>
      <point x="171" y="482"/>
      <point x="259" y="482" type="curve" smooth="yes"/>
      <point x="340" y="482"/>
      <point x="382" y="425"/>
      <point x="382" y="362" type="curve" smooth="yes"/>
      <point x="382" y="159" type="line"/>
      <point x="402" y="159" type="line"/>
      <point x="402" y="362" type="line" smooth="yes"/>
      <point x="402" y="425"/>
      <point x="445" y="482"/>
      <point x="531" y="482" type="curve" smooth="yes"/>
      <point x="616" y="482"/>
      <point x="652" y="428"/>
      <point x="652" y="354" type="curve" smooth="yes"/>
      <point x="652" y="0" type="line" name="hr01"/>
      <point x="673" y="0" type="line"/>
      <point x="673" y="360" type="line" smooth="yes"/>
      <point x="673" y="442"/>
      <point x="624" y="500"/>
      <point x="531" y="500" type="curve" smooth="yes"/>
      <point x="442" y="500"/>
      <point x="401" y="447"/>
      <point x="395" y="406" type="curve"/>
      <point x="392" y="406" type="line"/>
      <point x="386" y="447"/>
      <point x="342" y="500"/>
      <point x="259" y="500" type="curve" smooth="yes"/>
      <point x="164" y="500"/>
      <point x="107" y="430"/>
      <point x="107" y="304" type="curve" smooth="yes"/>
      <point x="107" y="191" type="line" smooth="yes"/>
      <point x="107" y="45"/>
      <point x="149" y="-13"/>
    </contour>
    <contour>
      <point x="212" y="2" type="curve" smooth="yes"/>
      <point x="175" y="2"/>
      <point x="156" y="27"/>
      <point x="156" y="61" type="curve" smooth="yes"/>
      <point x="156" y="95"/>
      <point x="175" y="120"/>
      <point x="212" y="120" type="curve" smooth="yes"/>
      <point x="249" y="120"/>
      <point x="268" y="95"/>
      <point x="268" y="61" type="curve" smooth="yes"/>
      <point x="268" y="27"/>
      <point x="249" y="2"/>
    </contour>
  </outline>
</glyph>
<glyph name="four-thai" format="1">
  <advance width="629"/>
  <unicode hex="0E54"/>
  <outline>
    <contour>
      <point x="441" y="301" type="curve" smooth="yes" name="hr00"/>
      <point x="395" y="301"/>
      <point x="362" y="270"/>
      <point x="362" y="226" type="curve" smooth="yes"/>
      <point x="362" y="191" type="line" smooth="yes"/>
      <point x="362" y="93"/>
      <point x="419" y="36"/>
      <point x="486" y="22" type="curve"/>
      <point x="486" y="18" type="line"/>
      <point x="324" y="18" type="line" smooth="yes"/>
      <point x="194" y="18"/>
      <point x="110" y="83"/>
      <point x="110" y="203" type="curve" smooth="yes"/>
      <point x="110" y="244" type="line" smooth="yes"/>
      <point x="110" y="329"/>
      <point x="163" y="396"/>
      <point x="281" y="422" type="curve" smooth="yes"/>
      <point x="479" y="466" type="line" smooth="yes"/>
      <point x="515" y="474"/>
      <point x="521" y="477"/>
      <point x="525" y="503" type="curve" smooth="yes"/>
      <point x="536" y="569" type="line"/>
      <point x="513" y="569" type="line"/>
      <point x="502" y="488" type="line"/>
      <point x="283" y="440" type="line" smooth="yes"/>
      <point x="154" y="412"/>
      <point x="87" y="349"/>
      <point x="87" y="223" type="curve" smooth="yes"/>
      <point x="87" y="65"/>
      <point x="181" y="0"/>
      <point x="324" y="0" type="curve" smooth="yes"/>
      <point x="576" y="0" type="line"/>
      <point x="576" y="18" type="line"/>
      <point x="574" y="18" type="line" smooth="yes"/>
      <point x="452" y="18"/>
      <point x="389" y="90"/>
      <point x="382" y="172" type="curve"/>
      <point x="396" y="159"/>
      <point x="416" y="151"/>
      <point x="441" y="151" type="curve" smooth="yes"/>
      <point x="487" y="151"/>
      <point x="520" y="182"/>
      <point x="520" y="226" type="curve" smooth="yes"/>
      <point x="520" y="270"/>
      <point x="487" y="301"/>
    </contour>
    <contour>
      <point x="441" y="166" type="curve" smooth="yes"/>
      <point x="401" y="166"/>
      <point x="382" y="191"/>
      <point x="382" y="226" type="curve" smooth="yes"/>
      <point x="382" y="261"/>
      <point x="401" y="286"/>
      <point x="441" y="286" type="curve" smooth="yes"/>
      <point x="481" y="286"/>
      <point x="500" y="261"/>
      <point x="500" y="226" type="curve" smooth="yes"/>
      <point x="500" y="191"/>
      <point x="481" y="166"/>
    </contour>
  </outline>
</glyph>
<glyph name="five-thai" format="1">
  <advance width="629"/>
  <unicode hex="0E55"/>
  <outline>
    <contour>
      <point x="441" y="301" type="curve" smooth="yes" name="hr00"/>
      <point x="395" y="301"/>
      <point x="362" y="270"/>
      <point x="362" y="226" type="curve" smooth="yes"/>
      <point x="362" y="191" type="line" smooth="yes"/>
      <point x="362" y="93"/>
      <point x="419" y="36"/>
      <point x="486" y="22" type="curve"/>
      <point x="486" y="18" type="line"/>
      <point x="324" y="18" type="line" smooth="yes"/>
      <point x="194" y="18"/>
      <point x="110" y="83"/>
      <point x="110" y="203" type="curve" smooth="yes"/>
      <point x="110" y="244" type="line" smooth="yes"/>
      <point x="110" y="329"/>
      <point x="163" y="396"/>
      <point x="281" y="422" type="curve" smooth="yes"/>
      <point x="479" y="466" type="line" smooth="yes"/>
      <point x="515" y="474"/>
      <point x="521" y="477"/>
      <point x="525" y="503" type="curve" smooth="yes"/>
      <point x="536" y="569" type="line"/>
      <point x="513" y="569" type="line"/>
      <point x="502" y="488" type="line"/>
      <point x="346" y="454" type="line"/>
      <point x="356" y="465"/>
      <point x="361" y="480"/>
      <point x="361" y="496" type="curve" smooth="yes"/>
      <point x="361" y="533"/>
      <point x="333" y="561"/>
      <point x="291" y="561" type="curve" smooth="yes"/>
      <point x="249" y="561"/>
      <point x="221" y="533"/>
      <point x="221" y="496" type="curve" smooth="yes"/>
      <point x="221" y="467"/>
      <point x="237" y="445"/>
      <point x="264" y="435" type="curve"/>
      <point x="147" y="405"/>
      <point x="87" y="342"/>
      <point x="87" y="223" type="curve" smooth="yes"/>
      <point x="87" y="65"/>
      <point x="181" y="0"/>
      <point x="324" y="0" type="curve" smooth="yes"/>
      <point x="576" y="0" type="line"/>
      <point x="576" y="18" type="line"/>
      <point x="574" y="18" type="line" smooth="yes"/>
      <point x="452" y="18"/>
      <point x="389" y="90"/>
      <point x="382" y="172" type="curve"/>
      <point x="396" y="159"/>
      <point x="416" y="151"/>
      <point x="441" y="151" type="curve" smooth="yes"/>
      <point x="487" y="151"/>
      <point x="520" y="182"/>
      <point x="520" y="226" type="curve" smooth="yes"/>
      <point x="520" y="270"/>
      <point x="487" y="301"/>
    </contour>
    <contour>
      <point x="441" y="166" type="curve" smooth="yes"/>
      <point x="401" y="166"/>
      <point x="382" y="191"/>
      <point x="382" y="226" type="curve" smooth="yes"/>
      <point x="382" y="261"/>
      <point x="401" y="286"/>
      <point x="441" y="286" type="curve" smooth="yes"/>
      <point x="481" y="286"/>
      <point x="500" y="261"/>
      <point x="500" y="226" type="curve" smooth="yes"/>
      <point x="500" y="191"/>
      <point x="481" y="166"/>
    </contour>
    <contour>
      <point x="291" y="443" type="curve" smooth="yes"/>
      <point x="261" y="443"/>
      <point x="241" y="461"/>
      <point x="241" y="484" type="curve" smooth="yes"/>
      <point x="241" y="505" type="line" smooth="yes"/>
      <point x="241" y="528"/>
      <point x="261" y="546"/>
      <point x="291" y="546" type="curve" smooth="yes"/>
      <point x="321" y="546"/>
      <point x="341" y="528"/>
      <point x="341" y="505" type="curve" smooth="yes"/>
      <point x="341" y="484" type="line" smooth="yes"/>
      <point x="341" y="461"/>
      <point x="321" y="443"/>
    </contour>
  </outline>
</glyph>
<glyph name="six-thai" format="1">
  <advance width="666"/>
  <unicode hex="0E56"/>
  <outline>
    <contour>
      <point x="319" y="-12" type="curve" smooth="yes" name="hr00"/>
      <point x="481" y="-12"/>
      <point x="580" y="77"/>
      <point x="580" y="249" type="curve" smooth="yes"/>
      <point x="580" y="421"/>
      <point x="481" y="500"/>
      <point x="338" y="500" type="curve" smooth="yes"/>
      <point x="223" y="500"/>
      <point x="137" y="446"/>
      <point x="117" y="366" type="curve"/>
      <point x="113" y="366" type="line"/>
      <point x="77" y="569" type="line"/>
      <point x="55" y="569" type="line"/>
      <point x="103" y="330" type="line"/>
      <point x="122" y="330" type="line"/>
      <point x="138" y="425"/>
      <point x="218" y="482"/>
      <point x="338" y="482" type="curve" smooth="yes"/>
      <point x="472" y="482"/>
      <point x="557" y="406"/>
      <point x="557" y="274" type="curve" smooth="yes"/>
      <point x="557" y="224" type="line" smooth="yes"/>
      <point x="557" y="92"/>
      <point x="472" y="6"/>
      <point x="319" y="6" type="curve" smooth="yes"/>
      <point x="219" y="6"/>
      <point x="156" y="48"/>
      <point x="131" y="103" type="curve"/>
      <point x="132" y="103" type="line"/>
      <point x="143" y="92"/>
      <point x="160" y="85"/>
      <point x="181" y="85" type="curve" smooth="yes"/>
      <point x="224" y="85"/>
      <point x="255" y="116"/>
      <point x="255" y="159" type="curve" smooth="yes"/>
      <point x="255" y="202"/>
      <point x="224" y="233"/>
      <point x="181" y="233" type="curve" smooth="yes"/>
      <point x="136" y="233"/>
      <point x="107" y="198"/>
      <point x="107" y="150" type="curve" smooth="yes"/>
      <point x="107" y="65"/>
      <point x="186" y="-12"/>
    </contour>
    <contour>
      <point x="181" y="100" type="curve" smooth="yes"/>
      <point x="146" y="100"/>
      <point x="126" y="124"/>
      <point x="126" y="159" type="curve" smooth="yes"/>
      <point x="126" y="194"/>
      <point x="146" y="218"/>
      <point x="181" y="218" type="curve" smooth="yes"/>
      <point x="216" y="218"/>
      <point x="236" y="194"/>
      <point x="236" y="159" type="curve" smooth="yes"/>
      <point x="236" y="124"/>
      <point x="216" y="100"/>
    </contour>
  </outline>
</glyph>
<glyph name="seven-thai" format="1">
  <advance width="908"/>
  <unicode hex="0E57"/>
  <outline>
    <contour>
      <point x="212" y="-13" type="curve" smooth="yes"/>
      <point x="255" y="-13"/>
      <point x="287" y="16"/>
      <point x="287" y="61" type="curve" smooth="yes"/>
      <point x="287" y="106"/>
      <point x="255" y="135"/>
      <point x="212" y="135" type="curve" smooth="yes"/>
      <point x="173" y="135"/>
      <point x="142" y="112"/>
      <point x="140" y="68" type="curve"/>
      <point x="133" y="90"/>
      <point x="128" y="122"/>
      <point x="128" y="198" type="curve" smooth="yes"/>
      <point x="128" y="304" type="line" smooth="yes"/>
      <point x="128" y="414"/>
      <point x="160" y="482"/>
      <point x="248" y="482" type="curve" smooth="yes"/>
      <point x="327" y="482"/>
      <point x="346" y="426"/>
      <point x="348" y="362" type="curve"/>
      <point x="365" y="362" type="line"/>
      <point x="367" y="426"/>
      <point x="388" y="482"/>
      <point x="469" y="482" type="curve" smooth="yes"/>
      <point x="542" y="482"/>
      <point x="567" y="427"/>
      <point x="567" y="349" type="curve" smooth="yes"/>
      <point x="567" y="0" type="line" name="hr01"/>
      <point x="632" y="0" type="line" smooth="yes"/>
      <point x="746" y="0"/>
      <point x="811" y="63"/>
      <point x="811" y="173" type="curve" smooth="yes"/>
      <point x="811" y="569" type="line"/>
      <point x="790" y="569" type="line"/>
      <point x="790" y="177" type="line" smooth="yes"/>
      <point x="790" y="71"/>
      <point x="731" y="19"/>
      <point x="632" y="19" type="curve" smooth="yes"/>
      <point x="588" y="19" type="line"/>
      <point x="588" y="356" type="line" smooth="yes"/>
      <point x="588" y="446"/>
      <point x="552" y="500"/>
      <point x="469" y="500" type="curve" smooth="yes"/>
      <point x="389" y="500"/>
      <point x="364" y="450"/>
      <point x="358" y="406" type="curve"/>
      <point x="355" y="406" type="line"/>
      <point x="349" y="450"/>
      <point x="325" y="500"/>
      <point x="248" y="500" type="curve" smooth="yes"/>
      <point x="152" y="500"/>
      <point x="107" y="429"/>
      <point x="107" y="304" type="curve" smooth="yes"/>
      <point x="107" y="191" type="line" smooth="yes"/>
      <point x="107" y="45"/>
      <point x="149" y="-13"/>
    </contour>
    <contour>
      <point x="212" y="2" type="curve" smooth="yes"/>
      <point x="175" y="2"/>
      <point x="156" y="27"/>
      <point x="156" y="61" type="curve" smooth="yes"/>
      <point x="156" y="95"/>
      <point x="175" y="120"/>
      <point x="212" y="120" type="curve" smooth="yes"/>
      <point x="249" y="120"/>
      <point x="268" y="95"/>
      <point x="268" y="61" type="curve" smooth="yes"/>
      <point x="268" y="27"/>
      <point x="249" y="2"/>
    </contour>
  </outline>
</glyph>
<glyph name="nine-thai" format="1">
  <advance width="694"/>
  <unicode hex="0E59"/>
  <outline>
    <contour>
      <point x="212" y="-13" type="curve" smooth="yes"/>
      <point x="255" y="-13"/>
      <point x="287" y="16"/>
      <point x="287" y="61" type="curve" smooth="yes"/>
      <point x="287" y="106"/>
      <point x="255" y="135"/>
      <point x="212" y="135" type="curve" smooth="yes"/>
      <point x="173" y="135"/>
      <point x="142" y="112"/>
      <point x="140" y="68" type="curve"/>
      <point x="133" y="90"/>
      <point x="128" y="122"/>
      <point x="128" y="198" type="curve" smooth="yes"/>
      <point x="128" y="304" type="line" smooth="yes"/>
      <point x="128" y="413"/>
      <point x="166" y="482"/>
      <point x="258" y="482" type="curve" smooth="yes"/>
      <point x="343" y="482"/>
      <point x="371" y="421"/>
      <point x="390" y="362" type="curve" smooth="yes"/>
      <point x="506" y="0" type="line" name="hr01"/>
      <point x="530" y="0" type="line"/>
      <point x="433" y="296" type="line" smooth="yes"/>
      <point x="388" y="432"/>
      <point x="448" y="482"/>
      <point x="508" y="482" type="curve" smooth="yes"/>
      <point x="571" y="482"/>
      <point x="613" y="429"/>
      <point x="613" y="331" type="curve"/>
      <point x="632" y="331" type="line"/>
      <point x="674" y="569" type="line"/>
      <point x="652" y="569" type="line"/>
      <point x="621" y="373" type="line"/>
      <point x="619" y="373" type="line"/>
      <point x="618" y="438"/>
      <point x="579" y="500"/>
      <point x="508" y="500" type="curve" smooth="yes"/>
      <point x="436" y="500"/>
      <point x="394" y="443"/>
      <point x="403" y="373" type="curve"/>
      <point x="400" y="373" type="line"/>
      <point x="385" y="436"/>
      <point x="342" y="500"/>
      <point x="259" y="500" type="curve" smooth="yes"/>
      <point x="153" y="500"/>
      <point x="107" y="428"/>
      <point x="107" y="304" type="curve" smooth="yes"/>
      <point x="107" y="191" type="line" smooth="yes"/>
      <point x="107" y="45"/>
      <point x="149" y="-13"/>
    </contour>
    <contour>
      <point x="212" y="2" type="curve" smooth="yes"/>
      <point x="175" y="2"/>
      <point x="156" y="27"/>
      <point x="156" y="61" type="curve" smooth="yes"/>
      <point x="156" y="95"/>
      <point x="175" y="120"/>
      <point x="212" y="120" type="curve" smooth="yes"/>
      <point x="249" y="120"/>
      <point x="268" y="95"/>
      <point x="268" y="61" type="curve" smooth="yes"/>
      <point x="268" y="27"/>
      <point x="249" y="2"/>
    </contour>
  </outline>
</glyph>
<glyph name="khomut-thai" format="1">
  <advance width="1488"/>
  <unicode hex="0E5B"/>
  <outline>
    <contour>
      <point x="350" y="-12" type="curve" smooth="yes" name="hr00"/>
      <point x="551" y="-12"/>
      <point x="652" y="149"/>
      <point x="693" y="449" type="curve"/>
      <point x="695" y="449" type="line"/>
      <point x="814" y="76" type="line"/>
      <point x="840" y="76" type="line"/>
      <point x="947" y="413" type="line"/>
      <point x="949" y="413" type="line"/>
      <point x="1046" y="108" type="line"/>
      <point x="1072" y="108" type="line"/>
      <point x="1162" y="392" type="line"/>
      <point x="1164" y="392" type="line"/>
      <point x="1202" y="285"/>
      <point x="1247" y="239"/>
      <point x="1334" y="239" type="curve" smooth="yes"/>
      <point x="1397" y="239" type="line"/>
      <point x="1397" y="257" type="line"/>
      <point x="1334" y="257" type="line" smooth="yes"/>
      <point x="1252" y="257"/>
      <point x="1211" y="301"/>
      <point x="1175" y="421" type="curve"/>
      <point x="1150" y="421" type="line"/>
      <point x="1060" y="138" type="line"/>
      <point x="1058" y="138" type="line"/>
      <point x="961" y="443" type="line"/>
      <point x="935" y="443" type="line"/>
      <point x="828" y="106" type="line"/>
      <point x="826" y="106" type="line"/>
      <point x="707" y="479" type="line"/>
      <point x="678" y="479" type="line"/>
      <point x="636" y="156"/>
      <point x="543" y="6"/>
      <point x="350" y="6" type="curve" smooth="yes"/>
      <point x="205" y="6"/>
      <point x="113" y="102"/>
      <point x="113" y="242" type="curve" smooth="yes"/>
      <point x="113" y="292" type="line" smooth="yes"/>
      <point x="113" y="426"/>
      <point x="191" y="530"/>
      <point x="331" y="530" type="curve" smooth="yes"/>
      <point x="427" y="530"/>
      <point x="487" y="487"/>
      <point x="510" y="430" type="curve"/>
      <point x="509" y="430" type="line"/>
      <point x="498" y="444"/>
      <point x="480" y="452"/>
      <point x="458" y="452" type="curve" smooth="yes"/>
      <point x="416" y="452"/>
      <point x="384" y="421"/>
      <point x="384" y="378" type="curve" smooth="yes"/>
      <point x="384" y="335"/>
      <point x="416" y="304"/>
      <point x="458" y="304" type="curve" smooth="yes"/>
      <point x="502" y="304"/>
      <point x="533" y="338"/>
      <point x="533" y="386" type="curve" smooth="yes"/>
      <point x="533" y="471"/>
      <point x="458" y="548"/>
      <point x="331" y="548" type="curve" smooth="yes"/>
      <point x="181" y="548"/>
      <point x="90" y="442"/>
      <point x="90" y="267" type="curve" smooth="yes"/>
      <point x="90" y="86"/>
      <point x="196" y="-12"/>
    </contour>
    <contour>
      <point x="459" y="319" type="curve" smooth="yes"/>
      <point x="425" y="319"/>
      <point x="403" y="343"/>
      <point x="403" y="378" type="curve" smooth="yes"/>
      <point x="403" y="413"/>
      <point x="425" y="437"/>
      <point x="459" y="437" type="curve" smooth="yes"/>
      <point x="493" y="437"/>
      <point x="515" y="413"/>
      <point x="515" y="378" type="curve" smooth="yes"/>
      <point x="515" y="343"/>
      <point x="493" y="319"/>
    </contour>
  </outline>
</glyph>
<glyph name="endash" format="1">
  <advance width="588"/>
  <unicode hex="2013"/>
  <outline>
    <contour>
      <point x="552" y="296" type="line" name="hr00"/>
      <point x="552" y="314" type="line"/>
      <point x="36" y="314" type="line"/>
      <point x="36" y="296" type="line"/>
    </contour>
  </outline>
</glyph>
<glyph name="fraction" format="1">
  <advance width="147"/>
  <unicode hex="2044"/>
  <outline>
    <contour>
      <point x="-138" y="0" type="line" name="hr00"/>
      <point x="309" y="698" type="line"/>
      <point x="287" y="698" type="line"/>
      <point x="-160" y="0" type="line"/>
    </contour>
  </outline>
</glyph>
<glyph name="arrowdownleftcorner" format="1">
  <advance width="746"/>
  <unicode hex="21B2"/>
  <outline>
    <contour>
      <point x="92" y="175" type="line" name="hr00"/>
      <point x="279" y="-12" type="line"/>
      <point x="294" y="3" type="line"/>
      <point x="183" y="114" type="line"/>
      <point x="129" y="164" type="line"/>
      <point x="130" y="166" type="line"/>
      <point x="238" y="165" type="line"/>
      <point x="566" y="165" type="line"/>
      <point x="566" y="698" type="line"/>
      <point x="546" y="698" type="line"/>
      <point x="546" y="185" type="line"/>
      <point x="238" y="185" type="line"/>
      <point x="130" y="184" type="line"/>
      <point x="129" y="186" type="line"/>
      <point x="183" y="236" type="line"/>
      <point x="294" y="347" type="line"/>
      <point x="279" y="362" type="line"/>
    </contour>
  </outline>
</glyph>
<glyph name="arrowdownrightcorner" format="1">
  <advance width="746"/>
  <unicode hex="21B3"/>
  <outline>
    <contour>
      <point x="654" y="175" type="line" name="hr00"/>
      <point x="467" y="362" type="line"/>
      <point x="452" y="347" type="line"/>
      <point x="563" y="236" type="line"/>
      <point x="617" y="186" type="line"/>
      <point x="616" y="184" type="line"/>
      <point x="508" y="185" type="line"/>
      <point x="200" y="185" type="line"/>
      <point x="200" y="698" type="line"/>
      <point x="180" y="698" type="line"/>
      <point x="180" y="165" type="line"/>
      <point x="508" y="165" type="line"/>
      <point x="616" y="166" type="line"/>
      <point x="617" y="164" type="line"/>
      <point x="563" y="114" type="line"/>
      <point x="452" y="3" type="line"/>
      <point x="467" y="-12" type="line"/>
    </contour>
  </outline>
</glyph>
<glyph name="angkhankhu_wisanchani-thai" format="1">
  <advance width="707"/>
  <unicode hex="EC03"/>
  <outline>
    <contour>
      <point x="568" y="0" type="line"/>
      <point x="589" y="0" type="line"/>
      <point x="589" y="536" type="line"/>
      <point x="568" y="536" type="line"/>
      <point x="568" y="453" type="line" smooth="yes"/>
      <point x="568" y="362"/>
      <point x="493" y="319"/>
      <point x="406" y="319" type="curve" smooth="yes"/>
      <point x="399" y="319" type="line"/>
      <point x="399" y="536" type="line"/>
      <point x="378" y="536" type="line"/>
      <point x="378" y="453" type="line" smooth="yes"/>
      <point x="378" y="362"/>
      <point x="303" y="319"/>
      <point x="216" y="319" type="curve" smooth="yes"/>
      <point x="183" y="319" type="line" smooth="yes"/>
      <point x="119" y="319"/>
      <point x="57" y="356"/>
      <point x="45" y="427" type="curve"/>
      <point x="47" y="428" type="line"/>
      <point x="58" y="410"/>
      <point x="77" y="400"/>
      <point x="103" y="400" type="curve" smooth="yes"/>
      <point x="146" y="400"/>
      <point x="178" y="429"/>
      <point x="178" y="474" type="curve" smooth="yes"/>
      <point x="178" y="519"/>
      <point x="146" y="548"/>
      <point x="103" y="548" type="curve" smooth="yes" name="hr01"/>
      <point x="60" y="548"/>
      <point x="28" y="519"/>
      <point x="28" y="474" type="curve" smooth="yes"/>
      <point x="28" y="453" type="line" smooth="yes"/>
      <point x="28" y="348"/>
      <point x="101" y="301"/>
      <point x="199" y="301" type="curve" smooth="yes"/>
      <point x="314" y="301"/>
      <point x="349" y="339"/>
      <point x="375" y="383" type="curve"/>
      <point x="378" y="383" type="line"/>
      <point x="378" y="0" type="line"/>
      <point x="399" y="0" type="line"/>
      <point x="399" y="301" type="line"/>
      <point x="506" y="303"/>
      <point x="540" y="340"/>
      <point x="565" y="383" type="curve"/>
      <point x="568" y="383" type="line"/>
    </contour>
    <contour>
      <point x="103" y="415" type="curve" smooth="yes"/>
      <point x="66" y="415"/>
      <point x="46" y="440"/>
      <point x="46" y="474" type="curve" smooth="yes"/>
      <point x="46" y="508"/>
      <point x="66" y="533"/>
      <point x="103" y="533" type="curve" smooth="yes"/>
      <point x="140" y="533"/>
      <point x="160" y="508"/>
      <point x="160" y="474" type="curve" smooth="yes"/>
      <point x="160" y="440"/>
      <point x="140" y="415"/>
    </contour>
  </outline>
</glyph>
<glyph name="tripleWisanchani-thai" format="1">
  <advance width="689"/>
  <unicode hex="EC04"/>
  <outline>
    <contour>
      <point x="60" y="418" type="curve" smooth="yes" name="hr00"/>
      <point x="60" y="364"/>
      <point x="107" y="340"/>
      <point x="189" y="340" type="curve" smooth="yes"/>
      <point x="266" y="340"/>
      <point x="333" y="370"/>
      <point x="333" y="465" type="curve" smooth="yes"/>
      <point x="333" y="475" type="line"/>
      <point x="314" y="475" type="line"/>
      <point x="314" y="465" type="line" smooth="yes"/>
      <point x="314" y="382"/>
      <point x="255" y="357"/>
      <point x="204" y="357" type="curve" smooth="yes"/>
      <point x="175" y="357" type="line" smooth="yes"/>
      <point x="163" y="357"/>
      <point x="153" y="357"/>
      <point x="144" y="359" type="curve"/>
      <point x="144" y="360" type="line"/>
      <point x="172" y="366"/>
      <point x="190" y="390"/>
      <point x="190" y="418" type="curve" smooth="yes"/>
      <point x="190" y="456"/>
      <point x="163" y="481"/>
      <point x="125" y="481" type="curve" smooth="yes"/>
      <point x="87" y="481"/>
      <point x="60" y="456"/>
    </contour>
    <contour>
      <point x="60" y="183" type="curve" smooth="yes"/>
      <point x="60" y="129"/>
      <point x="107" y="105"/>
      <point x="189" y="105" type="curve" smooth="yes"/>
      <point x="266" y="105"/>
      <point x="333" y="135"/>
      <point x="333" y="230" type="curve" smooth="yes"/>
      <point x="333" y="240" type="line"/>
      <point x="314" y="240" type="line"/>
      <point x="314" y="230" type="line" smooth="yes"/>
      <point x="314" y="147"/>
      <point x="255" y="122"/>
      <point x="204" y="122" type="curve" smooth="yes"/>
      <point x="175" y="122" type="line" smooth="yes"/>
      <point x="163" y="122"/>
      <point x="153" y="122"/>
      <point x="144" y="124" type="curve"/>
      <point x="144" y="125" type="line"/>
      <point x="172" y="131"/>
      <point x="190" y="155"/>
      <point x="190" y="183" type="curve" smooth="yes"/>
      <point x="190" y="221"/>
      <point x="163" y="246"/>
      <point x="125" y="246" type="curve" smooth="yes"/>
      <point x="87" y="246"/>
      <point x="60" y="221"/>
    </contour>
    <contour>
      <point x="346" y="325" type="curve" smooth="yes"/>
      <point x="346" y="271"/>
      <point x="393" y="247"/>
      <point x="475" y="247" type="curve" smooth="yes"/>
      <point x="552" y="247"/>
      <point x="619" y="277"/>
      <point x="619" y="372" type="curve" smooth="yes"/>
      <point x="619" y="382" type="line"/>
      <point x="600" y="382" type="line"/>
      <point x="600" y="372" type="line" smooth="yes"/>
      <point x="600" y="289"/>
      <point x="541" y="264"/>
      <point x="490" y="264" type="curve" smooth="yes"/>
      <point x="461" y="264" type="line" smooth="yes"/>
      <point x="449" y="264"/>
      <point x="439" y="264"/>
      <point x="430" y="266" type="curve"/>
      <point x="430" y="267" type="line"/>
      <point x="458" y="273"/>
      <point x="476" y="297"/>
      <point x="476" y="325" type="curve" smooth="yes"/>
      <point x="476" y="363"/>
      <point x="449" y="388"/>
      <point x="411" y="388" type="curve" smooth="yes"/>
      <point x="373" y="388"/>
      <point x="346" y="363"/>
    </contour>
    <contour>
      <point x="125" y="134" type="curve" smooth="yes"/>
      <point x="93" y="134"/>
      <point x="78" y="155"/>
      <point x="78" y="183" type="curve" smooth="yes"/>
      <point x="78" y="211"/>
      <point x="93" y="232"/>
      <point x="125" y="232" type="curve" smooth="yes"/>
      <point x="157" y="232"/>
      <point x="172" y="211"/>
      <point x="172" y="183" type="curve" smooth="yes"/>
      <point x="172" y="155"/>
      <point x="157" y="134"/>
    </contour>
    <contour>
      <point x="125" y="369" type="curve" smooth="yes"/>
      <point x="93" y="369"/>
      <point x="78" y="390"/>
      <point x="78" y="418" type="curve" smooth="yes"/>
      <point x="78" y="446"/>
      <point x="93" y="467"/>
      <point x="125" y="467" type="curve" smooth="yes"/>
      <point x="157" y="467"/>
      <point x="172" y="446"/>
      <point x="172" y="418" type="curve" smooth="yes"/>
      <point x="172" y="390"/>
      <point x="157" y="369"/>
    </contour>
    <contour>
      <point x="411" y="276" type="curve" smooth="yes"/>
      <point x="379" y="276"/>
      <point x="364" y="297"/>
      <point x="364" y="325" type="curve" smooth="yes"/>
      <point x="364" y="353"/>
      <point x="379" y="374"/>
      <point x="411" y="374" type="curve" smooth="yes"/>
      <point x="443" y="374"/>
      <point x="458" y="353"/>
      <point x="458" y="325" type="curve" smooth="yes"/>
      <point x="458" y="297"/>
      <point x="443" y="276"/>
    </contour>
  </outline>
</glyph>
<glyph name="pikKaa-thai" format="1">
  <advance width="542"/>
  <unicode hex="EC05"/>
  <outline>
    <contour>
      <point x="259" y="1067" type="curve" smooth="yes"/>
      <point x="216" y="1067"/>
      <point x="184" y="1038"/>
      <point x="184" y="993" type="curve" smooth="yes"/>
      <point x="184" y="948"/>
      <point x="216" y="919"/>
      <point x="259" y="919" type="curve" smooth="yes"/>
      <point x="282" y="919"/>
      <point x="300" y="927"/>
      <point x="313" y="942" type="curve"/>
      <point x="313" y="-309" type="line"/>
      <point x="145" y="-484" type="line"/>
      <point x="160" y="-500" type="line"/>
      <point x="327" y="-325" type="line" smooth="yes"/>
      <point x="332" y="-319"/>
      <point x="334" y="-316"/>
      <point x="334" y="-307" type="curve" smooth="yes"/>
      <point x="334" y="993" type="line" smooth="yes"/>
      <point x="334" y="1038"/>
      <point x="302" y="1067"/>
    </contour>
    <contour>
      <point x="259" y="934" type="curve" smooth="yes"/>
      <point x="222" y="934"/>
      <point x="203" y="959"/>
      <point x="203" y="993" type="curve" smooth="yes"/>
      <point x="203" y="1027"/>
      <point x="222" y="1052"/>
      <point x="259" y="1052" type="curve" smooth="yes"/>
      <point x="296" y="1052"/>
      <point x="315" y="1027"/>
      <point x="315" y="993" type="curve" smooth="yes" name="hr01"/>
      <point x="315" y="959"/>
      <point x="296" y="934"/>
    </contour>
  </outline>
</glyph>
<glyph name="tinKhru-thai" format="1">
  <advance width="1677"/>
  <unicode hex="EC06"/>
  <outline>
    <contour>
      <point x="38" y="258" type="line" name="hr00"/>
      <point x="828" y="258" type="line"/>
      <point x="828" y="-533" type="line"/>
      <point x="849" y="-533" type="line"/>
      <point x="849" y="258" type="line"/>
      <point x="1638" y="258" type="line"/>
      <point x="1638" y="276" type="line"/>
      <point x="849" y="276" type="line"/>
      <point x="849" y="1067" type="line"/>
      <point x="828" y="1067" type="line"/>
      <point x="828" y="276" type="line"/>
      <point x="38" y="276" type="line"/>
    </contour>
  </outline>
</glyph>
<glyph name="fannu-thai" format="1">
  <advance width="0"/>
  <unicode hex="EC08"/>
  <outline>
    <component base="maiEk-thai" xOffset="-130"/>
    <component base="maiEk-thai"/>
    <contour>
      <point x="-105.0" y="558.0" type="move" name="_top"/>
    </contour>
  </outline>
</glyph>
<glyph name="fongdan-thai" format="1">
  <advance width="686"/>
  <unicode hex="EC0A"/>
  <outline>
    <contour>
      <point x="343" y="-12" type="curve" smooth="yes" name="hr00"/>
      <point x="501" y="-12"/>
      <point x="596" y="83"/>
      <point x="596" y="268" type="curve" smooth="yes"/>
      <point x="596" y="453"/>
      <point x="501" y="548"/>
      <point x="343" y="548" type="curve" smooth="yes"/>
      <point x="185" y="548"/>
      <point x="90" y="453"/>
      <point x="90" y="268" type="curve" smooth="yes"/>
      <point x="90" y="83"/>
      <point x="185" y="-12"/>
    </contour>
    <contour>
      <point x="343" y="6" type="curve" smooth="yes"/>
      <point x="195" y="6"/>
      <point x="113" y="95"/>
      <point x="113" y="239" type="curve" smooth="yes"/>
      <point x="113" y="297" type="line" smooth="yes"/>
      <point x="113" y="441"/>
      <point x="195" y="530"/>
      <point x="343" y="530" type="curve" smooth="yes"/>
      <point x="491" y="530"/>
      <point x="573" y="441"/>
      <point x="573" y="297" type="curve" smooth="yes"/>
      <point x="573" y="239" type="line" smooth="yes"/>
      <point x="573" y="95"/>
      <point x="491" y="6"/>
    </contour>
    <contour>
      <point x="268" y="814" type="line"/>
      <point x="270" y="678" type="line"/>
      <point x="286" y="678" type="line"/>
      <point x="288" y="814" type="line"/>
    </contour>
    <contour>
      <point x="398" y="814" type="line"/>
      <point x="400" y="678" type="line"/>
      <point x="416" y="678" type="line"/>
      <point x="418" y="814" type="line"/>
    </contour>
  </outline>
</glyph>
<glyph name="fongman_fonthong-thai" format="1">
  <advance width="686"/>
  <unicode hex="EC10"/>
  <outline>
    <component base="fongman-thai"/>
    <component base="maiEk-thai" xOffset="384"/>
    <contour>
      <point x="354.0" y="838.0" type="move" name="topright"/>
    </contour>
  </outline>
</glyph>
<glyph name="doChada-thai.short" format="1">
  <advance width="673"/>
  <outline>
    <contour>
      <point x="310" y="-189" type="curve" smooth="yes"/>
      <point x="352" y="-189"/>
      <point x="367" y="-165"/>
      <point x="411" y="-105" type="curve"/>
      <point x="419" y="-110" type="line"/>
      <point x="531" y="-184" type="line"/>
      <point x="544" y="-184" type="line" smooth="yes"/>
      <point x="552" y="-184"/>
      <point x="560" y="-177"/>
      <point x="560" y="-168" type="curve" smooth="yes"/>
      <point x="560" y="344" type="line" smooth="yes"/>
      <point x="560" y="477"/>
      <point x="484" y="548"/>
      <point x="338" y="548" type="curve" smooth="yes"/>
      <point x="213" y="548"/>
      <point x="122" y="476"/>
      <point x="107" y="377" type="curve"/>
      <point x="191" y="347" type="line"/>
      <point x="191" y="113" type="line"/>
      <point x="178" y="127"/>
      <point x="160" y="136"/>
      <point x="137" y="136" type="curve" smooth="yes"/>
      <point x="94" y="136"/>
      <point x="62" y="107"/>
      <point x="62" y="62" type="curve" smooth="yes"/>
      <point x="62" y="17"/>
      <point x="94" y="-12"/>
      <point x="137" y="-12" type="curve" smooth="yes"/>
      <point x="180" y="-12"/>
      <point x="212" y="17"/>
      <point x="212" y="62" type="curve" smooth="yes"/>
      <point x="212" y="345" type="line" smooth="yes"/>
      <point x="212" y="355"/>
      <point x="209" y="360"/>
      <point x="200" y="363" type="curve" smooth="yes"/>
      <point x="128" y="387" type="line"/>
      <point x="145" y="465"/>
      <point x="219" y="530"/>
      <point x="338" y="530" type="curve" smooth="yes"/>
      <point x="465" y="530"/>
      <point x="539" y="472"/>
      <point x="539" y="344" type="curve" smooth="yes"/>
      <point x="539" y="-168" type="line"/>
      <point x="536" y="-168" type="line"/>
      <point x="427" y="-95" type="line" smooth="yes"/>
      <point x="425" y="-93"/>
      <point x="423" y="-92"/>
      <point x="421" y="-91" type="curve"/>
      <point x="455" y="-45" type="line"/>
      <point x="432" y="-45" type="line"/>
      <point x="406" y="-81" type="line"/>
      <point x="360" y="-49"/>
      <point x="341" y="-37"/>
      <point x="310" y="-37" type="curve" smooth="yes"/>
      <point x="267" y="-37"/>
      <point x="236" y="-65"/>
      <point x="236" y="-113" type="curve" smooth="yes"/>
      <point x="236" y="-161"/>
      <point x="267" y="-189"/>
    </contour>
    <contour>
      <point x="308" y="-174" type="curve" smooth="yes"/>
      <point x="280" y="-174"/>
      <point x="256" y="-154"/>
      <point x="256" y="-125" type="curve" smooth="yes"/>
      <point x="256" y="-101" type="line" smooth="yes"/>
      <point x="256" y="-72"/>
      <point x="280" y="-52"/>
      <point x="308" y="-52" type="curve" smooth="yes"/>
      <point x="333" y="-52"/>
      <point x="349" y="-63"/>
      <point x="396" y="-95" type="curve"/>
      <point x="348" y="-163"/>
      <point x="337" y="-174"/>
    </contour>
    <contour>
      <point x="137" y="3" type="curve" smooth="yes"/>
      <point x="100" y="3"/>
      <point x="81" y="28"/>
      <point x="81" y="62" type="curve" smooth="yes"/>
      <point x="81" y="96"/>
      <point x="100" y="121"/>
      <point x="137" y="121" type="curve" smooth="yes"/>
      <point x="174" y="121"/>
      <point x="193" y="96"/>
      <point x="193" y="62" type="curve" smooth="yes" name="hr01"/>
      <point x="193" y="28"/>
      <point x="174" y="3"/>
    </contour>
    <contour>
      <point x="560.0" y="-106.0" type="move" name="bottomright"/>
    </contour>
    <contour>
      <point x="338.0" y="558.0" type="move" name="top"/>
    </contour>
    <contour>
      <point x="560.0" y="600.0" type="move" name="topright"/>
    </contour>
  </outline>
</glyph>
<glyph name="four-thai.sups" format="1">
  <advance width="428"/>
  <outline>
    <contour>
      <point x="223" y="359" type="curve" name="hr00"/>
      <point x="399" y="359" type="line"/>
      <point x="399" y="376" type="line"/>
      <point x="397" y="376" type="line" smooth="yes"/>
      <point x="319" y="376"/>
      <point x="275" y="423"/>
      <point x="268" y="477" type="curve"/>
      <point x="278" y="469"/>
      <point x="291" y="465"/>
      <point x="305" y="465" type="curve" smooth="yes"/>
      <point x="339" y="465"/>
      <point x="363" y="487"/>
      <point x="363" y="520" type="curve" smooth="yes"/>
      <point x="363" y="553"/>
      <point x="339" y="575"/>
      <point x="305" y="575" type="curve" smooth="yes"/>
      <point x="271" y="575"/>
      <point x="247" y="553"/>
      <point x="247" y="520" type="curve" smooth="yes"/>
      <point x="247" y="497" type="line" smooth="yes"/>
      <point x="247" y="430"/>
      <point x="287" y="390"/>
      <point x="334" y="379" type="curve"/>
      <point x="334" y="376" type="line"/>
      <point x="223" y="376" type="line" smooth="yes"/>
      <point x="133" y="376"/>
      <point x="76" y="421"/>
      <point x="76" y="503" type="curve" smooth="yes"/>
      <point x="76" y="532" type="line" smooth="yes"/>
      <point x="76" y="595"/>
      <point x="116" y="636"/>
      <point x="192" y="653" type="curve" smooth="yes"/>
      <point x="328" y="683" type="line" smooth="yes"/>
      <point x="355" y="689"/>
      <point x="360" y="691"/>
      <point x="363" y="712" type="curve" smooth="yes"/>
      <point x="371" y="760" type="line"/>
      <point x="350" y="760" type="line"/>
      <point x="341" y="702" type="line"/>
      <point x="191" y="668" type="line" smooth="yes"/>
      <point x="105" y="649"/>
      <point x="53" y="609"/>
      <point x="53" y="517" type="curve" smooth="yes"/>
      <point x="53" y="407"/>
      <point x="120" y="359"/>
    </contour>
    <contour>
      <point x="305" y="479" type="curve" smooth="yes"/>
      <point x="278" y="479"/>
      <point x="264" y="496"/>
      <point x="264" y="520" type="curve" smooth="yes"/>
      <point x="264" y="544"/>
      <point x="278" y="561"/>
      <point x="305" y="561" type="curve" smooth="yes"/>
      <point x="332" y="561"/>
      <point x="346" y="544"/>
      <point x="346" y="520" type="curve" smooth="yes"/>
      <point x="346" y="496"/>
      <point x="332" y="479"/>
    </contour>
  </outline>
</glyph>
<glyph name="maiChattawa-thai.small" format="1">
  <advance width="0"/>
  <outline>
    <contour>
      <point x="-30" y="939" type="line" name="hr00"/>
      <point x="-30" y="957" type="line"/>
      <point x="-114" y="954" type="line"/>
      <point x="-111" y="1038" type="line"/>
      <point x="-131" y="1038" type="line"/>
      <point x="-128" y="954" type="line"/>
      <point x="-212" y="957" type="line"/>
      <point x="-212" y="939" type="line"/>
      <point x="-128" y="942" type="line"/>
      <point x="-131" y="858" type="line"/>
      <point x="-111" y="858" type="line"/>
      <point x="-114" y="942" type="line"/>
    </contour>
    <contour>
      <point x="-112.0" y="800.0" type="move" name="_topright"/>
    </contour>
  </outline>
</glyph>
<glyph name="maiEk-thai.small" format="1">
  <advance width="0"/>
  <outline>
    <contour>
      <point x="-30" y="986" type="line" name="hr00"/>
      <point x="-50" y="986" type="line"/>
      <point x="-48" y="858" type="line"/>
      <point x="-32" y="858" type="line"/>
    </contour>
    <contour>
      <point x="-31.0" y="800.0" type="move" name="_topright"/>
    </contour>
  </outline>
</glyph>
<glyph name="maiHanaKat_maiTri-thai" format="1">
  <advance width="0"/>
  <outline>
    <component base="maiHanaKat-thai" xOffset="-8"/>
    <component base="maiTri-thai.small" yOffset="14"/>
    <contour>
      <point x="-186.0" y="600.0" type="move" name="_topright"/>
    </contour>
  </outline>
</glyph>
<glyph name="maiTho-thai.small" format="1">
  <advance width="0"/>
  <outline>
    <contour>
      <point x="-291" y="858" type="line" name="hr00"/>
      <point x="-98" y="858" type="line" smooth="yes"/>
      <point x="-84" y="858"/>
      <point x="-78" y="863"/>
      <point x="-71" y="880" type="curve" smooth="yes"/>
      <point x="-30" y="981" type="line"/>
      <point x="-49" y="981" type="line"/>
      <point x="-91" y="873" type="line"/>
      <point x="-252" y="873" type="line"/>
      <point x="-252" y="876" type="line"/>
      <point x="-200" y="904"/>
      <point x="-171" y="920"/>
      <point x="-171" y="961" type="curve" smooth="yes"/>
      <point x="-171" y="999"/>
      <point x="-198" y="1024"/>
      <point x="-237" y="1024" type="curve" smooth="yes"/>
      <point x="-276" y="1024"/>
      <point x="-303" y="999"/>
      <point x="-303" y="961" type="curve" smooth="yes"/>
      <point x="-303" y="924"/>
      <point x="-275" y="897"/>
      <point x="-230" y="902" type="curve"/>
      <point x="-230" y="901" type="line"/>
      <point x="-291" y="867" type="line"/>
    </contour>
    <contour>
      <point x="-237" y="913" type="curve" smooth="yes"/>
      <point x="-265" y="913"/>
      <point x="-283" y="931"/>
      <point x="-283" y="961" type="curve" smooth="yes"/>
      <point x="-283" y="991"/>
      <point x="-265" y="1009"/>
      <point x="-237" y="1009" type="curve" smooth="yes"/>
      <point x="-209" y="1009"/>
      <point x="-191" y="991"/>
      <point x="-191" y="961" type="curve" smooth="yes"/>
      <point x="-191" y="931"/>
      <point x="-209" y="913"/>
    </contour>
    <contour>
      <point x="-158.0" y="800.0" type="move" name="_topright"/>
    </contour>
  </outline>
</glyph>
<glyph name="maiTri-thai.narrow" format="1">
  <advance width="0"/>
  <outline>
    <contour>
      <point x="-347" y="672" type="curve" smooth="yes"/>
      <point x="-320" y="672"/>
      <point x="-297" y="691"/>
      <point x="-297" y="719" type="curve" smooth="yes"/>
      <point x="-297" y="747"/>
      <point x="-318" y="766"/>
      <point x="-345" y="766" type="curve" smooth="yes"/>
      <point x="-361" y="766"/>
      <point x="-376" y="758"/>
      <point x="-383" y="748" type="curve"/>
      <point x="-383" y="759" type="line" smooth="yes"/>
      <point x="-383" y="790"/>
      <point x="-363" y="808"/>
      <point x="-335" y="808" type="curve" smooth="yes"/>
      <point x="-300" y="808"/>
      <point x="-284" y="790"/>
      <point x="-278" y="747" type="curve"/>
      <point x="-260" y="747" type="line"/>
      <point x="-254" y="790"/>
      <point x="-238" y="808"/>
      <point x="-203" y="808" type="curve" smooth="yes"/>
      <point x="-170" y="808"/>
      <point x="-148" y="783"/>
      <point x="-157" y="740" type="curve" smooth="yes"/>
      <point x="-169" y="680" type="line" name="hr01"/>
      <point x="-74" y="680" type="line" smooth="yes"/>
      <point x="-60" y="680"/>
      <point x="-53" y="687"/>
      <point x="-50" y="702" type="curve" smooth="yes"/>
      <point x="-30" y="804" type="line"/>
      <point x="-48" y="804" type="line"/>
      <point x="-69" y="695" type="line"/>
      <point x="-153" y="695" type="line"/>
      <point x="-153" y="697" type="line"/>
      <point x="-143" y="713"/>
      <point x="-136" y="736"/>
      <point x="-136" y="759" type="curve" smooth="yes"/>
      <point x="-136" y="794"/>
      <point x="-158" y="824"/>
      <point x="-202" y="824" type="curve" smooth="yes"/>
      <point x="-237" y="824"/>
      <point x="-258" y="805"/>
      <point x="-267" y="773" type="curve"/>
      <point x="-270" y="773" type="line"/>
      <point x="-280" y="805"/>
      <point x="-301" y="824"/>
      <point x="-336" y="824" type="curve" smooth="yes"/>
      <point x="-380" y="824"/>
      <point x="-402" y="793"/>
      <point x="-402" y="748" type="curve" smooth="yes"/>
      <point x="-402" y="701"/>
      <point x="-381" y="672"/>
    </contour>
    <contour>
      <point x="-347" y="686" type="curve" smooth="yes"/>
      <point x="-367" y="686"/>
      <point x="-380" y="698"/>
      <point x="-380" y="719" type="curve" smooth="yes"/>
      <point x="-380" y="740"/>
      <point x="-367" y="752"/>
      <point x="-347" y="752" type="curve" smooth="yes"/>
      <point x="-327" y="752"/>
      <point x="-314" y="740"/>
      <point x="-314" y="719" type="curve" smooth="yes"/>
      <point x="-314" y="698"/>
      <point x="-327" y="686"/>
    </contour>
    <contour>
      <point x="16.0" y="600.0" type="move" name="_topright"/>
    </contour>
    <contour>
      <point x="-89.0" y="800.0" type="move" name="topright"/>
    </contour>
  </outline>
</glyph>
<glyph name="maiTri-thai.small" format="1">
  <advance width="0"/>
  <outline>
    <contour>
      <point x="-347" y="850" type="curve" smooth="yes"/>
      <point x="-320" y="850"/>
      <point x="-297" y="869"/>
      <point x="-297" y="897" type="curve" smooth="yes"/>
      <point x="-297" y="925"/>
      <point x="-318" y="944"/>
      <point x="-345" y="944" type="curve" smooth="yes"/>
      <point x="-361" y="944"/>
      <point x="-376" y="936"/>
      <point x="-383" y="926" type="curve"/>
      <point x="-383" y="937" type="line" smooth="yes"/>
      <point x="-383" y="968"/>
      <point x="-363" y="986"/>
      <point x="-335" y="986" type="curve" smooth="yes"/>
      <point x="-300" y="986"/>
      <point x="-284" y="968"/>
      <point x="-278" y="925" type="curve"/>
      <point x="-260" y="925" type="line"/>
      <point x="-254" y="968"/>
      <point x="-238" y="986"/>
      <point x="-203" y="986" type="curve" smooth="yes"/>
      <point x="-170" y="986"/>
      <point x="-148" y="961"/>
      <point x="-157" y="918" type="curve" smooth="yes"/>
      <point x="-169" y="858" type="line" name="hr01"/>
      <point x="-74" y="858" type="line" smooth="yes"/>
      <point x="-60" y="858"/>
      <point x="-53" y="865"/>
      <point x="-50" y="880" type="curve" smooth="yes"/>
      <point x="-30" y="982" type="line"/>
      <point x="-48" y="982" type="line"/>
      <point x="-69" y="873" type="line"/>
      <point x="-153" y="873" type="line"/>
      <point x="-153" y="875" type="line"/>
      <point x="-143" y="891"/>
      <point x="-136" y="914"/>
      <point x="-136" y="937" type="curve" smooth="yes"/>
      <point x="-136" y="972"/>
      <point x="-158" y="1002"/>
      <point x="-202" y="1002" type="curve" smooth="yes"/>
      <point x="-237" y="1002"/>
      <point x="-258" y="983"/>
      <point x="-267" y="951" type="curve"/>
      <point x="-270" y="951" type="line"/>
      <point x="-280" y="983"/>
      <point x="-301" y="1002"/>
      <point x="-336" y="1002" type="curve" smooth="yes"/>
      <point x="-380" y="1002"/>
      <point x="-402" y="971"/>
      <point x="-402" y="926" type="curve" smooth="yes"/>
      <point x="-402" y="879"/>
      <point x="-381" y="850"/>
    </contour>
    <contour>
      <point x="-347" y="864" type="curve" smooth="yes"/>
      <point x="-367" y="864"/>
      <point x="-380" y="876"/>
      <point x="-380" y="897" type="curve" smooth="yes"/>
      <point x="-380" y="918"/>
      <point x="-367" y="930"/>
      <point x="-347" y="930" type="curve" smooth="yes"/>
      <point x="-327" y="930"/>
      <point x="-314" y="918"/>
      <point x="-314" y="897" type="curve" smooth="yes"/>
      <point x="-314" y="876"/>
      <point x="-327" y="864"/>
    </contour>
    <contour>
      <point x="-146.0" y="800.0" type="move" name="_topright"/>
    </contour>
  </outline>
</glyph>
<glyph name="maitaikhu-thai.small" format="1">
  <advance width="0"/>
  <outline>
    <contour>
      <point x="-255" y="850" type="curve" smooth="yes" name="hr00"/>
      <point x="-222" y="850"/>
      <point x="-197" y="870"/>
      <point x="-189" y="913" type="curve"/>
      <point x="-186" y="913" type="line"/>
      <point x="-169" y="868"/>
      <point x="-135" y="850"/>
      <point x="-97" y="850" type="curve" smooth="yes"/>
      <point x="-57" y="850"/>
      <point x="-31" y="877"/>
      <point x="-31" y="915" type="curve" smooth="yes"/>
      <point x="-31" y="946"/>
      <point x="-50" y="967"/>
      <point x="-80" y="967" type="curve" smooth="yes"/>
      <point x="-110" y="967"/>
      <point x="-129" y="948"/>
      <point x="-129" y="920" type="curve" smooth="yes"/>
      <point x="-129" y="892"/>
      <point x="-110" y="875"/>
      <point x="-83" y="875" type="curve" smooth="yes"/>
      <point x="-73" y="875"/>
      <point x="-64" y="878"/>
      <point x="-57" y="883" type="curve"/>
      <point x="-55" y="881" type="line"/>
      <point x="-64" y="870"/>
      <point x="-78" y="865"/>
      <point x="-97" y="865" type="curve" smooth="yes"/>
      <point x="-151" y="865"/>
      <point x="-172" y="907"/>
      <point x="-179" y="946" type="curve"/>
      <point x="-195" y="946" type="line"/>
      <point x="-196" y="904"/>
      <point x="-212" y="865"/>
      <point x="-252" y="865" type="curve" smooth="yes"/>
      <point x="-291" y="865"/>
      <point x="-307" y="891"/>
      <point x="-307" y="927" type="curve" smooth="yes"/>
      <point x="-307" y="971"/>
      <point x="-279" y="997"/>
      <point x="-232" y="997" type="curve" smooth="yes"/>
      <point x="-68" y="997" type="line" smooth="yes"/>
      <point x="-54" y="997"/>
      <point x="-47" y="1000"/>
      <point x="-44" y="1014" type="curve" smooth="yes"/>
      <point x="-30" y="1078" type="line"/>
      <point x="-49" y="1081" type="line"/>
      <point x="-64" y="1012" type="line"/>
      <point x="-228" y="1012" type="line" smooth="yes"/>
      <point x="-293" y="1012"/>
      <point x="-327" y="976"/>
      <point x="-327" y="927" type="curve" smooth="yes"/>
      <point x="-327" y="885"/>
      <point x="-301" y="850"/>
    </contour>
    <contour>
      <point x="-80" y="887" type="curve" smooth="yes"/>
      <point x="-101" y="887"/>
      <point x="-113" y="899"/>
      <point x="-113" y="920" type="curve" smooth="yes"/>
      <point x="-113" y="941"/>
      <point x="-101" y="953"/>
      <point x="-80" y="953" type="curve" smooth="yes"/>
      <point x="-59" y="953"/>
      <point x="-47" y="941"/>
      <point x="-47" y="920" type="curve" smooth="yes"/>
      <point x="-47" y="899"/>
      <point x="-59" y="887"/>
    </contour>
    <contour>
      <point x="28.0" y="800.0" type="move" name="_topright"/>
    </contour>
  </outline>
</glyph>
<glyph name="nikhahit-thai.small" format="1">
  <advance width="0"/>
  <outline>
    <contour>
      <point x="-107" y="850" type="curve" smooth="yes" name="hr00"/>
      <point x="-62" y="850"/>
      <point x="-30" y="881"/>
      <point x="-30" y="926" type="curve" smooth="yes"/>
      <point x="-30" y="971"/>
      <point x="-62" y="1002"/>
      <point x="-107" y="1002" type="curve" smooth="yes"/>
      <point x="-152" y="1002"/>
      <point x="-184" y="971"/>
      <point x="-184" y="926" type="curve" smooth="yes"/>
      <point x="-184" y="881"/>
      <point x="-152" y="850"/>
    </contour>
    <contour>
      <point x="-107" y="865" type="curve" smooth="yes"/>
      <point x="-143" y="865"/>
      <point x="-164" y="887"/>
      <point x="-164" y="919" type="curve" smooth="yes"/>
      <point x="-164" y="933" type="line" smooth="yes"/>
      <point x="-164" y="965"/>
      <point x="-143" y="987"/>
      <point x="-107" y="987" type="curve" smooth="yes"/>
      <point x="-71" y="987"/>
      <point x="-50" y="965"/>
      <point x="-50" y="933" type="curve" smooth="yes"/>
      <point x="-50" y="919" type="line" smooth="yes"/>
      <point x="-50" y="887"/>
      <point x="-71" y="865"/>
    </contour>
    <contour>
      <point x="-97.0" y="800.0" type="move" name="_topright"/>
    </contour>
  </outline>
</glyph>
<glyph name="nine-thai.sups" format="1">
  <advance width="519"/>
  <outline>
    <contour>
      <point x="135" y="350" type="curve" smooth="yes"/>
      <point x="167" y="350"/>
      <point x="191" y="372"/>
      <point x="191" y="405" type="curve" smooth="yes"/>
      <point x="191" y="438"/>
      <point x="167" y="460"/>
      <point x="135" y="460" type="curve" smooth="yes"/>
      <point x="110" y="460"/>
      <point x="89" y="447"/>
      <point x="84" y="422" type="curve"/>
      <point x="80" y="436"/>
      <point x="78" y="456"/>
      <point x="78" y="498" type="curve" smooth="yes"/>
      <point x="78" y="570" type="line" smooth="yes"/>
      <point x="78" y="647"/>
      <point x="104" y="693"/>
      <point x="165" y="693" type="curve" smooth="yes"/>
      <point x="222" y="693"/>
      <point x="242" y="652"/>
      <point x="255" y="610" type="curve" smooth="yes"/>
      <point x="335" y="359" type="line" name="hr01"/>
      <point x="358" y="359" type="line"/>
      <point x="291" y="566" type="line" smooth="yes"/>
      <point x="261" y="658"/>
      <point x="301" y="693"/>
      <point x="342" y="693" type="curve" smooth="yes"/>
      <point x="384" y="693"/>
      <point x="414" y="657"/>
      <point x="414" y="591" type="curve"/>
      <point x="433" y="591" type="line"/>
      <point x="462" y="760" type="line"/>
      <point x="441" y="760" type="line"/>
      <point x="420" y="624" type="line"/>
      <point x="418" y="624" type="line"/>
      <point x="417" y="669"/>
      <point x="391" y="710"/>
      <point x="341" y="710" type="curve" smooth="yes"/>
      <point x="295" y="710"/>
      <point x="262" y="675"/>
      <point x="269" y="621" type="curve"/>
      <point x="267" y="621" type="line"/>
      <point x="255" y="666"/>
      <point x="225" y="710"/>
      <point x="165" y="710" type="curve" smooth="yes"/>
      <point x="91" y="710"/>
      <point x="57" y="660"/>
      <point x="57" y="571" type="curve" smooth="yes"/>
      <point x="57" y="494" type="line" smooth="yes"/>
      <point x="57" y="391"/>
      <point x="89" y="350"/>
    </contour>
    <contour>
      <point x="135" y="364" type="curve" smooth="yes"/>
      <point x="110" y="364"/>
      <point x="96" y="381"/>
      <point x="96" y="405" type="curve" smooth="yes"/>
      <point x="96" y="429"/>
      <point x="110" y="446"/>
      <point x="135" y="446" type="curve" smooth="yes"/>
      <point x="160" y="446"/>
      <point x="174" y="429"/>
      <point x="174" y="405" type="curve" smooth="yes"/>
      <point x="174" y="381"/>
      <point x="160" y="364"/>
    </contour>
  </outline>
</glyph>
<glyph name="noNu-thai_macronbelowcomb" format="1">
  <advance width="643"/>
  <outline>
    <contour>
      <point x="498" y="-12" type="curve" smooth="yes"/>
      <point x="541" y="-12"/>
      <point x="573" y="18"/>
      <point x="573" y="64" type="curve" smooth="yes"/>
      <point x="573" y="109"/>
      <point x="542" y="139"/>
      <point x="500" y="140" type="curve"/>
      <point x="505" y="145"/>
      <point x="507" y="153"/>
      <point x="507" y="163" type="curve" smooth="yes"/>
      <point x="507" y="536" type="line"/>
      <point x="486" y="536" type="line"/>
      <point x="486" y="145" type="line"/>
      <point x="192" y="21" type="line" name="hr01"/>
      <point x="189" y="21" type="line"/>
      <point x="189" y="474" type="line" smooth="yes"/>
      <point x="189" y="519"/>
      <point x="157" y="548"/>
      <point x="114" y="548" type="curve" smooth="yes"/>
      <point x="71" y="548"/>
      <point x="39" y="519"/>
      <point x="39" y="474" type="curve" smooth="yes"/>
      <point x="39" y="429"/>
      <point x="71" y="400"/>
      <point x="114" y="400" type="curve" smooth="yes"/>
      <point x="137" y="400"/>
      <point x="155" y="408"/>
      <point x="168" y="423" type="curve"/>
      <point x="168" y="0" type="line"/>
      <point x="185" y="0" type="line"/>
      <point x="433" y="104" type="line"/>
      <point x="426" y="93"/>
      <point x="423" y="79"/>
      <point x="423" y="64" type="curve" smooth="yes"/>
      <point x="423" y="18"/>
      <point x="455" y="-12"/>
    </contour>
    <contour>
      <point x="498" y="3" type="curve" smooth="yes"/>
      <point x="461" y="3"/>
      <point x="442" y="27"/>
      <point x="442" y="57" type="curve" smooth="yes"/>
      <point x="442" y="71" type="line" smooth="yes"/>
      <point x="442" y="101"/>
      <point x="461" y="125"/>
      <point x="498" y="125" type="curve" smooth="yes"/>
      <point x="535" y="125"/>
      <point x="554" y="101"/>
      <point x="554" y="71" type="curve" smooth="yes"/>
      <point x="554" y="57" type="line" smooth="yes"/>
      <point x="554" y="27"/>
      <point x="535" y="3"/>
    </contour>
    <contour>
      <point x="114" y="415" type="curve" smooth="yes"/>
      <point x="77" y="415"/>
      <point x="58" y="440"/>
      <point x="58" y="474" type="curve" smooth="yes"/>
      <point x="58" y="508"/>
      <point x="77" y="533"/>
      <point x="114" y="533" type="curve" smooth="yes"/>
      <point x="151" y="533"/>
      <point x="170" y="508"/>
      <point x="170" y="474" type="curve" smooth="yes"/>
      <point x="170" y="440"/>
      <point x="151" y="415"/>
    </contour>
    <contour>
      <point x="572" y="-121" type="line"/>
      <point x="117" y="-121" type="line"/>
      <point x="117" y="-139" type="line"/>
      <point x="572" y="-139" type="line"/>
    </contour>
    <contour>
      <point x="507.0" y="-97.0" type="move" name="bottomright"/>
    </contour>
    <contour>
      <point x="338.0" y="558.0" type="move" name="top"/>
    </contour>
    <contour>
      <point x="507.0" y="600.0" type="move" name="topright"/>
    </contour>
  </outline>
</glyph>
<glyph name="ru_lakkhangyao-thai" format="1">
  <advance width="973"/>
  <outline>
    <contour>
      <point x="860" y="-180" type="line"/>
      <point x="860" y="382" type="line" smooth="yes"/>
      <point x="860" y="489"/>
      <point x="802" y="548"/>
      <point x="689" y="548" type="curve" smooth="yes"/>
      <point x="599" y="548"/>
      <point x="549" y="513"/>
      <point x="519" y="458" type="curve"/>
      <point x="484" y="517"/>
      <point x="416" y="548"/>
      <point x="317" y="548" type="curve" smooth="yes"/>
      <point x="189" y="548"/>
      <point x="94" y="476"/>
      <point x="79" y="377" type="curve"/>
      <point x="163" y="347" type="line"/>
      <point x="163" y="62" type="line" smooth="yes"/>
      <point x="163" y="17"/>
      <point x="195" y="-12"/>
      <point x="238" y="-12" type="curve" smooth="yes"/>
      <point x="281" y="-12"/>
      <point x="313" y="17"/>
      <point x="313" y="62" type="curve" smooth="yes"/>
      <point x="313" y="107"/>
      <point x="281" y="136"/>
      <point x="238" y="136" type="curve" smooth="yes"/>
      <point x="215" y="136"/>
      <point x="196" y="127"/>
      <point x="184" y="113" type="curve"/>
      <point x="184" y="345" type="line" smooth="yes"/>
      <point x="184" y="355"/>
      <point x="181" y="360"/>
      <point x="172" y="363" type="curve" smooth="yes"/>
      <point x="100" y="387" type="line"/>
      <point x="117" y="465"/>
      <point x="194" y="530"/>
      <point x="317" y="530" type="curve" smooth="yes"/>
      <point x="449" y="530"/>
      <point x="525" y="472"/>
      <point x="525" y="345" type="curve" smooth="yes"/>
      <point x="525" y="-180" type="line"/>
      <point x="546" y="-180" type="line"/>
      <point x="546" y="345" type="line" smooth="yes"/>
      <point x="546" y="379"/>
      <point x="540" y="410"/>
      <point x="530" y="436" type="curve"/>
      <point x="559" y="501"/>
      <point x="612" y="530"/>
      <point x="689" y="530" type="curve" smooth="yes"/>
      <point x="786" y="530"/>
      <point x="839" y="484"/>
      <point x="839" y="379" type="curve" smooth="yes"/>
      <point x="839" y="-180" type="line"/>
    </contour>
    <contour>
      <point x="238" y="121" type="curve" smooth="yes"/>
      <point x="275" y="121"/>
      <point x="294" y="96"/>
      <point x="294" y="62" type="curve" smooth="yes"/>
      <point x="294" y="28"/>
      <point x="275" y="3"/>
      <point x="238" y="3" type="curve" smooth="yes"/>
      <point x="201" y="3"/>
      <point x="182" y="28"/>
      <point x="182" y="62" type="curve" smooth="yes" name="hr01"/>
      <point x="182" y="96"/>
      <point x="201" y="121"/>
    </contour>
    <contour>
      <point x="535.0" y="558.0" type="move" name="top"/>
    </contour>
  </outline>
</glyph>
<glyph name="saraI-thai.narrow" format="1">
  <advance width="0"/>
  <outline>
    <contour>
      <point x="-30" y="678" type="line" name="hr00"/>
      <point x="-30" y="690" type="line" smooth="yes"/>
      <point x="-30" y="771"/>
      <point x="-101" y="826"/>
      <point x="-206" y="826" type="curve" smooth="yes"/>
      <point x="-311" y="826"/>
      <point x="-382" y="771"/>
      <point x="-382" y="690" type="curve" smooth="yes"/>
      <point x="-382" y="678" type="line"/>
    </contour>
    <contour>
      <point x="-206" y="807" type="curve" smooth="yes"/>
      <point x="-116" y="807"/>
      <point x="-50" y="759"/>
      <point x="-50" y="695" type="curve"/>
      <point x="-362" y="695" type="line"/>
      <point x="-361" y="759"/>
      <point x="-295" y="807"/>
    </contour>
    <contour>
      <point x="30.0" y="600.0" type="move" name="_topright"/>
    </contour>
    <contour>
      <point x="-30.0" y="840.0" type="move" name="topright"/>
    </contour>
  </outline>
</glyph>
<glyph name="saraIi-thai.narrow" format="1">
  <advance width="0"/>
  <outline>
    <contour>
      <point x="-382" y="678" type="line" name="hr00"/>
      <point x="-30" y="678" type="line"/>
      <point x="-30" y="861" type="line"/>
      <point x="-50" y="861" type="line"/>
      <point x="-50" y="749" type="line"/>
      <point x="-54" y="749" type="line"/>
      <point x="-77" y="797"/>
      <point x="-134" y="826"/>
      <point x="-211" y="826" type="curve" smooth="yes"/>
      <point x="-313" y="826"/>
      <point x="-382" y="771"/>
      <point x="-382" y="690" type="curve" smooth="yes"/>
    </contour>
    <contour>
      <point x="-208" y="807" type="curve" smooth="yes"/>
      <point x="-116" y="807"/>
      <point x="-51" y="760"/>
      <point x="-50" y="695" type="curve"/>
      <point x="-362" y="695" type="line"/>
      <point x="-361" y="759"/>
      <point x="-296" y="807"/>
    </contour>
    <contour>
      <point x="30.0" y="600.0" type="move" name="_topright"/>
    </contour>
    <contour>
      <point x="-30.0" y="880.0" type="move" name="topright"/>
    </contour>
  </outline>
</glyph>
<glyph name="saraUe-thai.narrow" format="1">
  <advance width="0"/>
  <outline>
    <contour>
      <point x="-103" y="708" type="curve" smooth="yes" name="hr00"/>
      <point x="-61" y="708"/>
      <point x="-30" y="736"/>
      <point x="-30" y="780" type="curve" smooth="yes"/>
      <point x="-30" y="824"/>
      <point x="-61" y="852"/>
      <point x="-103" y="852" type="curve" smooth="yes"/>
      <point x="-145" y="852"/>
      <point x="-176" y="824"/>
      <point x="-176" y="780" type="curve" smooth="yes"/>
      <point x="-176" y="776" type="line"/>
      <point x="-205" y="808"/>
      <point x="-251" y="826"/>
      <point x="-313" y="826" type="curve" smooth="yes"/>
      <point x="-416" y="826"/>
      <point x="-485" y="771"/>
      <point x="-485" y="690" type="curve" smooth="yes"/>
      <point x="-485" y="678" type="line"/>
      <point x="-136" y="678" type="line"/>
      <point x="-136" y="690" type="line" smooth="yes"/>
      <point x="-136" y="699"/>
      <point x="-137" y="709"/>
      <point x="-139" y="718" type="curve"/>
      <point x="-128" y="712"/>
      <point x="-116" y="708"/>
    </contour>
    <contour>
      <point x="-310" y="807" type="curve" smooth="yes"/>
      <point x="-219" y="807"/>
      <point x="-154" y="761"/>
      <point x="-153" y="695" type="curve"/>
      <point x="-465" y="695" type="line"/>
      <point x="-464" y="759"/>
      <point x="-399" y="807"/>
    </contour>
    <contour>
      <point x="-103" y="723" type="curve" smooth="yes"/>
      <point x="-139" y="723"/>
      <point x="-157" y="747"/>
      <point x="-157" y="780" type="curve" smooth="yes"/>
      <point x="-157" y="813"/>
      <point x="-139" y="837"/>
      <point x="-103" y="837" type="curve" smooth="yes"/>
      <point x="-67" y="837"/>
      <point x="-49" y="813"/>
      <point x="-49" y="780" type="curve" smooth="yes"/>
      <point x="-49" y="747"/>
      <point x="-67" y="723"/>
    </contour>
    <contour>
      <point x="-4.0" y="600.0" type="move" name="_topright"/>
    </contour>
    <contour>
      <point x="-136.0" y="880.0" type="move" name="topright"/>
    </contour>
  </outline>
</glyph>
